<?xml version="1.0" encoding="UTF-8"?>
<svg xmlns="http://www.w3.org/2000/svg" xmlns:xlink="http://www.w3.org/1999/xlink" version="1.2" >
<font id="BaronDidot-SuperFine">
<font-face  font-family="BaronDidot" units-per-em="1000" ascent="705.811" descent="-293.945" font-style="normal" font-weight="400" font-stretch="normal" cap-height="750" x-height="500" underline-position="-49.5" underline-thickness="1" />
<missing-glyph  horiz-adv-x="1000" d="" />
<glyph glyph-name="NULL" d="" />
<glyph glyph-name="CR" unicode="&#xd;" horiz-adv-x="250" d="" />
<glyph glyph-name="space" unicode="&#x20;" horiz-adv-x="275" d="" />
<glyph glyph-name="exclam" unicode="&#x21;" horiz-adv-x="140" d="M118 602 C118 652 100 672 70 672 C40 672 22 652 22 602 C22 521 70 380 70 154 L70 154 C70 380 118 521 118 602 L118 602 Z M111 31 C111 56 93 76 70 76 C47 76 29 56 29 31 C29 7 47 -12 70 -12 C93 -12 111 7 111 32 L111 31 Z " />
<glyph glyph-name="quotedbl" unicode="&#x22;" horiz-adv-x="216" d="M194 626 C194 658 178 672 161 672 C144 672 128 658 128 626 C128 610 138 589 144 571 C151 546 161 514 161 458 L161 458 C161 514 171 546 178 571 C184 589 194 610 194 626 L194 626 Z M88 626 C88 658 72 672 55 672 C38 672 22 658 22 626 C22 610 32 589 38 571 C45 546 55 514 55 458 L55 458 C55 514 65 546 72 571 C78 589 88 610 88 626 L88 626 Z " />
<glyph glyph-name="numbersign" unicode="&#x23;" horiz-adv-x="547" d="M535 427 L402 427 L444 660 L443 660 L401 427 L193 427 L235 660 L234 660 L192 427 L49 427 L49 426 L192 426 L156 223 L12 223 L12 222 L156 222 L117 0 L118 0 L157 222 L365 222 L325 0 L326 0 L366 222 L499 222 L499 223 L366 223 L402 426 L535 426 L535 427 Z M401 426 L365 223 L157 223 L193 426 L401 426 Z " />
<glyph glyph-name="dollar" unicode="&#x24;" horiz-adv-x="449" d="M427 195 C427 301 368 342 256 383 L256 657 C308 649 324 623 324 586 C324 556 288 562 288 521 C288 495 311 471 338 471 C363 471 392 494 392 531 C392 582 358 645 256 659 L256 736 L255 736 L255 659 C241 660 231 661 217 661 C207 661 191 660 180 657 L180 736 L178 736 L178 657 C102 639 39 562 39 479 C39 376 96 331 178 301 L178 2 C112 8 94 38 94 71 C94 101 126 92 126 133 C126 160 103 184 76 184 C50 184 22 161 22 123 C22 72 80 12 178 1 L178 -75 L180 -75 L180 1 C188 0 203 0 213 0 C228 0 242 1 255 3 L255 -75 L256 -75 L256 4 C368 25 427 125 427 195 L427 195 Z M255 384 C229 393 199 405 180 415 L180 656 C190 658 206 660 217 660 C231 660 244 658 255 657 L255 384 Z M178 416 C113 451 81 492 81 540 C81 591 123 640 178 655 L178 416 Z M377 128 C377 79 332 21 256 5 L256 270 C342 233 377 197 377 128 L377 128 Z M255 5 C242 2 228 1 213 1 C203 1 188 1 180 2 L180 300 C205 291 235 280 255 271 L255 5 Z " />
<glyph glyph-name="percent" unicode="&#x25;" horiz-adv-x="646" d="M624 205 C624 278 577 322 513 322 C391 322 298 205 298 109 C298 35 345 -8 410 -8 C533 -8 624 109 624 205 L624 205 Z M534 673 C534 676 535 677 532 676 L530 673 C464 557 367 546 340 589 C326 636 286 664 236 664 C113 664 22 546 22 450 C22 377 69 333 133 333 C255 333 346 450 346 546 C346 558 345 573 342 585 C359 557 436 544 511 640 L118 -22 L119 -24 L526 663 C526 663 534 671 534 673 L534 673 Z M291 597 C291 541 264 395 199 354 C179 341 157 334 133 334 C91 334 77 355 77 400 C77 456 104 602 169 643 C190 656 212 663 236 663 C277 663 291 641 291 597 L291 597 Z M568 255 C568 199 542 53 476 12 C455 -1 434 -7 410 -7 C368 -7 355 14 355 59 C355 114 381 261 446 301 C467 315 488 321 513 321 C555 321 568 300 568 255 L568 255 Z " />
<glyph glyph-name="ampersand" unicode="&#x26;" horiz-adv-x="620" d="M615 62 L614 62 C606 40 580 11 554 11 C513 11 466 58 447 92 C478 142 502 209 508 281 C512 333 533 353 580 353 L615 353 L615 354 L404 354 L404 353 L437 353 C485 353 510 332 506 281 C501 213 476 142 446 93 C378 200 288 353 253 467 C319 505 363 554 363 599 C363 643 345 675 287 675 C215 675 158 608 158 500 C158 473 164 443 174 410 C77 346 22 271 22 175 C22 63 110 -16 228 -16 C284 -16 334 0 382 30 C414 1 449 -16 484 -16 C537 -16 599 15 615 62 L615 62 Z M362 598 C362 553 310 501 253 469 C242 507 238 545 238 578 C238 640 270 672 299 672 C343 672 362 639 362 598 L362 598 Z M382 32 C354 19 333 11 299 11 C174 11 101 112 101 256 C101 317 135 378 174 408 C205 312 273 195 327 105 C345 75 363 51 382 32 L382 32 Z " />
<glyph glyph-name="quotesingle" unicode="&#x27;" horiz-adv-x="110" d="M88 626 C88 658 72 672 55 672 C38 672 22 658 22 626 C22 610 32 589 38 571 C45 546 55 514 55 458 L55 458 C55 514 65 546 72 571 C78 589 88 610 88 626 L88 626 Z " />
<glyph glyph-name="parenleft" unicode="&#x28;" horiz-adv-x="260" d="M255 -226 C137 -142 93 -64 93 230 C93 524 138 602 255 686 L254 687 C112 589 22 427 22 230 C22 33 112 -129 254 -227 L255 -226 Z " />
<glyph glyph-name="parenright" unicode="&#x29;" horiz-adv-x="260" d="M255 230 C255 427 165 589 23 687 L22 686 C140 602 184 524 184 230 C184 -64 140 -142 22 -226 L23 -227 C165 -129 255 33 255 230 L255 230 Z " />
<glyph glyph-name="asterisk" unicode="&#x2a;" horiz-adv-x="237" d="M215 504 C221 514 217 530 206 536 C191 545 149 547 121 560 C147 572 192 576 206 584 C215 590 222 606 215 617 C210 626 194 630 183 623 C160 611 142 579 120 562 C122 594 142 632 142 648 C142 659 130 672 118 672 C107 672 96 661 96 648 C96 631 114 593 116 562 C94 579 68 616 55 624 C45 629 29 627 22 616 C16 607 20 591 32 585 C55 572 88 572 114 560 C88 548 55 549 32 536 C20 530 16 514 22 505 C28 495 43 491 55 498 C77 510 94 541 116 558 C114 527 96 489 96 473 C96 460 107 449 118 449 C129 449 142 460 142 473 C142 499 123 530 120 558 C142 541 160 510 183 498 C194 491 210 495 215 504 L215 504 Z " />
<glyph glyph-name="plus" unicode="&#x2b;" horiz-adv-x="364" d="M342 256 L342 257 L183 257 L183 413 L182 413 L182 257 L22 257 L22 256 L182 256 L182 100 L183 100 L183 256 L342 256 Z " />
<glyph glyph-name="comma" unicode="&#x2c;" horiz-adv-x="132" d="M110 20 C110 54 95 75 67 75 C44 75 26 56 26 32 C26 15 34 3 44 -5 C62 -18 73 -34 73 -50 C73 -68 63 -86 45 -101 C37 -107 27 -114 18 -116 L18 -117 C67 -102 110 -21 110 20 L110 20 Z " />
<glyph glyph-name="hyphen" unicode="&#x2d;" horiz-adv-x="249" d="M227 260 L29 260 L22 226 L220 226 L227 260 Z " />
<glyph glyph-name="period" unicode="&#x2e;" horiz-adv-x="126" d="M104 32 C104 56 86 76 63 76 C40 76 22 56 22 31 C22 7 40 -12 63 -12 C86 -12 104 7 104 32 L104 32 Z " />
<glyph glyph-name="slash" unicode="&#x2f;" horiz-adv-x="310" d="M305 682 L302 682 L5 -22 L8 -22 L305 682 Z " />
<glyph glyph-name="zero" unicode="0" horiz-adv-x="490" d="M475 330 C475 520 370 669 245 669 C120 669 15 520 15 330 C15 140 120 -9 245 -9 C370 -9 475 140 475 330 L475 330 Z M395 330 C395 143 374 74 335 30 C311 3 280 -8 245 -8 C210 -8 179 3 155 30 C116 74 95 143 95 330 C95 486 116 586 155 630 C179 657 210 668 245 668 C280 668 311 657 335 630 C374 586 395 486 395 330 L395 330 Z " />
<glyph glyph-name="one" unicode="1" horiz-adv-x="252" d="M237 0 L237 1 L171 1 L171 670 C120 628 15 604 15 604 L15 603 C44 610 98 623 98 613 L98 1 L30 1 L30 0 L237 0 Z " />
<glyph glyph-name="two" unicode="2" horiz-adv-x="422" d="M406 107 L405 107 C407 75 410 42 360 42 C286 42 262 100 154 100 C59 100 28 36 23 16 C56 161 135 217 192 261 C279 329 376 334 376 489 C376 562 332 665 197 665 C72 665 51 577 51 536 C51 516 65 490 87 490 C109 490 127 499 127 530 C127 556 92 564 92 591 C92 641 135 664 194 664 C295 664 295 533 295 499 C295 406 234 359 168 287 C108 223 44 139 15 -16 C13 -24 17 -23 17 -23 C24 -21 16 -14 21 5 C25 25 61 37 100 37 C188 37 231 -9 308 -9 C362 -9 415 20 406 107 L406 107 Z " />
<glyph glyph-name="three" unicode="3" horiz-adv-x="369" d="M354 194 C354 287 300 373 175 373 C163 373 145 370 133 365 C209 396 314 460 314 538 C314 631 234 669 138 669 C64 669 28 629 28 598 C28 578 38 556 65 556 C93 556 104 573 104 589 C104 604 96 609 96 623 C96 653 114 668 138 668 C196 668 235 645 235 547 C235 441 190 401 88 340 C81 338 87 330 91 337 C102 346 130 371 173 371 C203 371 275 337 275 184 C275 31 211 -8 138 -8 C103 -8 79 4 79 46 C79 60 86 65 86 79 C86 95 74 114 47 114 C19 114 10 90 10 71 C10 29 52 -9 138 -9 C234 -9 354 61 354 194 L354 194 Z " />
<glyph glyph-name="four" unicode="4" horiz-adv-x="431" d="M421 256 L421 257 L318 257 L318 455 L317 455 C307 421 284 386 245 381 L245 257 L13 257 L347 715 L347 715 C319 682 257 657 225 669 L74 368 C46 314 29 282 10 256 L245 256 L245 0 L318 0 L318 256 L421 256 Z " />
<glyph glyph-name="five" unicode="5" horiz-adv-x="356" d="M341 208 C341 314 294 408 181 408 C121 408 83 379 67 334 L67 656 C82 623 152 593 202 593 C258 593 306 622 306 658 C306 679 298 691 271 691 C233 691 221 633 150 633 C114 633 75 640 61 668 L61 667 C61 667 62 663 65 658 L65 332 C65 324 62 305 62 299 C62 292 64 291 67 291 C70 291 71 294 71 298 C71 309 64 316 67 331 C83 377 123 403 161 403 C228 403 262 364 262 198 C262 29 212 -12 139 -12 C103 -12 79 0 79 41 C79 55 86 61 86 75 C86 91 75 109 47 109 C20 109 10 87 10 67 C10 25 53 -13 139 -13 C234 -13 341 63 341 208 L341 208 Z " />
<glyph glyph-name="six" unicode="6" horiz-adv-x="413" d="M398 187 C398 290 322 375 207 375 C155 375 109 332 91 290 C96 467 141 668 239 668 C265 668 276 653 276 623 C276 608 269 603 269 589 C269 573 281 556 309 556 C335 556 346 578 346 598 C346 629 314 669 239 669 C102 669 15 472 15 275 C15 81 96 -9 208 -9 C313 -9 398 83 398 187 L398 187 Z M319 183 C319 81 307 36 277 11 C258 -3 230 -8 207 -8 C184 -8 156 -3 138 12 C107 36 91 77 91 179 L91 281 C91 301 140 374 207 374 C230 374 258 368 277 352 C307 328 319 272 319 183 L319 183 Z " />
<glyph glyph-name="seven" unicode="7" horiz-adv-x="361" d="M351 660 L21 660 L21 517 L22 517 L22 596 L321 596 L15 -22 L101 -6 L291 509 C314 573 333 625 351 660 L351 660 Z " />
<glyph glyph-name="eight" unicode="8" horiz-adv-x="419" d="M404 166 C404 248 344 310 252 373 C320 401 374 460 374 528 C374 623 288 669 207 669 C107 669 53 590 53 521 C53 445 101 393 153 352 C71 318 15 245 15 165 C15 47 111 -9 207 -9 C318 -9 404 68 404 166 L404 166 Z M318 524 C318 428 288 400 251 374 C181 422 103 482 103 570 C103 623 141 668 207 668 C267 668 318 632 318 524 L318 524 Z M348 124 C348 18 258 -8 207 -8 C136 -8 78 32 78 170 C78 284 111 319 154 351 C237 285 348 229 348 124 L348 124 Z " />
<glyph glyph-name="nine" unicode="9" horiz-adv-x="419" d="M404 382 C404 585 318 669 206 669 C95 669 15 578 15 469 C15 359 95 269 206 269 C248 269 300 293 321 332 C314 161 271 -8 168 -8 C139 -8 123 7 123 41 C123 56 131 61 131 76 C131 92 119 110 91 110 C65 110 54 87 54 67 C54 35 89 -9 168 -9 C318 -9 404 186 404 382 L404 382 Z M321 339 C313 310 263 270 205 270 C180 270 155 277 134 292 C101 318 94 375 94 469 C94 576 101 619 134 645 C155 660 180 668 206 668 C231 668 259 660 279 644 C311 619 326 578 326 471 C326 434 325 348 321 339 L321 339 Z " />
<glyph glyph-name="colon" unicode="&#x3a;" horiz-adv-x="126" d="M104 316 C104 341 86 360 63 360 C40 360 22 340 22 316 C22 291 40 272 63 272 C86 272 104 292 104 316 L104 316 Z M104 31 C104 56 86 76 63 76 C40 76 22 56 22 31 C22 7 40 -12 63 -12 C86 -12 104 7 104 32 L104 31 Z " />
<glyph glyph-name="semicolon" unicode="&#x3b;" horiz-adv-x="132" d="M108 316 C108 341 90 360 67 360 C44 360 26 340 26 316 C26 291 44 272 67 272 C90 272 108 292 108 316 L108 316 Z M110 20 C110 54 95 75 67 75 C44 75 26 56 26 32 C26 15 34 3 44 -5 C62 -18 73 -34 73 -50 C73 -68 63 -86 45 -101 C37 -107 27 -114 18 -116 L18 -117 C67 -102 110 -21 110 20 L110 20 Z " />
<glyph glyph-name="less" unicode="&#x3c;" horiz-adv-x="258" d="M236 100 L24 248 L236 396 L235 397 L22 248 L235 99 L236 100 Z " />
<glyph glyph-name="equal" unicode="&#x3d;" horiz-adv-x="342" d="M320 310 L320 311 L22 311 L22 310 L320 310 Z M320 170 L320 171 L22 171 L22 170 L320 170 Z " />
<glyph glyph-name="greater" unicode="&#x3e;" horiz-adv-x="258" d="M236 248 L23 397 L22 396 L234 248 L22 100 L23 99 L236 248 Z " />
<glyph glyph-name="question" unicode="&#x3f;" horiz-adv-x="354" d="M332 478 C332 593 248 672 133 672 C49 672 10 623 10 574 C10 544 28 530 53 530 C79 530 95 546 95 567 C95 592 84 589 84 619 C84 655 88 671 134 671 C157 671 183 666 203 649 C235 622 251 573 251 478 C251 347 244 325 226 310 C213 300 187 293 168 293 C147 293 114 301 96 329 C93 326 99 325 100 322 L100 154 L101 154 L101 321 C118 300 147 292 169 292 C256 292 332 365 332 478 L332 478 Z M140 31 C140 56 122 76 99 76 C76 76 58 56 58 31 C58 7 77 -12 100 -12 C123 -12 141 7 141 32 L140 31 Z " />
<glyph glyph-name="at" unicode="&#x40;" horiz-adv-x="698" d="M698 376 C698 567 559 676 387 676 C198 676 44 521 44 330 C44 139 198 -16 387 -16 C469 -16 545 14 604 62 L603 63 C545 15 469 -15 387 -15 C200 -15 45 141 45 330 C45 521 200 675 387 675 C558 675 696 567 696 376 C696 240 583 169 500 169 C448 169 457 222 493 340 L539 489 L485 489 L473 454 C468 482 431 496 404 496 C290 496 195 380 195 283 C195 224 222 165 294 165 C330 165 389 194 416 260 C403 210 411 165 488 165 C579 165 698 234 698 376 L698 376 Z M471 447 L415 263 C404 226 355 167 295 167 C262 167 242 194 242 228 C242 291 278 420 330 464 C354 485 375 495 404 495 C439 495 479 472 471 447 L471 447 Z " />
<glyph glyph-name="A" unicode="A" horiz-adv-x="677" d="M672 0 L672 1 L587 1 L330 679 L329 679 L83 1 L5 1 L5 0 L180 0 L180 1 L84 1 L167 229 L396 229 L478 1 L382 1 L382 0 L672 0 Z M395 230 L167 230 L281 544 L395 230 Z " />
<glyph glyph-name="B" unicode="B" horiz-adv-x="547" d="M537 176 C537 285 425 352 293 352 C383 352 488 401 488 506 C488 605 385 660 270 660 L5 660 L5 659 L93 659 L93 1 L5 1 L5 0 L317 0 C464 0 537 85 537 176 L537 176 Z M390 506 C390 390 373 352 278 352 L193 352 L193 659 L256 659 C351 659 390 614 390 506 L390 506 Z M437 176 C437 46 379 1 291 1 L193 1 L193 351 L278 351 C373 351 437 320 437 176 L437 176 Z " />
<glyph glyph-name="C" unicode="C" horiz-adv-x="538" d="M516 -15 L516 210 L515 210 C515 96 431 -14 311 -14 C261 -14 223 -4 191 24 C139 69 112 165 112 330 C112 495 139 591 191 636 C223 664 261 674 311 674 C421 674 503 572 503 482 L504 482 L504 672 L503 672 C501 662 481 650 454 650 C411 650 370 675 311 675 C141 675 5 522 5 330 C5 138 141 -15 311 -15 C390 -15 418 15 470 15 C497 15 513 -4 515 -15 L516 -15 Z " />
<glyph glyph-name="D" unicode="D" horiz-adv-x="635" d="M613 330 C613 520 475 660 306 660 L5 660 L5 659 L93 659 L93 1 L5 1 L5 0 L306 0 C475 0 613 140 613 330 L613 330 Z M506 330 C506 150 479 82 426 38 C395 12 348 1 306 1 L193 1 L193 659 L306 659 C348 659 395 648 426 622 C479 578 506 480 506 330 L506 330 Z " />
<glyph glyph-name="E" unicode="E" horiz-adv-x="540" d="M535 0 L535 187 L534 187 C534 91 478 1 323 1 L193 1 L193 339 L245 339 C321 339 364 295 364 232 L365 232 L365 448 L364 448 C364 384 321 340 245 340 L193 340 L193 659 L320 659 C437 659 484 579 484 492 L485 492 L485 660 L5 660 L5 659 L93 659 L93 1 L5 1 L5 0 L535 0 Z " />
<glyph glyph-name="F" unicode="F" horiz-adv-x="484" d="M482 492 L482 660 L2 660 L2 659 L90 659 L90 1 L2 1 L2 0 L278 0 L278 1 L190 1 L190 339 L242 339 C318 339 361 295 361 232 L362 232 L362 448 L361 448 C361 384 318 340 242 340 L190 340 L190 659 L317 659 C434 659 481 579 481 492 L482 492 Z " />
<glyph glyph-name="G" unicode="G" horiz-adv-x="633" d="M628 254 L628 255 L352 255 L352 254 L440 254 L440 80 C440 27 391 -14 305 -14 C263 -14 218 -4 186 23 C133 68 122 154 122 330 C122 495 149 591 201 636 C233 664 271 674 321 674 C460 674 502 571 502 486 L503 486 L503 675 L502 675 C499 665 494 650 459 650 C417 650 391 675 321 675 C151 675 15 522 15 330 C15 151 123 -15 305 -15 C412 -15 446 37 489 37 C522 37 538 6 539 -8 L540 -8 L540 254 L628 254 Z " />
<glyph glyph-name="H" unicode="H" horiz-adv-x="704" d="M682 0 L682 1 L594 1 L594 659 L682 659 L682 660 L414 660 L414 659 L494 659 L494 345 L210 345 L210 659 L290 659 L290 660 L22 660 L22 659 L110 659 L110 1 L22 1 L22 0 L290 0 L290 1 L210 1 L210 344 L494 344 L494 1 L414 1 L414 0 L682 0 Z " />
<glyph glyph-name="I" unicode="I" horiz-adv-x="320" d="M298 0 L298 1 L210 1 L210 659 L298 659 L298 660 L22 660 L22 659 L110 659 L110 1 L22 1 L22 0 L298 0 Z " />
<glyph glyph-name="J" unicode="J" horiz-adv-x="436" d="M414 659 L414 660 L138 660 L138 659 L226 659 L226 63 C226 12 189 -14 148 -14 C118 -14 88 7 88 38 C88 73 129 59 129 112 C129 145 101 170 69 170 C40 170 5 144 5 100 C5 46 62 -15 148 -15 C264 -15 326 47 326 155 L326 659 L414 659 Z " />
<glyph glyph-name="K" unicode="K" horiz-adv-x="682" d="M677 0 L677 1 L589 1 L272 399 L498 659 L582 659 L582 660 L401 660 L401 659 L496 659 L210 329 L210 659 L298 659 L298 660 L22 660 L22 659 L110 659 L110 1 L22 1 L22 0 L298 0 L298 1 L210 1 L210 327 L462 1 L374 1 L374 0 L677 0 Z " />
<glyph glyph-name="L" unicode="L" horiz-adv-x="530" d="M525 0 L525 196 L524 196 C524 101 478 1 335 1 L210 1 L210 659 L298 659 L298 660 L22 660 L22 659 L110 659 L110 1 L22 1 L22 0 L525 0 Z " />
<glyph glyph-name="M" unicode="M" horiz-adv-x="794" d="M772 0 L772 1 L684 1 L684 659 L772 659 L772 660 L586 660 L412 140 L215 660 L22 660 L22 659 L110 659 L110 1 L22 1 L22 0 L204 0 L204 1 L111 1 L111 659 L359 -20 L360 -20 L584 650 L584 1 L496 1 L496 0 L772 0 Z " />
<glyph glyph-name="N" unicode="N" horiz-adv-x="670" d="M648 659 L648 660 L471 660 L471 659 L559 659 L559 164 L227 660 L22 660 L22 659 L110 659 L110 1 L22 1 L22 0 L199 0 L199 1 L111 1 L111 659 L559 -20 L560 -20 L560 659 L648 659 Z " />
<glyph glyph-name="O" unicode="O" horiz-adv-x="642" d="M627 330 C627 522 491 675 321 675 C151 675 15 522 15 330 C15 138 151 -15 321 -15 C491 -15 627 138 627 330 L627 330 Z M520 330 C520 165 493 69 441 24 C409 -4 371 -14 321 -14 C271 -14 233 -4 201 24 C149 69 122 165 122 330 C122 495 149 591 201 636 C233 664 271 674 321 674 C371 674 409 664 441 636 C493 591 520 495 520 330 L520 330 Z " />
<glyph glyph-name="P" unicode="P" horiz-adv-x="575" d="M560 451 C560 565 467 660 298 660 L22 660 L22 659 L110 659 L110 1 L22 1 L22 0 L298 0 L298 1 L210 1 L210 266 C238 258 269 255 310 255 C457 255 560 338 560 451 L560 451 Z M460 451 C460 317 395 256 307 256 C272 256 238 259 210 267 L210 659 L298 659 C386 659 460 586 460 451 L460 451 Z " />
<glyph glyph-name="Q" unicode="Q" horiz-adv-x="642" d="M627 330 C627 522 491 675 321 675 C151 675 15 522 15 330 C15 138 151 -15 321 -15 C349 -15 383 -12 416 2 C398 -12 330 -44 270 -66 C250 -66 233 -75 232 -79 C232 -81 233 -81 235 -81 C244 -79 270 -67 270 -67 C407 -67 304 -233 651 -233 L651 -232 C455 -232 546 -49 273 -66 C349 -37 406 -9 463 24 C519 54 627 154 627 330 L627 330 Z M520 330 C520 165 493 69 441 24 C409 -4 371 -14 321 -14 C271 -14 233 -4 201 24 C149 69 122 165 122 330 C122 495 149 591 201 636 C233 664 271 674 321 674 C371 674 409 664 441 636 C493 591 520 495 520 330 L520 330 Z " />
<glyph glyph-name="R" unicode="R" horiz-adv-x="684" d="M679 18 L679 18 C661 1 643 -10 618 -10 C582 -10 561 32 561 79 L561 163 C561 272 482 344 319 344 C436 344 530 408 530 495 C530 586 447 660 307 660 L22 660 L22 659 L110 659 L110 1 L22 1 L22 0 L324 0 L324 1 L210 1 L210 343 L305 343 C391 343 456 307 456 225 L456 165 C456 32 514 -16 591 -16 C632 -16 658 -5 679 18 L679 18 Z M430 494 C430 376 397 344 305 344 L210 344 L210 659 L283 659 C371 659 430 610 430 494 L430 494 Z " />
<glyph glyph-name="S" unicode="S" horiz-adv-x="479" d="M457 187 C457 301 381 344 259 387 C141 429 83 482 83 549 C83 612 143 674 215 674 C293 674 379 608 379 504 L380 504 L380 675 L379 675 C377 664 365 651 338 651 C298 651 264 675 215 675 C120 675 39 586 39 485 C39 375 108 328 197 296 C341 244 405 207 405 118 C405 57 340 -14 231 -14 C108 -14 23 116 23 190 L22 190 L22 -15 L23 -15 C27 3 49 24 76 24 C121 24 164 -15 231 -15 C379 -15 457 106 457 187 L457 187 Z " />
<glyph glyph-name="T" unicode="T" horiz-adv-x="568" d="M553 464 L553 660 L15 660 L15 464 L16 464 C16 572 68 659 204 659 L234 659 L234 1 L146 1 L146 0 L422 0 L422 1 L334 1 L334 659 L364 659 C500 659 552 572 552 464 L553 464 Z " />
<glyph glyph-name="U" unicode="U" horiz-adv-x="690" d="M668 659 L668 660 L491 660 L491 659 L579 659 L579 195 C579 74 513 -9 377 -9 C267 -9 210 60 210 193 L210 659 L298 659 L298 660 L22 660 L22 659 L110 659 L110 193 C110 54 211 -15 353 -15 C511 -15 580 66 580 195 L580 659 L668 659 Z " />
<glyph glyph-name="V" unicode="V" horiz-adv-x="720" d="M715 659 L715 660 L529 660 L529 659 L626 659 L435 116 L203 659 L308 659 L308 660 L5 660 L5 659 L93 659 L387 -20 L388 -20 L627 659 L715 659 Z " />
<glyph glyph-name="W" unicode="W" horiz-adv-x="1040" d="M1035 659 L1035 660 L849 660 L849 659 L946 659 L762 124 L569 659 L675 659 L675 660 L386 660 L386 659 L462 659 L529 480 L409 128 L203 659 L295 659 L295 660 L5 660 L5 659 L93 659 L359 -20 L360 -20 L529 479 L713 -20 L714 -20 L947 659 L1035 659 Z " />
<glyph glyph-name="X" unicode="X" horiz-adv-x="703" d="M681 0 L681 1 L593 1 L372 392 L534 659 L623 659 L623 660 L433 660 L433 659 L533 659 L371 393 L223 659 L323 659 L323 660 L22 660 L22 659 L110 659 L313 301 L130 1 L43 1 L43 0 L231 0 L231 1 L131 1 L314 300 L480 1 L380 1 L380 0 L681 0 Z " />
<glyph glyph-name="Y" unicode="Y" horiz-adv-x="678" d="M656 659 L656 660 L468 660 L468 659 L567 659 L400 310 L223 659 L328 659 L328 660 L22 660 L22 659 L110 659 L301 288 L301 1 L213 1 L213 0 L489 0 L489 1 L401 1 L401 309 L568 659 L656 659 Z " />
<glyph glyph-name="Z" unicode="Z" horiz-adv-x="515" d="M510 0 L510 212 L509 212 C509 105 441 1 317 1 L123 1 L510 660 L46 660 L46 458 L47 458 C47 566 110 659 234 659 L398 659 L10 0 L510 0 Z " />
<glyph glyph-name="bracketleft" unicode="&#x5b;" horiz-adv-x="190" d="M185 -230 L185 -229 L93 -229 L93 681 L185 681 L185 682 L22 682 L22 -230 L185 -230 Z " />
<glyph glyph-name="backslash" unicode="&#x5c;" horiz-adv-x="310" d="M305 -22 L7 682 L5 682 L303 -22 L305 -22 Z " />
<glyph glyph-name="bracketright" unicode="&#x5d;" horiz-adv-x="190" d="M168 -230 L168 682 L5 682 L5 681 L97 681 L97 -229 L5 -229 L5 -230 L168 -230 Z " />
<glyph glyph-name="asciicircum" unicode="&#x5e;" horiz-adv-x="285" d="M263 330 L143 638 L142 638 L22 330 L23 330 L143 637 L262 330 L263 330 Z " />
<glyph glyph-name="underscore" unicode="&#x5f;" horiz-adv-x="450" d="M450 -51 L450 -50 L0 -50 L0 -51 L450 -51 Z " />
<glyph glyph-name="grave" unicode="&#x60;" horiz-adv-x="236" d="M214 469 L214 470 C136 485 109 525 94 560 C80 593 77 622 50 622 C33 622 22 610 22 595 C22 562 80 495 214 469 L214 469 Z " />
<glyph glyph-name="a" unicode="a" horiz-adv-x="388" d="M375 32 L374 32 C369 6 359 1 342 1 C328 1 318 15 318 36 L318 236 C318 353 267 405 172 405 C99 405 63 365 63 334 C63 314 73 294 99 294 C127 294 138 310 138 326 C138 340 133 344 133 359 C133 389 149 404 172 404 C206 404 245 389 245 306 L245 246 C245 218 186 212 135 207 C98 204 16 192 16 95 C16 26 78 -9 139 -9 C197 -9 233 10 245 50 C251 16 277 -9 317 -9 C352 -9 370 2 375 32 L375 32 Z M244 66 C244 26 212 -5 156 -5 C127 -5 91 19 91 95 C91 180 124 203 152 207 C179 211 240 217 245 240 L244 66 Z " />
<glyph glyph-name="b" unicode="b" horiz-adv-x="447" d="M432 196 C432 299 346 405 239 405 C202 405 173 390 152 367 L152 682 L22 682 L22 681 L79 681 L79 1 L22 1 L22 0 L152 0 L152 29 C173 6 202 -9 239 -9 C346 -9 432 93 432 196 L432 196 Z M358 196 C358 101 343 41 311 14 C292 -2 263 -8 239 -8 C203 -8 172 7 152 31 L152 365 C172 389 203 404 239 404 C263 404 292 399 311 383 C343 356 358 291 358 196 L358 196 Z " />
<glyph glyph-name="c" unicode="c" horiz-adv-x="363" d="M341 53 L340 54 C308 17 263 -8 209 -8 C180 -8 156 -2 137 14 C106 41 90 100 90 198 C90 296 106 355 137 382 C156 398 180 404 209 404 C255 404 266 388 266 360 C266 339 256 340 256 316 C256 298 270 284 292 284 C314 284 330 296 330 323 C330 365 289 405 209 405 C101 405 15 312 15 198 C15 84 101 -9 209 -9 C263 -9 308 15 341 53 L341 53 Z " />
<glyph glyph-name="d" unicode="d" horiz-adv-x="449" d="M427 0 L427 1 L370 1 L370 682 L236 682 L236 681 L297 681 L297 368 C275 391 247 405 210 405 C103 405 16 299 16 196 C16 92 103 -9 210 -9 C247 -9 275 5 297 28 L297 0 L427 0 Z M297 30 C275 6 245 -8 210 -8 C190 -8 157 -2 138 14 C107 41 91 101 91 196 C91 291 107 356 138 383 C157 399 186 404 210 404 C245 404 275 390 297 366 L297 30 Z " />
<glyph glyph-name="e" unicode="e" horiz-adv-x="387" d="M365 221 C365 293 318 405 202 405 C95 405 15 312 15 198 C15 84 95 -9 202 -9 C267 -9 319 25 353 79 L352 79 C319 28 268 -8 202 -8 C178 -8 152 -2 133 14 C102 41 93 86 93 198 L93 221 L365 221 Z M291 222 L93 222 C93 303 105 359 133 383 C153 400 178 404 202 404 C223 404 242 399 258 383 C281 358 289 303 291 222 L291 222 Z " />
<glyph glyph-name="f" unicode="f" horiz-adv-x="301" d="M306 624 C306 664 262 690 220 690 C128 690 75 621 75 417 L75 396 L5 396 L5 395 L75 395 L75 1 L18 1 L18 0 L205 0 L205 1 L148 1 L148 395 L231 395 L231 396 L148 396 L148 476 C148 513 141 543 141 563 C141 652 179 688 205 688 C225 688 238 675 238 657 C238 633 227 633 227 613 C227 595 239 581 266 581 C289 581 306 602 306 624 L306 624 Z " />
<glyph glyph-name="g" unicode="g" horiz-adv-x="469" d="M458 363 C458 391 434 405 412 405 C376 405 354 378 338 347 C310 381 265 405 216 405 C132 405 63 338 63 255 C63 221 76 188 97 163 C54 135 30 104 30 49 C30 1 61 -29 111 -42 C57 -56 11 -114 11 -165 C11 -235 96 -294 222 -294 C321 -294 446 -232 446 -117 C446 -14 383 22 260 22 L153 22 C91 22 59 45 59 98 C59 134 79 150 97 162 C125 129 169 106 216 106 C300 106 369 173 369 255 C369 290 358 320 339 346 C358 388 388 392 392 392 C401 392 408 387 408 377 C408 368 401 367 401 354 C401 344 411 332 429 332 C445 332 458 348 458 363 L458 363 Z M300 256 C300 176 290 145 268 126 C254 114 237 107 216 107 C195 107 178 114 165 126 C142 145 133 176 133 256 C133 327 142 368 165 387 C178 399 195 404 216 404 C237 404 254 399 268 387 C291 368 300 327 300 256 L300 256 Z M405 -157 C405 -245 312 -293 222 -293 C127 -293 70 -253 70 -154 C70 -97 90 -57 113 -43 C170 -51 245 -48 304 -52 C361 -56 405 -95 405 -157 L405 -157 Z " />
<glyph glyph-name="h" unicode="h" horiz-adv-x="484" d="M468 0 L468 1 L410 1 L410 250 C410 349 352 405 257 405 C216 405 169 385 152 332 L152 682 L22 682 L22 681 L79 681 L79 1 L22 1 L22 0 L209 0 L209 1 L152 1 L152 328 C163 366 197 404 257 404 C289 404 337 375 337 309 L337 1 L280 1 L280 0 L468 0 Z " />
<glyph glyph-name="i" unicode="i" horiz-adv-x="233" d="M164 600 C164 627 142 648 115 648 C88 648 67 627 67 600 C67 573 88 550 115 550 C142 550 164 573 164 600 L164 600 Z M211 0 L211 1 L153 1 L153 396 L22 396 L22 395 L80 395 L80 1 L22 1 L22 0 L211 0 Z " />
<glyph glyph-name="j" unicode="j" horiz-adv-x="271" d="M249 600 C249 627 227 648 200 648 C173 648 152 627 152 600 C152 573 173 550 200 550 C227 550 249 573 249 600 L249 600 Z M237 -24 L237 396 L107 396 L107 395 L164 395 L164 -182 C164 -265 140 -293 112 -293 C97 -293 84 -286 84 -268 C84 -244 96 -243 96 -222 C96 -205 83 -191 57 -191 C33 -191 16 -210 16 -234 C16 -273 59 -295 101 -295 C197 -295 237 -226 237 -24 L237 -24 Z " />
<glyph glyph-name="k" unicode="k" horiz-adv-x="493" d="M476 0 L476 1 L415 1 L202 259 L349 395 L410 395 L410 396 L269 396 L269 395 L347 395 L152 214 L152 682 L22 682 L22 681 L79 681 L79 1 L22 1 L22 0 L210 0 L210 1 L152 1 L152 213 L323 1 L266 1 L266 0 L476 0 Z " />
<glyph glyph-name="l" unicode="l" horiz-adv-x="233" d="M211 0 L211 1 L153 1 L153 682 L22 682 L22 681 L80 681 L80 1 L22 1 L22 0 L211 0 Z " />
<glyph glyph-name="m" unicode="m" horiz-adv-x="749" d="M727 0 L727 1 L669 1 L669 249 C669 355 611 405 517 405 C457 405 416 367 410 304 C400 372 346 405 259 405 C199 405 158 364 153 331 L153 396 L22 396 L22 395 L80 395 L80 1 L22 1 L22 0 L211 0 L211 1 L153 1 L153 321 C153 360 199 404 259 404 C291 404 338 372 338 306 L338 1 L280 1 L280 0 L469 0 L469 1 L411 1 L411 289 C411 364 457 404 517 404 C549 404 596 372 596 306 L596 1 L538 1 L538 0 L727 0 Z " />
<glyph glyph-name="n" unicode="n" horiz-adv-x="491" d="M469 0 L469 1 L411 1 L411 249 C411 355 353 405 259 405 C199 405 158 364 153 331 L153 396 L22 396 L22 395 L80 395 L80 1 L22 1 L22 0 L211 0 L211 1 L153 1 L153 321 C153 360 199 404 259 404 C291 404 338 372 338 306 L338 1 L280 1 L280 0 L469 0 Z " />
<glyph glyph-name="o" unicode="o" horiz-adv-x="418" d="M403 198 C403 312 317 405 209 405 C101 405 15 312 15 198 C15 84 101 -9 209 -9 C317 -9 403 84 403 198 L403 198 Z M328 198 C328 100 312 41 281 14 C262 -2 239 -8 209 -8 C180 -8 156 -2 137 14 C106 41 90 100 90 198 C90 296 106 355 137 382 C156 398 180 404 209 404 C239 404 262 398 281 382 C312 355 328 296 328 198 L328 198 Z " />
<glyph glyph-name="p" unicode="p" horiz-adv-x="449" d="M432 198 C432 298 346 405 239 405 C202 405 174 391 152 367 L152 396 L22 396 L22 395 L79 395 L79 -285 L22 -285 L22 -286 L210 -286 L210 -285 L152 -285 L152 29 C174 5 202 -9 239 -9 C346 -9 432 92 432 198 L432 198 Z M358 198 C358 100 342 40 311 13 C292 -3 263 -8 239 -8 C203 -8 173 7 152 31 L152 365 C173 389 203 404 239 404 C263 404 292 399 311 383 C342 356 358 290 358 198 L358 198 Z " />
<glyph glyph-name="q" unicode="q" horiz-adv-x="449" d="M427 -286 L427 -285 L370 -285 L370 395 L427 395 L427 396 L297 396 L297 367 C275 391 247 405 210 405 C103 405 16 299 16 195 C16 92 103 -9 210 -9 C247 -9 275 5 297 29 L297 -285 L239 -285 L239 -286 L427 -286 Z M297 31 C276 7 246 -8 210 -8 C186 -8 157 -3 138 13 C107 40 91 100 91 195 C91 290 107 356 138 383 C157 399 186 404 210 404 C246 404 276 389 297 365 L297 31 Z " />
<glyph glyph-name="r" unicode="r" horiz-adv-x="320" d="M303 348 C303 383 282 405 239 405 C196 405 161 373 152 322 L152 396 L22 396 L22 395 L79 395 L79 1 L22 1 L22 0 L210 0 L210 1 L152 1 L152 302 C152 362 190 394 213 394 C227 394 236 389 236 375 C236 361 226 354 226 336 C226 321 235 303 264 303 C295 303 303 326 303 348 L303 348 Z " />
<glyph glyph-name="s" unicode="s" horiz-adv-x="312" d="M296 122 C296 181 249 220 178 242 C111 263 74 288 74 337 C74 379 102 404 148 404 C194 404 246 369 246 303 L247 303 L247 409 C247 409 246 409 246 409 C246 400 238 392 225 392 C185 392 178 405 148 405 C91 405 40 359 40 286 C40 224 84 196 148 175 C213 153 254 129 254 77 C254 22 216 -8 165 -8 C92 -8 25 61 28 129 L27 129 L22 -1 L23 -1 C24 6 38 21 55 21 C90 21 114 -9 165 -9 C254 -9 296 46 296 122 L296 122 Z " />
<glyph glyph-name="t" unicode="t" horiz-adv-x="285" d="M263 66 L262 66 C262 22 246 -2 205 -2 C180 -2 165 21 165 39 L165 395 L248 395 L248 396 L165 396 L165 552 L165 552 C156 526 129 504 92 499 L92 396 L22 396 L22 395 L92 395 L92 83 C92 22 119 -9 179 -9 C255 -9 263 28 263 66 L263 66 Z " />
<glyph glyph-name="u" unicode="u" horiz-adv-x="491" d="M469 0 L469 1 L411 1 L411 396 L280 396 L280 395 L338 395 L338 75 C338 36 292 -8 232 -8 C200 -8 153 24 153 90 L153 396 L22 396 L22 395 L80 395 L80 147 C80 41 138 -9 232 -9 C292 -9 333 32 338 65 L338 0 L469 0 Z " />
<glyph glyph-name="v" unicode="v" horiz-adv-x="464" d="M453 395 L453 396 L336 396 L336 395 L396 395 L277 75 L138 395 L193 395 L193 396 L11 396 L11 395 L60 395 L245 -13 L246 -13 L397 395 L453 395 Z " />
<glyph glyph-name="w" unicode="w" horiz-adv-x="701" d="M690 395 L690 396 L573 396 L573 395 L633 395 L524 84 L385 395 L443 395 L443 396 L268 396 L268 395 L312 395 L351 303 L273 83 L135 395 L187 395 L187 396 L11 396 L11 395 L62 395 L239 -14 L240 -14 L352 302 L490 -14 L491 -14 L634 395 L690 395 Z " />
<glyph glyph-name="x" unicode="x" horiz-adv-x="475" d="M459 0 L459 1 L409 1 L255 235 L371 395 L430 395 L430 396 L294 396 L294 395 L370 395 L254 236 L151 395 L205 395 L205 396 L16 396 L16 395 L68 395 L210 175 L84 1 L23 1 L23 0 L159 0 L159 1 L85 1 L211 174 L325 1 L270 1 L270 0 L459 0 Z " />
<glyph glyph-name="y" unicode="y" horiz-adv-x="464" d="M447 395 L447 396 L330 396 L330 395 L390 395 L271 74 L131 395 L187 395 L187 396 L5 396 L5 395 L53 395 L239 -12 L173 -223 C157 -272 137 -286 123 -286 C112 -286 107 -283 104 -271 C99 -249 114 -248 114 -227 C114 -209 101 -195 76 -195 C53 -195 34 -216 34 -245 C34 -278 63 -296 100 -296 C137 -296 157 -277 175 -221 L240 -13 L391 395 L447 395 Z " />
<glyph glyph-name="z" unicode="z" horiz-adv-x="372" d="M350 0 L350 128 L349 128 C349 56 308 1 211 1 L94 1 L348 396 L48 396 L48 281 L49 281 C49 363 85 395 175 395 L270 395 L16 0 L350 0 Z " />
<glyph glyph-name="braceleft" unicode="&#x7b;" horiz-adv-x="202" d="M197 -230 L197 -229 L184 -229 C119 -229 80 -182 80 -73 C80 -6 121 78 121 149 C121 182 97 224 60 227 C97 230 121 272 121 305 C121 376 80 460 80 527 C80 636 120 681 184 681 L197 681 L197 682 L184 682 C73 682 22 602 22 488 C22 392 84 309 84 256 C84 239 70 228 54 228 C44 228 42 230 35 230 C33 230 27 230 27 227 C27 224 33 224 35 224 C42 224 44 226 54 226 C70 226 84 215 84 198 C84 145 22 62 22 -34 C22 -148 73 -230 184 -230 L197 -230 Z " />
<glyph glyph-name="bar" unicode="&#x7c;" horiz-adv-x="81" d="M41 -22 L41 682 L40 682 L40 -22 L41 -22 Z " />
<glyph glyph-name="braceright" unicode="&#x7d;" horiz-adv-x="202" d="M197 -34 C197 62 135 145 135 198 C135 215 149 226 165 226 C175 226 177 224 184 224 C186 224 192 224 192 227 C192 230 186 230 184 230 C177 230 175 228 165 228 C149 228 135 239 135 256 C135 309 197 392 197 488 C197 602 146 682 35 682 L22 682 L22 681 L35 681 C100 681 139 636 139 527 C139 460 98 376 98 305 C98 272 122 230 159 227 C122 224 98 182 98 149 C98 78 139 -6 139 -73 C139 -182 99 -229 35 -229 L22 -229 L22 -230 L35 -230 C146 -230 197 -148 197 -34 L197 -34 Z " />
<glyph glyph-name="asciitilde" unicode="&#x7e;" horiz-adv-x="370" d="M348 248 L347 250 C324 236 293 219 266 219 C210 219 163 278 104 278 C78 278 48 263 22 247 L23 245 C46 259 77 276 104 276 C162 276 210 217 266 217 C293 217 322 232 348 248 L348 248 Z " />
<glyph glyph-name="nbspace" unicode="&#xa0;" horiz-adv-x="275" d="" />
<glyph glyph-name="exclamdown" unicode="&#xa1;" horiz-adv-x="140" d="M111 365 C111 389 93 408 70 408 C47 408 29 389 29 364 C29 340 47 320 70 320 C93 320 111 340 111 365 L111 365 Z M118 -206 C118 -125 70 16 70 242 L70 242 C70 16 22 -125 22 -206 C22 -256 40 -276 70 -276 C100 -276 118 -256 118 -206 L118 -206 Z " />
<glyph glyph-name="cent" unicode="&#xa2;" horiz-adv-x="363" d="M341 53 L340 54 C304 12 256 -10 200 -8 L200 404 C235 405 266 402 266 360 C266 339 256 340 256 316 C256 298 270 284 292 284 C314 284 330 296 330 323 C330 388 251 407 200 405 L200 468 L199 468 L199 405 C96 399 15 308 15 198 C15 88 96 -3 199 -9 L199 -72 L200 -72 L200 -9 C256 -11 305 11 341 53 L341 53 Z M199 -8 C174 -6 154 0 137 14 C106 41 90 100 90 198 C90 296 106 355 137 382 C154 396 174 402 199 404 L199 -8 Z " />
<glyph glyph-name="sterling" unicode="&#xa3;" horiz-adv-x="536" d="M514 117 L512 117 C508 81 487 45 444 45 C346 45 289 78 233 93 C259 134 273 179 273 226 C273 264 270 299 266 329 L361 329 L361 329 L266 329 C256 398 241 446 241 498 C241 614 277 674 335 674 C376 674 391 657 391 628 C391 605 373 598 373 577 C373 557 384 543 412 543 C438 543 458 565 458 589 C458 626 405 676 342 676 C229 676 162 562 162 449 C162 410 174 369 189 329 L98 329 L98 329 L189 329 C213 264 244 200 244 153 C244 143 239 105 230 94 C203 102 168 109 132 109 C56 109 22 65 22 32 C22 -4 56 -16 76 -16 C110 -16 156 11 190 42 C231 19 302 -16 364 -16 C440 -16 509 55 514 117 L514 117 Z M189 43 C151 6 104 -15 77 -15 C52 -15 24 -1 24 30 C24 59 48 81 86 81 C116 81 154 62 189 43 L189 43 Z " />
<glyph glyph-name="currency" unicode="&#xa4;" horiz-adv-x="287" d="M265 183 L224 224 C268 268 268 339 224 383 L265 424 L264 425 L223 384 C179 428 108 428 63 384 L23 425 L22 424 L63 383 C19 339 19 268 63 224 L22 183 L23 182 L63 223 C108 179 179 179 223 223 L264 182 L265 183 Z M223 224 C179 180 108 180 64 224 C20 268 20 339 64 383 C108 427 179 427 223 383 C267 339 267 268 223 224 L223 224 Z " />
<glyph glyph-name="yen" unicode="&#xa5;" horiz-adv-x="622" d="M622 659 L622 660 L437 660 L437 659 L540 659 L376 307 L204 659 L308 659 L308 660 L28 660 L28 659 L118 659 L275 356 L124 356 L124 354 L275 354 L303 301 L303 233 L124 233 L124 232 L303 232 L303 1 L215 1 L215 0 L464 0 L464 1 L376 1 L376 232 L555 232 L555 233 L376 233 L376 304 L399 354 L555 354 L555 356 L400 356 L542 659 L622 659 Z " />
<glyph glyph-name="brokenbar" unicode="&#xa6;" horiz-adv-x="81" d="M41 352 L41 682 L40 682 L40 352 L41 352 Z M41 -22 L41 308 L40 308 L40 -22 L41 -22 Z " />
<glyph glyph-name="section" unicode="&#xa7;" horiz-adv-x="427" d="M405 186 C405 306 297 348 208 396 C145 430 92 467 92 536 C92 626 147 691 238 691 C289 691 322 667 322 629 C322 609 311 602 311 588 C311 567 328 553 350 553 C370 553 386 567 386 594 C386 643 315 692 238 692 C121 692 48 599 48 485 C48 433 72 394 105 362 C57 311 23 275 23 213 C23 102 114 57 198 14 C269 -24 335 -61 335 -138 C335 -230 284 -293 189 -293 C142 -293 86 -258 86 -218 C86 -197 97 -191 97 -177 C97 -155 80 -143 58 -143 C39 -143 22 -155 22 -182 C22 -232 112 -294 189 -294 C306 -294 380 -200 380 -87 C380 -35 357 4 323 36 C373 88 405 123 405 186 L405 186 Z M375 136 C375 105 346 63 322 36 C275 78 209 107 154 139 C98 171 53 207 53 261 C53 293 81 336 106 362 C134 336 171 315 207 295 C290 250 375 211 375 136 L375 136 Z " />
<glyph glyph-name="dieresis" unicode="&#xa8;" horiz-adv-x="293" d="M263 525 C263 547 247 565 226 565 C205 565 189 547 189 525 C189 504 205 486 226 486 C247 486 263 504 263 525 L263 525 Z M104 525 C104 547 87 565 67 565 C47 565 30 547 30 525 C30 504 47 486 67 486 C87 486 104 504 104 525 L104 525 Z " />
<glyph glyph-name="copyright" unicode="&#xa9;" horiz-adv-x="758" d="M736 330 C736 519 576 672 379 672 C182 672 22 519 22 330 C22 141 182 -12 379 -12 C576 -12 736 141 736 330 L736 330 Z M735 330 C735 142 575 -11 379 -11 C183 -11 23 142 23 330 C23 518 183 671 379 671 C575 671 735 518 735 330 L735 330 Z M507 124 L507 258 L506 258 C506 190 456 125 385 125 C355 125 332 131 313 147 C282 174 266 232 266 330 C266 429 282 486 313 513 C332 529 355 535 385 535 C451 535 499 474 499 421 L500 421 L500 534 L500 534 C498 528 486 521 470 521 C445 521 420 536 385 536 C283 536 202 445 202 330 C202 215 283 124 385 124 C432 124 449 142 480 142 C496 142 505 131 506 124 L507 124 Z " />
<glyph glyph-name="ordfeminine" unicode="&#xaa;" horiz-adv-x="259" d="M229 416 L228 416 C225 401 219 397 210 397 C203 397 198 404 198 416 L198 526 C198 590 170 619 117 619 C77 619 56 597 56 579 C56 568 62 556 77 556 C93 556 99 565 99 574 C99 581 94 586 94 593 C94 609 105 618 117 618 C135 618 155 609 155 564 L155 531 C155 517 125 514 96 511 C76 509 30 503 30 449 C30 411 65 391 99 391 C129 391 149 401 157 421 C162 404 175 391 196 391 C215 391 226 398 229 416 L229 416 Z M155 431 C155 410 138 393 108 393 C93 393 71 406 71 449 C71 539 133 498 155 525 L155 431 Z " />
<glyph glyph-name="guillemotleft" unicode="&#xab;" horiz-adv-x="318" d="M296 48 C296 111 250 174 222 200 C250 226 296 289 296 352 L295 352 C295 274 186 214 160 200 L160 200 C186 186 295 126 295 48 L296 48 Z M158 48 C158 111 112 174 84 200 C112 226 158 289 158 352 L157 352 C157 274 48 214 22 200 L22 200 C48 186 157 126 157 48 L158 48 Z " />
<glyph glyph-name="logicalnot" unicode="&#xac;" horiz-adv-x="345" d="M323 155 L323 318 L22 318 L22 317 L322 317 L322 155 L323 155 Z " />
<glyph glyph-name="registered" unicode="&#xae;" horiz-adv-x="758" d="M736 330 C736 519 576 672 379 672 C182 672 22 519 22 330 C22 141 182 -12 379 -12 C576 -12 736 141 736 330 L736 330 Z M735 330 C735 142 575 -11 379 -11 C183 -11 23 142 23 330 C23 518 183 671 379 671 C575 671 735 518 735 330 L735 330 Z M599 144 L598 144 C588 134 577 127 562 127 C541 127 528 152 528 180 L528 230 C528 295 481 338 384 338 C454 338 510 377 510 429 C510 483 460 527 376 527 L206 527 L206 526 L259 526 L259 134 L206 134 L206 133 L387 133 L387 134 L319 134 L319 337 L375 337 C427 337 466 316 466 267 L466 231 C466 152 500 123 546 123 C570 123 586 130 599 144 L599 144 Z M450 428 C450 357 430 338 375 338 L319 338 L319 526 L362 526 C415 526 450 497 450 428 L450 428 Z " />
<glyph glyph-name="macron" unicode="&#xaf;" horiz-adv-x="332" d="M310 547 L310 548 L22 548 L22 547 L310 547 Z " />
<glyph glyph-name="degree" unicode="&#xb0;" horiz-adv-x="286" d="M264 540 C264 608 209 662 143 662 C77 662 22 608 22 540 C22 472 77 418 143 418 C209 418 264 472 264 540 L264 540 Z M261 540 C261 474 208 420 143 420 C78 420 25 474 25 540 C25 606 78 660 143 660 C208 660 261 606 261 540 L261 540 Z " />
<glyph glyph-name="plusminus" unicode="&#xb1;" horiz-adv-x="364" d="M342 256 L342 257 L183 257 L183 413 L182 413 L182 257 L22 257 L22 256 L182 256 L182 100 L183 100 L183 256 L342 256 Z M331 61 L331 62 L33 62 L33 61 L331 61 Z " />
<glyph glyph-name="twosuperior" unicode="&#xb2;" horiz-adv-x="277" d="M246 356 L245 356 C246 338 248 321 220 321 C179 321 166 353 107 353 C55 353 38 317 35 306 C55 392 97 422 128 446 C176 483 229 495 229 567 C229 607 204 665 130 665 C61 665 50 614 50 592 C50 581 58 567 70 567 C82 567 92 572 92 589 C92 603 73 607 73 622 C73 650 96 664 129 664 C184 664 184 591 184 572 C184 521 151 494 114 455 C81 420 46 374 30 289 C29 284 31 285 31 285 C35 286 32 289 34 300 C36 311 56 318 77 318 C125 318 149 292 191 292 C221 292 251 308 246 356 L246 356 Z " />
<glyph glyph-name="threesuperior" unicode="&#xb3;" horiz-adv-x="251" d="M221 404 C221 455 190 503 121 503 C118 503 110 502 106 501 C146 519 199 553 199 592 C199 644 154 665 101 665 C60 665 39 643 39 625 C39 614 45 601 60 601 C76 601 83 611 83 620 C83 628 79 632 79 639 C79 655 89 664 101 664 C132 664 153 650 153 597 C153 540 134 518 74 485 C68 483 73 476 76 481 C95 498 102 500 120 500 C136 500 175 481 175 398 C175 315 141 293 101 293 C82 293 69 301 69 323 C69 330 73 335 73 342 C73 351 67 362 51 362 C35 362 30 348 30 337 C30 313 54 292 101 292 C154 292 221 331 221 404 L221 404 Z " />
<glyph glyph-name="acute" unicode="&#xb4;" horiz-adv-x="236" d="M214 595 C214 610 203 622 186 622 C159 622 155 593 141 560 C126 525 100 485 22 470 L22 469 C156 495 214 562 214 595 L214 595 Z " />
<glyph glyph-name="paragraph" unicode="&#xb6;" horiz-adv-x="575" d="M564 0 L564 1 L476 1 L476 659 L564 659 L564 660 L284 660 C115 660 22 565 22 451 C22 338 125 255 272 255 C313 255 344 258 372 266 L372 1 L284 1 L284 0 L564 0 Z M475 1 L445 1 L445 659 L475 659 L475 1 Z M372 267 C344 259 310 256 275 256 C187 256 122 317 122 451 C122 586 196 659 284 659 L372 659 L372 267 Z " />
<glyph glyph-name="periodcentered" unicode="&#xb7;" horiz-adv-x="126" d="M104 301 C104 326 86 345 63 345 C40 345 22 325 22 301 C22 276 40 257 63 257 C86 257 104 277 104 301 L104 301 Z " />
<glyph glyph-name="cedilla" unicode="&#xb8;" horiz-adv-x="171" d="M141 -136 C141 -74 74 -85 74 -43 C74 -31 78 -17 85 -8 L84 -8 C75 -20 65 -45 65 -68 C65 -127 136 -121 136 -152 C136 -180 111 -197 81 -197 C68 -197 60 -190 60 -179 C60 -170 70 -169 70 -156 C70 -143 61 -137 50 -137 C37 -137 30 -148 30 -159 C30 -174 48 -198 81 -198 C119 -198 141 -175 141 -136 L141 -136 Z " />
<glyph glyph-name="onesuperior" unicode="&#xb9;" horiz-adv-x="184" d="M154 297 L154 298 L118 298 L118 666 C88 642 31 628 30 628 L30 627 C39 629 75 637 75 633 L75 298 L38 298 L38 297 L154 297 Z " />
<glyph glyph-name="ordmasculine" unicode="&#xba;" horiz-adv-x="275" d="M245 505 C245 568 198 619 138 619 C78 619 30 568 30 505 C30 442 78 391 138 391 C198 391 245 442 245 505 L245 505 Z M202 505 C202 452 194 417 177 403 C167 394 154 392 138 392 C122 392 109 394 99 403 C82 417 73 452 73 505 C73 558 82 592 99 606 C109 615 122 618 138 618 C154 618 167 615 177 606 C194 592 202 558 202 505 L202 505 Z " />
<glyph glyph-name="guillemotright" unicode="&#xbb;" horiz-adv-x="318" d="M296 200 L296 200 C270 214 161 274 161 352 L160 352 C160 289 206 226 234 200 C206 174 160 111 160 48 L161 48 C161 126 270 186 296 200 L296 200 Z M158 200 L158 200 C132 214 23 274 23 352 L22 352 C22 289 68 226 96 200 C68 174 22 111 22 48 L23 48 C23 126 132 186 158 200 L158 200 Z " />
<glyph glyph-name="onequarter" unicode="&#xbc;" horiz-adv-x="475" d="M434 684 L432 685 L30 -12 L31 -13 L434 684 Z M445 141 L445 142 L388 142 L388 251 L387 251 C381 232 368 214 346 211 L346 142 L218 142 L405 396 L404 396 C387 376 354 361 336 368 L252 203 C237 173 227 157 216 141 L346 141 L346 0 L388 0 L388 141 L445 141 Z M154 297 L154 298 L118 298 L118 666 C88 642 31 628 30 628 L30 627 C39 629 75 637 75 633 L75 298 L38 298 L38 297 L154 297 Z " />
<glyph glyph-name="onehalf" unicode="&#xbd;" horiz-adv-x="497" d="M434 684 L432 685 L30 -12 L31 -13 L434 684 Z M466 59 L465 59 C466 41 468 24 440 24 C399 24 386 56 327 56 C275 56 258 20 255 9 C275 95 317 125 348 149 C396 186 449 198 449 270 C449 310 424 368 350 368 C281 368 270 317 270 295 C270 284 278 270 290 270 C302 270 312 275 312 292 C312 306 293 310 293 325 C293 353 316 367 349 367 C404 367 404 294 404 275 C404 224 371 197 334 158 C301 123 266 77 250 -8 C249 -13 251 -12 251 -12 C255 -11 252 -8 254 3 C256 14 276 21 297 21 C345 21 369 -5 411 -5 C441 -5 471 11 466 59 L466 59 Z M154 297 L154 298 L118 298 L118 666 C88 642 31 628 30 628 L30 627 C39 629 75 637 75 633 L75 298 L38 298 L38 297 L154 297 Z " />
<glyph glyph-name="threequarters" unicode="&#xbe;" horiz-adv-x="490" d="M449 684 L447 685 L45 -12 L46 -13 L449 684 Z M460 141 L460 142 L403 142 L403 251 L402 251 C396 232 383 214 361 211 L361 142 L233 142 L420 396 L419 396 C402 376 369 361 351 368 L267 203 C252 173 242 157 231 141 L361 141 L361 0 L403 0 L403 141 L460 141 Z M221 404 C221 455 190 503 121 503 C118 503 110 502 106 501 C146 519 199 553 199 592 C199 644 154 665 101 665 C60 665 39 643 39 625 C39 614 45 601 60 601 C76 601 83 611 83 620 C83 628 79 632 79 639 C79 655 89 664 101 664 C132 664 153 650 153 597 C153 540 134 518 74 485 C68 483 73 476 76 481 C95 498 102 500 120 500 C136 500 175 481 175 398 C175 315 141 293 101 293 C82 293 69 301 69 323 C69 330 73 335 73 342 C73 351 67 362 51 362 C35 362 30 348 30 337 C30 313 54 292 101 292 C154 292 221 331 221 404 L221 404 Z " />
<glyph glyph-name="questiondown" unicode="&#xbf;" horiz-adv-x="354" d="M295 365 C295 389 277 408 254 408 C231 408 213 389 213 364 C213 340 231 320 254 320 C277 320 295 340 295 365 L295 365 Z M344 -178 C344 -147 326 -134 300 -134 C274 -134 259 -150 259 -171 C259 -196 270 -193 270 -223 C270 -259 265 -275 220 -275 C196 -275 170 -270 151 -253 C119 -226 102 -177 102 -82 C102 49 110 71 128 86 C141 96 167 103 185 103 C207 103 240 95 257 67 C261 70 255 71 253 74 L253 242 L252 242 L252 75 C236 96 206 104 185 104 C98 104 22 31 22 -82 C22 -197 106 -276 220 -276 C305 -276 344 -227 344 -178 L344 -178 Z " />
<glyph glyph-name="Agrave" unicode="&#xc0;" horiz-adv-x="677" d="M672 0 L672 1 L587 1 L330 679 L329 679 L83 1 L5 1 L5 0 L180 0 L180 1 L84 1 L167 229 L396 229 L478 1 L382 1 L382 0 L672 0 Z M395 230 L167 230 L281 544 L395 230 Z M409 719 L409 720 C331 735 304 775 289 810 C275 843 272 872 245 872 C228 872 217 860 217 845 C217 812 275 745 409 719 L409 719 Z " />
<glyph glyph-name="Aacute" unicode="&#xc1;" horiz-adv-x="677" d="M672 0 L672 1 L587 1 L330 679 L329 679 L83 1 L5 1 L5 0 L180 0 L180 1 L84 1 L167 229 L396 229 L478 1 L382 1 L382 0 L672 0 Z M395 230 L167 230 L281 544 L395 230 Z M414 845 C414 860 403 872 386 872 C359 872 355 843 341 810 C326 775 300 735 222 720 L222 719 C356 745 414 812 414 845 L414 845 Z " />
<glyph glyph-name="Acircumflex" unicode="&#xc2;" horiz-adv-x="677" d="M672 0 L672 1 L587 1 L330 679 L329 679 L83 1 L5 1 L5 0 L180 0 L180 1 L84 1 L167 229 L396 229 L478 1 L382 1 L382 0 L672 0 Z M395 230 L167 230 L281 544 L395 230 Z M439 714 C376 780 357 816 328 858 L328 858 C299 816 280 780 217 714 L218 713 L328 790 L438 713 L439 714 Z " />
<glyph glyph-name="Atilde" unicode="&#xc3;" horiz-adv-x="677" d="M672 0 L672 1 L587 1 L330 679 L329 679 L83 1 L5 1 L5 0 L180 0 L180 1 L84 1 L167 229 L396 229 L478 1 L382 1 L382 0 L672 0 Z M395 230 L167 230 L281 544 L395 230 Z M488 850 L487 850 C487 811 464 779 427 779 C385 779 340 839 278 839 C221 839 180 797 180 739 L181 739 C181 778 204 810 241 810 C281 810 327 749 389 749 C445 749 488 791 488 850 L488 850 Z " />
<glyph glyph-name="Adieresis" unicode="&#xc4;" horiz-adv-x="677" d="M672 0 L672 1 L587 1 L330 679 L329 679 L83 1 L5 1 L5 0 L180 0 L180 1 L84 1 L167 229 L396 229 L478 1 L382 1 L382 0 L672 0 Z M395 230 L167 230 L281 544 L395 230 Z M438 775 C438 797 422 815 401 815 C380 815 364 797 364 775 C364 754 380 736 401 736 C422 736 438 754 438 775 L438 775 Z M279 775 C279 797 262 815 242 815 C222 815 205 797 205 775 C205 754 222 736 242 736 C262 736 279 754 279 775 L279 775 Z " />
<glyph glyph-name="Aring" unicode="&#xc5;" horiz-adv-x="677" d="M672 0 L672 1 L587 1 L330 679 L329 679 L83 1 L5 1 L5 0 L180 0 L180 1 L84 1 L167 229 L396 229 L478 1 L382 1 L382 0 L672 0 Z M395 230 L167 230 L281 544 L395 230 Z M402 750 C402 790 370 822 330 822 C290 822 258 790 258 750 C258 710 290 678 330 678 C370 678 402 710 402 750 L402 750 Z M401 750 C401 711 369 679 330 679 C291 679 259 711 259 750 C259 789 291 821 330 821 C369 821 401 789 401 750 L401 750 Z " />
<glyph glyph-name="AE" unicode="&#xc6;" horiz-adv-x="902" d="M880 0 L880 187 L879 187 C879 91 823 1 668 1 L538 1 L538 339 L590 339 C666 339 709 295 709 232 L710 232 L710 448 L709 448 C709 384 666 340 590 340 L538 340 L538 659 L665 659 C782 659 829 579 829 492 L830 492 L830 660 L350 660 L350 659 L438 659 L81 1 L5 1 L5 0 L170 0 L170 1 L82 1 L206 230 L438 230 L438 1 L350 1 L350 0 L880 0 Z M438 231 L207 231 L438 656 L438 231 Z " />
<glyph glyph-name="Ccedilla" unicode="&#xc7;" horiz-adv-x="538" d="M516 -15 L516 210 L515 210 C515 96 431 -14 311 -14 C261 -14 223 -4 191 24 C139 69 112 165 112 330 C112 495 139 591 191 636 C223 664 261 674 311 674 C421 674 503 572 503 482 L504 482 L504 672 L503 672 C501 662 481 650 454 650 C411 650 370 675 311 675 C141 675 5 522 5 330 C5 138 141 -15 311 -15 C390 -15 418 15 470 15 C497 15 513 -4 515 -15 L516 -15 Z M365 -142 C365 -80 298 -91 298 -49 C298 -37 302 -23 309 -14 L308 -14 C299 -26 289 -51 289 -74 C289 -133 360 -127 360 -158 C360 -186 335 -203 305 -203 C292 -203 284 -196 284 -185 C284 -176 294 -175 294 -162 C294 -149 285 -143 274 -143 C261 -143 254 -154 254 -165 C254 -180 272 -204 305 -204 C343 -204 365 -181 365 -142 L365 -142 Z " />
<glyph glyph-name="Egrave" unicode="&#xc8;" horiz-adv-x="557" d="M535 0 L535 187 L534 187 C534 91 478 1 323 1 L193 1 L193 339 L245 339 C321 339 364 295 364 232 L365 232 L365 448 L364 448 C364 384 321 340 245 340 L193 340 L193 659 L320 659 C437 659 484 579 484 492 L485 492 L485 660 L5 660 L5 659 L93 659 L93 1 L5 1 L5 0 L535 0 Z M399 719 L399 720 C321 735 294 775 279 810 C265 843 262 872 235 872 C218 872 207 860 207 845 C207 812 265 745 399 719 L399 719 Z " />
<glyph glyph-name="Eacute" unicode="&#xc9;" horiz-adv-x="557" d="M535 0 L535 187 L534 187 C534 91 478 1 323 1 L193 1 L193 339 L245 339 C321 339 364 295 364 232 L365 232 L365 448 L364 448 C364 384 321 340 245 340 L193 340 L193 659 L320 659 C437 659 484 579 484 492 L485 492 L485 660 L5 660 L5 659 L93 659 L93 1 L5 1 L5 0 L535 0 Z M379 845 C379 860 368 872 351 872 C324 872 320 843 306 810 C291 775 265 735 187 720 L187 719 C321 745 379 812 379 845 L379 845 Z " />
<glyph glyph-name="Ecircumflex" unicode="&#xca;" horiz-adv-x="557" d="M535 0 L535 187 L534 187 C534 91 478 1 323 1 L193 1 L193 339 L245 339 C321 339 364 295 364 232 L365 232 L365 448 L364 448 C364 384 321 340 245 340 L193 340 L193 659 L320 659 C437 659 484 579 484 492 L485 492 L485 660 L5 660 L5 659 L93 659 L93 1 L5 1 L5 0 L535 0 Z M394 714 C331 780 312 816 283 858 L283 858 C254 816 235 780 172 714 L173 713 L283 790 L393 713 L394 714 Z " />
<glyph glyph-name="Edieresis" unicode="&#xcb;" horiz-adv-x="557" d="M535 0 L535 187 L534 187 C534 91 478 1 323 1 L193 1 L193 339 L245 339 C321 339 364 295 364 232 L365 232 L365 448 L364 448 C364 384 321 340 245 340 L193 340 L193 659 L320 659 C437 659 484 579 484 492 L485 492 L485 660 L5 660 L5 659 L93 659 L93 1 L5 1 L5 0 L535 0 Z M398 775 C398 797 382 815 361 815 C340 815 324 797 324 775 C324 754 340 736 361 736 C382 736 398 754 398 775 L398 775 Z M239 775 C239 797 222 815 202 815 C182 815 165 797 165 775 C165 754 182 736 202 736 C222 736 239 754 239 775 L239 775 Z " />
<glyph glyph-name="Igrave" unicode="&#xcc;" horiz-adv-x="320" d="M298 0 L298 1 L210 1 L210 659 L298 659 L298 660 L22 660 L22 659 L110 659 L110 1 L22 1 L22 0 L298 0 Z M249 719 L249 720 C171 735 144 775 129 810 C115 843 112 872 85 872 C68 872 57 860 57 845 C57 812 115 745 249 719 L249 719 Z " />
<glyph glyph-name="Iacute" unicode="&#xcd;" horiz-adv-x="320" d="M298 0 L298 1 L210 1 L210 659 L298 659 L298 660 L22 660 L22 659 L110 659 L110 1 L22 1 L22 0 L298 0 Z M259 845 C259 860 248 872 231 872 C204 872 200 843 186 810 C171 775 145 735 67 720 L67 719 C201 745 259 812 259 845 L259 845 Z " />
<glyph glyph-name="Icircumflex" unicode="&#xce;" horiz-adv-x="320" d="M298 0 L298 1 L210 1 L210 659 L298 659 L298 660 L22 660 L22 659 L110 659 L110 1 L22 1 L22 0 L298 0 Z M269 714 C206 780 187 816 158 858 L158 858 C129 816 110 780 47 714 L48 713 L158 790 L268 713 L269 714 Z " />
<glyph glyph-name="Idieresis" unicode="&#xcf;" horiz-adv-x="320" d="M298 0 L298 1 L210 1 L210 659 L298 659 L298 660 L22 660 L22 659 L110 659 L110 1 L22 1 L22 0 L298 0 Z M277 775 C277 797 261 815 240 815 C219 815 203 797 203 775 C203 754 219 736 240 736 C261 736 277 754 277 775 L277 775 Z M118 775 C118 797 101 815 81 815 C61 815 44 797 44 775 C44 754 61 736 81 736 C101 736 118 754 118 775 L118 775 Z " />
<glyph glyph-name="Eth" unicode="&#xd0;" horiz-adv-x="645" d="M630 330 C630 520 492 660 323 660 L22 660 L22 659 L110 659 L110 334 L22 334 L22 333 L110 333 L110 1 L22 1 L22 0 L323 0 C492 0 630 140 630 330 L630 330 Z M523 330 C523 150 496 82 443 38 C412 12 365 1 323 1 L210 1 L210 333 L314 333 L314 334 L210 334 L210 659 L323 659 C365 659 412 648 443 622 C496 578 523 480 523 330 L523 330 Z " />
<glyph glyph-name="Ntilde" unicode="&#xd1;" horiz-adv-x="670" d="M648 659 L648 660 L471 660 L471 659 L559 659 L559 164 L227 660 L22 660 L22 659 L110 659 L110 1 L22 1 L22 0 L199 0 L199 1 L111 1 L111 659 L559 -20 L560 -20 L560 659 L648 659 Z M488 850 L487 850 C487 811 464 779 427 779 C385 779 340 839 278 839 C221 839 180 797 180 739 L181 739 C181 778 204 810 241 810 C281 810 327 749 389 749 C445 749 488 791 488 850 L488 850 Z " />
<glyph glyph-name="Ograve" unicode="&#xd2;" horiz-adv-x="642" d="M627 330 C627 522 491 675 321 675 C151 675 15 522 15 330 C15 138 151 -15 321 -15 C491 -15 627 138 627 330 L627 330 Z M520 330 C520 165 493 69 441 24 C409 -4 371 -14 321 -14 C271 -14 233 -4 201 24 C149 69 122 165 122 330 C122 495 149 591 201 636 C233 664 271 674 321 674 C371 674 409 664 441 636 C493 591 520 495 520 330 L520 330 Z M424 719 L424 720 C346 735 319 775 304 810 C290 843 287 872 260 872 C243 872 232 860 232 845 C232 812 290 745 424 719 L424 719 Z " />
<glyph glyph-name="Oacute" unicode="&#xd3;" horiz-adv-x="642" d="M627 330 C627 522 491 675 321 675 C151 675 15 522 15 330 C15 138 151 -15 321 -15 C491 -15 627 138 627 330 L627 330 Z M520 330 C520 165 493 69 441 24 C409 -4 371 -14 321 -14 C271 -14 233 -4 201 24 C149 69 122 165 122 330 C122 495 149 591 201 636 C233 664 271 674 321 674 C371 674 409 664 441 636 C493 591 520 495 520 330 L520 330 Z M409 845 C409 860 398 872 381 872 C354 872 350 843 336 810 C321 775 295 735 217 720 L217 719 C351 745 409 812 409 845 L409 845 Z " />
<glyph glyph-name="Ocircumflex" unicode="&#xd4;" horiz-adv-x="642" d="M627 330 C627 522 491 675 321 675 C151 675 15 522 15 330 C15 138 151 -15 321 -15 C491 -15 627 138 627 330 L627 330 Z M520 330 C520 165 493 69 441 24 C409 -4 371 -14 321 -14 C271 -14 233 -4 201 24 C149 69 122 165 122 330 C122 495 149 591 201 636 C233 664 271 674 321 674 C371 674 409 664 441 636 C493 591 520 495 520 330 L520 330 Z M434 714 C371 780 352 816 323 858 L323 858 C294 816 275 780 212 714 L213 713 L323 790 L433 713 L434 714 Z " />
<glyph glyph-name="Otilde" unicode="&#xd5;" horiz-adv-x="642" d="M627 330 C627 522 491 675 321 675 C151 675 15 522 15 330 C15 138 151 -15 321 -15 C491 -15 627 138 627 330 L627 330 Z M520 330 C520 165 493 69 441 24 C409 -4 371 -14 321 -14 C271 -14 233 -4 201 24 C149 69 122 165 122 330 C122 495 149 591 201 636 C233 664 271 674 321 674 C371 674 409 664 441 636 C493 591 520 495 520 330 L520 330 Z M473 850 L472 850 C472 811 449 779 412 779 C370 779 325 839 263 839 C206 839 165 797 165 739 L166 739 C166 778 189 810 226 810 C266 810 312 749 374 749 C430 749 473 791 473 850 L473 850 Z " />
<glyph glyph-name="Odieresis" unicode="&#xd6;" horiz-adv-x="642" d="M627 330 C627 522 491 675 321 675 C151 675 15 522 15 330 C15 138 151 -15 321 -15 C491 -15 627 138 627 330 L627 330 Z M520 330 C520 165 493 69 441 24 C409 -4 371 -14 321 -14 C271 -14 233 -4 201 24 C149 69 122 165 122 330 C122 495 149 591 201 636 C233 664 271 674 321 674 C371 674 409 664 441 636 C493 591 520 495 520 330 L520 330 Z M435 775 C435 797 419 815 398 815 C377 815 361 797 361 775 C361 754 377 736 398 736 C419 736 435 754 435 775 L435 775 Z M276 775 C276 797 259 815 239 815 C219 815 202 797 202 775 C202 754 219 736 239 736 C259 736 276 754 276 775 L276 775 Z " />
<glyph glyph-name="multiply" unicode="&#xd7;" horiz-adv-x="266" d="M244 367 L243 368 L133 257 L23 368 L22 367 L132 256 L22 146 L23 145 L133 256 L243 145 L244 146 L134 256 L244 367 Z " />
<glyph glyph-name="Oslash" unicode="&#xd8;" horiz-adv-x="642" d="M627 330 C627 452 572 558 489 619 L523 679 L522 679 L488 620 C440 655 383 675 321 675 C151 675 15 522 15 330 C15 208 70 102 153 41 L119 -19 L120 -19 L154 40 C202 5 259 -15 321 -15 C491 -15 627 138 627 330 L627 330 Z M473 596 L168 66 C138 120 122 205 122 330 C122 495 149 591 201 636 C233 664 271 674 321 674 C371 674 409 664 441 636 C453 625 464 612 473 596 L473 596 Z M520 330 C520 165 493 69 441 24 C409 -4 371 -14 321 -14 C271 -14 233 -4 201 24 C189 35 178 48 169 64 L474 594 C504 540 520 455 520 330 L520 330 Z " />
<glyph glyph-name="Ugrave" unicode="&#xd9;" horiz-adv-x="690" d="M668 659 L668 660 L491 660 L491 659 L579 659 L579 195 C579 74 513 -9 377 -9 C267 -9 210 60 210 193 L210 659 L298 659 L298 660 L22 660 L22 659 L110 659 L110 193 C110 54 211 -15 353 -15 C511 -15 580 66 580 195 L580 659 L668 659 Z M484 719 L484 720 C406 735 379 775 364 810 C350 843 347 872 320 872 C303 872 292 860 292 845 C292 812 350 745 484 719 L484 719 Z " />
<glyph glyph-name="Uacute" unicode="&#xda;" horiz-adv-x="690" d="M668 659 L668 660 L491 660 L491 659 L579 659 L579 195 C579 74 513 -9 377 -9 C267 -9 210 60 210 193 L210 659 L298 659 L298 660 L22 660 L22 659 L110 659 L110 193 C110 54 211 -15 353 -15 C511 -15 580 66 580 195 L580 659 L668 659 Z M484 845 C484 860 473 872 456 872 C429 872 425 843 411 810 C396 775 370 735 292 720 L292 719 C426 745 484 812 484 845 L484 845 Z " />
<glyph glyph-name="Ucircumflex" unicode="&#xdb;" horiz-adv-x="690" d="M668 659 L668 660 L491 660 L491 659 L579 659 L579 195 C579 74 513 -9 377 -9 C267 -9 210 60 210 193 L210 659 L298 659 L298 660 L22 660 L22 659 L110 659 L110 193 C110 54 211 -15 353 -15 C511 -15 580 66 580 195 L580 659 L668 659 Z M484 714 C421 780 402 816 373 858 L373 858 C344 816 325 780 262 714 L263 713 L373 790 L483 713 L484 714 Z " />
<glyph glyph-name="Udieresis" unicode="&#xdc;" horiz-adv-x="690" d="M668 659 L668 660 L491 660 L491 659 L579 659 L579 195 C579 74 513 -9 377 -9 C267 -9 210 60 210 193 L210 659 L298 659 L298 660 L22 660 L22 659 L110 659 L110 193 C110 54 211 -15 353 -15 C511 -15 580 66 580 195 L580 659 L668 659 Z M508 775 C508 797 492 815 471 815 C450 815 434 797 434 775 C434 754 450 736 471 736 C492 736 508 754 508 775 L508 775 Z M349 775 C349 797 332 815 312 815 C292 815 275 797 275 775 C275 754 292 736 312 736 C332 736 349 754 349 775 L349 775 Z " />
<glyph glyph-name="Yacute" unicode="&#xdd;" horiz-adv-x="678" d="M656 659 L656 660 L468 660 L468 659 L567 659 L400 310 L223 659 L328 659 L328 660 L22 660 L22 659 L110 659 L301 288 L301 1 L213 1 L213 0 L489 0 L489 1 L401 1 L401 309 L568 659 L656 659 Z M459 845 C459 860 448 872 431 872 C404 872 400 843 386 810 C371 775 345 735 267 720 L267 719 C401 745 459 812 459 845 L459 845 Z " />
<glyph glyph-name="Thorn" unicode="&#xde;" horiz-adv-x="575" d="M560 340 C560 454 467 549 298 549 L210 549 L210 659 L298 659 L298 660 L22 660 L22 659 L110 659 L110 1 L22 1 L22 0 L298 0 L298 1 L210 1 L210 155 C238 147 269 144 310 144 C457 144 560 227 560 340 L560 340 Z M460 340 C460 206 395 145 307 145 C272 145 238 148 210 156 L210 548 L298 548 C386 548 460 475 460 340 L460 340 Z " />
<glyph glyph-name="germandbls" unicode="&#xdf;" horiz-adv-x="571" d="M468 180 C468 272 413 387 303 387 C303 387 287 389 273 383 C349 413 410 476 410 553 C410 643 344 691 256 691 C165 691 98 616 98 418 L98 1 L42 1 L42 0 L227 0 L227 1 L171 1 L171 576 C171 662 212 690 256 690 C321 690 345 650 345 556 C345 455 322 416 249 371 L249 371 C262 378 276 384 288 384 C363 384 397 324 397 170 C397 19 367 -8 331 -8 C304 -8 284 13 284 44 C284 60 292 65 292 77 C292 94 279 104 261 104 C245 104 232 91 232 70 C232 30 271 -9 331 -9 C390 -9 468 47 468 180 L468 180 Z " />
<glyph glyph-name="agrave" unicode="&#xe0;" horiz-adv-x="388" d="M375 32 L374 32 C369 6 359 1 342 1 C328 1 318 15 318 36 L318 236 C318 353 267 405 172 405 C99 405 63 365 63 334 C63 314 73 294 99 294 C127 294 138 310 138 326 C138 340 133 344 133 359 C133 389 149 404 172 404 C206 404 245 389 245 306 L245 246 C245 218 186 212 135 207 C98 204 16 192 16 95 C16 26 78 -9 139 -9 C197 -9 233 10 245 50 C251 16 277 -9 317 -9 C352 -9 370 2 375 32 L375 32 Z M244 66 C244 26 212 -5 156 -5 C127 -5 91 19 91 95 C91 180 124 203 152 207 C179 211 240 217 245 240 L244 66 Z M269 469 L269 470 C191 485 164 525 149 560 C135 593 132 622 105 622 C88 622 77 610 77 595 C77 562 135 495 269 469 L269 469 Z " />
<glyph glyph-name="aacute" unicode="&#xe1;" horiz-adv-x="388" d="M375 32 L374 32 C369 6 359 1 342 1 C328 1 318 15 318 36 L318 236 C318 353 267 405 172 405 C99 405 63 365 63 334 C63 314 73 294 99 294 C127 294 138 310 138 326 C138 340 133 344 133 359 C133 389 149 404 172 404 C206 404 245 389 245 306 L245 246 C245 218 186 212 135 207 C98 204 16 192 16 95 C16 26 78 -9 139 -9 C197 -9 233 10 245 50 C251 16 277 -9 317 -9 C352 -9 370 2 375 32 L375 32 Z M244 66 C244 26 212 -5 156 -5 C127 -5 91 19 91 95 C91 180 124 203 152 207 C179 211 240 217 245 240 L244 66 Z M300 595 C300 610 289 622 272 622 C245 622 241 593 227 560 C212 525 186 485 108 470 L108 469 C242 495 300 562 300 595 L300 595 Z " />
<glyph glyph-name="acircumflex" unicode="&#xe2;" horiz-adv-x="388" d="M375 32 L374 32 C369 6 359 1 342 1 C328 1 318 15 318 36 L318 236 C318 353 267 405 172 405 C99 405 63 365 63 334 C63 314 73 294 99 294 C127 294 138 310 138 326 C138 340 133 344 133 359 C133 389 149 404 172 404 C206 404 245 389 245 306 L245 246 C245 218 186 212 135 207 C98 204 16 192 16 95 C16 26 78 -9 139 -9 C197 -9 233 10 245 50 C251 16 277 -9 317 -9 C352 -9 370 2 375 32 L375 32 Z M244 66 C244 26 212 -5 156 -5 C127 -5 91 19 91 95 C91 180 124 203 152 207 C179 211 240 217 245 240 L244 66 Z M295 464 C232 530 213 566 184 608 L184 608 C155 566 136 530 73 464 L74 463 L184 540 L294 463 L295 464 Z " />
<glyph glyph-name="atilde" unicode="&#xe3;" horiz-adv-x="388" d="M338 600 L337 600 C337 561 314 529 277 529 C235 529 190 589 128 589 C71 589 30 547 30 489 L31 489 C31 528 54 560 91 560 C131 560 177 499 239 499 C295 499 338 541 338 600 L338 600 Z M375 32 L374 32 C369 6 359 1 342 1 C328 1 318 15 318 36 L318 236 C318 353 267 405 172 405 C99 405 63 365 63 334 C63 314 73 294 99 294 C127 294 138 310 138 326 C138 340 133 344 133 359 C133 389 149 404 172 404 C206 404 245 389 245 306 L245 246 C245 218 186 212 135 207 C98 204 16 192 16 95 C16 26 78 -9 139 -9 C197 -9 233 10 245 50 C251 16 277 -9 317 -9 C352 -9 370 2 375 32 L375 32 Z M244 66 C244 26 212 -5 156 -5 C127 -5 91 19 91 95 C91 180 124 203 152 207 C179 211 240 217 245 240 L244 66 Z " />
<glyph glyph-name="adieresis" unicode="&#xe4;" horiz-adv-x="388" d="M375 32 L374 32 C369 6 359 1 342 1 C328 1 318 15 318 36 L318 236 C318 353 267 405 172 405 C99 405 63 365 63 334 C63 314 73 294 99 294 C127 294 138 310 138 326 C138 340 133 344 133 359 C133 389 149 404 172 404 C206 404 245 389 245 306 L245 246 C245 218 186 212 135 207 C98 204 16 192 16 95 C16 26 78 -9 139 -9 C197 -9 233 10 245 50 C251 16 277 -9 317 -9 C352 -9 370 2 375 32 L375 32 Z M244 66 C244 26 212 -5 156 -5 C127 -5 91 19 91 95 C91 180 124 203 152 207 C179 211 240 217 245 240 L244 66 Z M309 525 C309 547 293 565 272 565 C251 565 235 547 235 525 C235 504 251 486 272 486 C293 486 309 504 309 525 L309 525 Z M150 525 C150 547 133 565 113 565 C93 565 76 547 76 525 C76 504 93 486 113 486 C133 486 150 504 150 525 L150 525 Z " />
<glyph glyph-name="aring" unicode="&#xe5;" horiz-adv-x="388" d="M375 32 L374 32 C369 6 359 1 342 1 C328 1 318 15 318 36 L318 236 C318 353 267 405 172 405 C99 405 63 365 63 334 C63 314 73 294 99 294 C127 294 138 310 138 326 C138 340 133 344 133 359 C133 389 149 404 172 404 C206 404 245 389 245 306 L245 246 C245 218 186 212 135 207 C98 204 16 192 16 95 C16 26 78 -9 139 -9 C197 -9 233 10 245 50 C251 16 277 -9 317 -9 C352 -9 370 2 375 32 L375 32 Z M244 66 C244 26 212 -5 156 -5 C127 -5 91 19 91 95 C91 180 124 203 152 207 C179 211 240 217 245 240 L244 66 Z M265 548 C265 588 233 620 193 620 C153 620 121 588 121 548 C121 508 153 476 193 476 C233 476 265 508 265 548 L265 548 Z M264 548 C264 509 232 477 193 477 C154 477 122 509 122 548 C122 587 154 619 193 619 C232 619 264 587 264 548 L264 548 Z " />
<glyph glyph-name="ae" unicode="&#xe6;" horiz-adv-x="616" d="M595 221 C595 293 548 405 432 405 C372 405 324 376 297 342 C273 385 231 405 172 405 C100 405 64 365 64 334 C64 314 74 294 100 294 C128 294 139 310 139 326 C139 340 130 344 130 359 C130 389 150 404 173 404 C206 404 245 389 245 306 L245 246 C245 218 186 212 135 207 C99 204 17 192 17 95 C17 26 78 -9 140 -9 C198 -9 240 5 269 95 C303 26 367 -9 432 -9 C497 -9 548 25 583 79 L582 79 C549 28 498 -8 432 -8 C408 -8 382 -2 363 14 C332 41 323 86 323 198 L323 221 L595 221 Z M520 222 L323 222 C323 303 335 359 363 383 C383 400 408 404 432 404 C452 404 472 399 488 383 C511 358 519 303 520 222 L520 222 Z M245 66 C245 26 212 -5 157 -5 C128 -5 89 15 89 95 C89 180 125 203 153 207 C180 211 240 217 245 240 L245 66 Z " />
<glyph glyph-name="ccedilla" unicode="&#xe7;" horiz-adv-x="364" d="M341 53 L340 54 C308 17 263 -8 209 -8 C180 -8 156 -2 137 14 C106 41 90 100 90 198 C90 296 106 355 137 382 C156 398 180 404 209 404 C255 404 266 388 266 360 C266 339 256 340 256 316 C256 298 270 284 292 284 C314 284 330 296 330 323 C330 365 289 405 209 405 C101 405 15 312 15 198 C15 84 101 -9 209 -9 C263 -9 308 15 341 53 L341 53 Z M265 -136 C265 -74 198 -85 198 -43 C198 -31 202 -17 209 -8 L208 -8 C199 -20 189 -45 189 -68 C189 -127 260 -121 260 -152 C260 -180 235 -197 205 -197 C192 -197 184 -190 184 -179 C184 -170 194 -169 194 -156 C194 -143 185 -137 174 -137 C161 -137 154 -148 154 -159 C154 -174 172 -198 205 -198 C243 -198 265 -175 265 -136 L265 -136 Z " />
<glyph glyph-name="egrave" unicode="&#xe8;" horiz-adv-x="387" d="M365 221 C365 293 318 405 202 405 C95 405 15 312 15 198 C15 84 95 -9 202 -9 C267 -9 319 25 353 79 L352 79 C319 28 268 -8 202 -8 C178 -8 152 -2 133 14 C102 41 93 86 93 198 L93 221 L365 221 Z M291 222 L93 222 C93 303 105 359 133 383 C153 400 178 404 202 404 C223 404 242 399 258 383 C281 358 289 303 291 222 L291 222 Z M284 469 L284 470 C206 485 179 525 164 560 C150 593 147 622 120 622 C103 622 92 610 92 595 C92 562 150 495 284 469 L284 469 Z " />
<glyph glyph-name="eacute" unicode="&#xe9;" horiz-adv-x="387" d="M365 221 C365 293 318 405 202 405 C95 405 15 312 15 198 C15 84 95 -9 202 -9 C267 -9 319 25 353 79 L352 79 C319 28 268 -8 202 -8 C178 -8 152 -2 133 14 C102 41 93 86 93 198 L93 221 L365 221 Z M291 222 L93 222 C93 303 105 359 133 383 C153 400 178 404 202 404 C223 404 242 399 258 383 C281 358 289 303 291 222 L291 222 Z M294 595 C294 610 283 622 266 622 C239 622 235 593 221 560 C206 525 180 485 102 470 L102 469 C236 495 294 562 294 595 L294 595 Z " />
<glyph glyph-name="ecircumflex" unicode="&#xea;" horiz-adv-x="387" d="M365 221 C365 293 318 405 202 405 C95 405 15 312 15 198 C15 84 95 -9 202 -9 C267 -9 319 25 353 79 L352 79 C319 28 268 -8 202 -8 C178 -8 152 -2 133 14 C102 41 93 86 93 198 L93 221 L365 221 Z M291 222 L93 222 C93 303 105 359 133 383 C153 400 178 404 202 404 C223 404 242 399 258 383 C281 358 289 303 291 222 L291 222 Z M309 464 C246 530 227 566 198 608 L198 608 C169 566 150 530 87 464 L88 463 L198 540 L308 463 L309 464 Z " />
<glyph glyph-name="edieresis" unicode="&#xeb;" horiz-adv-x="387" d="M365 221 C365 293 318 405 202 405 C95 405 15 312 15 198 C15 84 95 -9 202 -9 C267 -9 319 25 353 79 L352 79 C319 28 268 -8 202 -8 C178 -8 152 -2 133 14 C102 41 93 86 93 198 L93 221 L365 221 Z M291 222 L93 222 C93 303 105 359 133 383 C153 400 178 404 202 404 C223 404 242 399 258 383 C281 358 289 303 291 222 L291 222 Z M308 525 C308 547 292 565 271 565 C250 565 234 547 234 525 C234 504 250 486 271 486 C292 486 308 504 308 525 L308 525 Z M149 525 C149 547 132 565 112 565 C92 565 75 547 75 525 C75 504 92 486 112 486 C132 486 149 504 149 525 L149 525 Z " />
<glyph glyph-name="igrave" unicode="&#xec;" horiz-adv-x="233" d="M211 0 L211 1 L153 1 L153 396 L22 396 L22 395 L80 395 L80 1 L22 1 L22 0 L211 0 Z M209 469 L209 470 C131 485 104 525 89 560 C75 593 72 622 45 622 C28 622 17 610 17 595 C17 562 75 495 209 469 L209 469 Z " />
<glyph glyph-name="iacute" unicode="&#xed;" horiz-adv-x="233" d="M211 0 L211 1 L153 1 L153 396 L22 396 L22 395 L80 395 L80 1 L22 1 L22 0 L211 0 Z M204 595 C204 610 193 622 176 622 C149 622 145 593 131 560 C116 525 90 485 12 470 L12 469 C146 495 204 562 204 595 L204 595 Z " />
<glyph glyph-name="icircumflex" unicode="&#xee;" horiz-adv-x="233" d="M211 0 L211 1 L153 1 L153 396 L22 396 L22 395 L80 395 L80 1 L22 1 L22 0 L211 0 Z M227 464 C164 530 145 566 116 608 L116 608 C87 566 68 530 5 464 L6 463 L116 540 L226 463 L227 464 Z " />
<glyph glyph-name="idieresis" unicode="&#xef;" horiz-adv-x="233" d="M211 0 L211 1 L153 1 L153 396 L22 396 L22 395 L80 395 L80 1 L22 1 L22 0 L211 0 Z M233 525 C233 547 217 565 196 565 C175 565 159 547 159 525 C159 504 175 486 196 486 C217 486 233 504 233 525 L233 525 Z M74 525 C74 547 57 565 37 565 C17 565 0 547 0 525 C0 504 17 486 37 486 C57 486 74 504 74 525 L74 525 Z " />
<glyph glyph-name="eth" unicode="&#xf0;" horiz-adv-x="418" d="M403 231 C403 258 405 462 254 600 L329 641 L329 642 L253 600 C216 635 169 665 111 687 L111 686 C167 664 211 634 243 595 L136 535 L137 535 L243 594 C291 536 314 460 320 368 C294 389 255 405 209 405 C101 405 15 312 15 198 C15 84 101 -9 209 -9 C317 -9 403 76 403 231 L403 231 Z M328 198 C328 100 312 41 281 14 C262 -2 239 -8 209 -8 C180 -8 156 -2 137 14 C106 41 90 100 90 198 C90 296 106 355 137 382 C156 398 180 404 209 404 C239 404 262 398 281 382 C312 355 328 296 328 198 L328 198 Z " />
<glyph glyph-name="ntilde" unicode="&#xf1;" horiz-adv-x="491" d="M469 0 L469 1 L411 1 L411 249 C411 355 353 405 259 405 C199 405 158 364 153 331 L153 396 L22 396 L22 395 L80 395 L80 1 L22 1 L22 0 L211 0 L211 1 L153 1 L153 321 C153 360 199 404 259 404 C291 404 338 372 338 306 L338 1 L280 1 L280 0 L469 0 Z M398 600 L397 600 C397 561 374 529 337 529 C295 529 250 589 188 589 C131 589 90 547 90 489 L91 489 C91 528 114 560 151 560 C191 560 237 499 299 499 C355 499 398 541 398 600 L398 600 Z " />
<glyph glyph-name="ograve" unicode="&#xf2;" horiz-adv-x="418" d="M403 198 C403 312 317 405 209 405 C101 405 15 312 15 198 C15 84 101 -9 209 -9 C317 -9 403 84 403 198 L403 198 Z M328 198 C328 100 312 41 281 14 C262 -2 239 -8 209 -8 C180 -8 156 -2 137 14 C106 41 90 100 90 198 C90 296 106 355 137 382 C156 398 180 404 209 404 C239 404 262 398 281 382 C312 355 328 296 328 198 L328 198 Z M304 469 L304 470 C226 485 199 525 184 560 C170 593 167 622 140 622 C123 622 112 610 112 595 C112 562 170 495 304 469 L304 469 Z " />
<glyph glyph-name="oacute" unicode="&#xf3;" horiz-adv-x="418" d="M403 198 C403 312 317 405 209 405 C101 405 15 312 15 198 C15 84 101 -9 209 -9 C317 -9 403 84 403 198 L403 198 Z M328 198 C328 100 312 41 281 14 C262 -2 239 -8 209 -8 C180 -8 156 -2 137 14 C106 41 90 100 90 198 C90 296 106 355 137 382 C156 398 180 404 209 404 C239 404 262 398 281 382 C312 355 328 296 328 198 L328 198 Z M294 595 C294 610 283 622 266 622 C239 622 235 593 221 560 C206 525 180 485 102 470 L102 469 C236 495 294 562 294 595 L294 595 Z " />
<glyph glyph-name="ocircumflex" unicode="&#xf4;" horiz-adv-x="418" d="M403 198 C403 312 317 405 209 405 C101 405 15 312 15 198 C15 84 101 -9 209 -9 C317 -9 403 84 403 198 L403 198 Z M328 198 C328 100 312 41 281 14 C262 -2 239 -8 209 -8 C180 -8 156 -2 137 14 C106 41 90 100 90 198 C90 296 106 355 137 382 C156 398 180 404 209 404 C239 404 262 398 281 382 C312 355 328 296 328 198 L328 198 Z M314 464 C251 530 232 566 203 608 L203 608 C174 566 155 530 92 464 L93 463 L203 540 L313 463 L314 464 Z " />
<glyph glyph-name="otilde" unicode="&#xf5;" horiz-adv-x="418" d="M403 198 C403 312 317 405 209 405 C101 405 15 312 15 198 C15 84 101 -9 209 -9 C317 -9 403 84 403 198 L403 198 Z M328 198 C328 100 312 41 281 14 C262 -2 239 -8 209 -8 C180 -8 156 -2 137 14 C106 41 90 100 90 198 C90 296 106 355 137 382 C156 398 180 404 209 404 C239 404 262 398 281 382 C312 355 328 296 328 198 L328 198 Z M363 600 L362 600 C362 561 339 529 302 529 C260 529 215 589 153 589 C96 589 55 547 55 489 L56 489 C56 528 79 560 116 560 C156 560 202 499 264 499 C320 499 363 541 363 600 L363 600 Z " />
<glyph glyph-name="odieresis" unicode="&#xf6;" horiz-adv-x="418" d="M403 198 C403 312 317 405 209 405 C101 405 15 312 15 198 C15 84 101 -9 209 -9 C317 -9 403 84 403 198 L403 198 Z M328 198 C328 100 312 41 281 14 C262 -2 239 -8 209 -8 C180 -8 156 -2 137 14 C106 41 90 100 90 198 C90 296 106 355 137 382 C156 398 180 404 209 404 C239 404 262 398 281 382 C312 355 328 296 328 198 L328 198 Z M326 525 C326 547 310 565 289 565 C268 565 252 547 252 525 C252 504 268 486 289 486 C310 486 326 504 326 525 L326 525 Z M167 525 C167 547 150 565 130 565 C110 565 93 547 93 525 C93 504 110 486 130 486 C150 486 167 504 167 525 L167 525 Z " />
<glyph glyph-name="divide" unicode="&#xf7;" horiz-adv-x="324" d="M191 191 C191 208 178 221 162 221 C146 221 133 208 133 191 C133 174 146 161 162 161 C178 161 191 174 191 191 L191 191 Z M302 256 L302 257 L22 257 L22 256 L302 256 Z M191 322 C191 339 178 352 162 352 C146 352 133 339 133 322 C133 305 146 292 162 292 C178 292 191 305 191 322 L191 322 Z " />
<glyph glyph-name="oslash" unicode="&#xf8;" horiz-adv-x="571" d="M405 198 C405 266 373 326 326 364 L362 418 L361 419 L325 365 C293 389 253 405 210 405 C103 405 16 313 16 198 C16 131 47 71 94 32 L57 -20 L59 -21 L96 31 C127 6 168 -8 210 -8 C318 -8 405 85 405 198 L405 198 Z M309 343 L109 54 C97 84 91 128 91 198 C91 296 107 355 138 382 C156 397 181 404 210 404 C240 404 264 398 284 381 C292 374 302 359 309 343 L309 343 Z M330 198 C330 86 314 41 283 15 C264 -2 240 -7 210 -7 C181 -7 156 -2 137 14 C126 24 118 37 110 52 L310 341 C324 309 330 261 330 198 L330 198 Z " />
<glyph glyph-name="ugrave" unicode="&#xf9;" horiz-adv-x="491" d="M469 0 L469 1 L411 1 L411 396 L280 396 L280 395 L338 395 L338 75 C338 36 292 -8 232 -8 C200 -8 153 24 153 90 L153 396 L22 396 L22 395 L80 395 L80 147 C80 41 138 -9 232 -9 C292 -9 333 32 338 65 L338 0 L469 0 Z M339 469 L339 470 C261 485 234 525 219 560 C205 593 202 622 175 622 C158 622 147 610 147 595 C147 562 205 495 339 469 L339 469 Z " />
<glyph glyph-name="uacute" unicode="&#xfa;" horiz-adv-x="491" d="M469 0 L469 1 L411 1 L411 396 L280 396 L280 395 L338 395 L338 75 C338 36 292 -8 232 -8 C200 -8 153 24 153 90 L153 396 L22 396 L22 395 L80 395 L80 147 C80 41 138 -9 232 -9 C292 -9 333 32 338 65 L338 0 L469 0 Z M339 595 C339 610 328 622 311 622 C284 622 280 593 266 560 C251 525 225 485 147 470 L147 469 C281 495 339 562 339 595 L339 595 Z " />
<glyph glyph-name="ucircumflex" unicode="&#xfb;" horiz-adv-x="491" d="M469 0 L469 1 L411 1 L411 396 L280 396 L280 395 L338 395 L338 75 C338 36 292 -8 232 -8 C200 -8 153 24 153 90 L153 396 L22 396 L22 395 L80 395 L80 147 C80 41 138 -9 232 -9 C292 -9 333 32 338 65 L338 0 L469 0 Z M354 464 C291 530 272 566 243 608 L243 608 C214 566 195 530 132 464 L133 463 L243 540 L353 463 L354 464 Z " />
<glyph glyph-name="udieresis" unicode="&#xfc;" horiz-adv-x="491" d="M469 0 L469 1 L411 1 L411 396 L280 396 L280 395 L338 395 L338 75 C338 36 292 -8 232 -8 C200 -8 153 24 153 90 L153 396 L22 396 L22 395 L80 395 L80 147 C80 41 138 -9 232 -9 C292 -9 333 32 338 65 L338 0 L469 0 Z M355 525 C355 547 339 565 318 565 C297 565 281 547 281 525 C281 504 297 486 318 486 C339 486 355 504 355 525 L355 525 Z M196 525 C196 547 179 565 159 565 C139 565 122 547 122 525 C122 504 139 486 159 486 C179 486 196 504 196 525 L196 525 Z " />
<glyph glyph-name="yacute" unicode="&#xfd;" horiz-adv-x="464" d="M447 395 L447 396 L330 396 L330 395 L390 395 L271 74 L131 395 L187 395 L187 396 L5 396 L5 395 L53 395 L239 -12 L173 -223 C157 -272 137 -286 123 -286 C112 -286 107 -283 104 -271 C99 -249 114 -248 114 -227 C114 -209 101 -195 76 -195 C53 -195 34 -216 34 -245 C34 -278 63 -296 100 -296 C137 -296 157 -277 175 -221 L240 -13 L391 395 L447 395 Z M339 595 C339 610 328 622 311 622 C284 622 280 593 266 560 C251 525 225 485 147 470 L147 469 C281 495 339 562 339 595 L339 595 Z " />
<glyph glyph-name="thorn" unicode="&#xfe;" horiz-adv-x="449" d="M432 198 C432 298 346 405 239 405 C202 405 174 391 152 367 L152 682 L22 682 L22 681 L79 681 L79 -285 L22 -285 L22 -286 L210 -286 L210 -285 L152 -285 L152 29 C174 5 202 -9 239 -9 C346 -9 432 92 432 198 L432 198 Z M358 198 C358 100 342 40 311 13 C292 -3 263 -8 239 -8 C203 -8 173 7 152 31 L152 365 C173 389 203 404 239 404 C263 404 292 399 311 383 C342 356 358 290 358 198 L358 198 Z " />
<glyph glyph-name="ydieresis" unicode="&#xff;" horiz-adv-x="464" d="M447 395 L447 396 L330 396 L330 395 L390 395 L271 74 L131 395 L187 395 L187 396 L5 396 L5 395 L53 395 L239 -12 L173 -223 C157 -272 137 -286 123 -286 C112 -286 107 -283 104 -271 C99 -249 114 -248 114 -227 C114 -209 101 -195 76 -195 C53 -195 34 -216 34 -245 C34 -278 63 -296 100 -296 C137 -296 157 -277 175 -221 L240 -13 L391 395 L447 395 Z M373 525 C373 547 357 565 336 565 C315 565 299 547 299 525 C299 504 315 486 336 486 C357 486 373 504 373 525 L373 525 Z M214 525 C214 547 197 565 177 565 C157 565 140 547 140 525 C140 504 157 486 177 486 C197 486 214 504 214 525 L214 525 Z " />
<glyph glyph-name="dotlessi" unicode="&#x131;" horiz-adv-x="233" d="M211 0 L211 1 L153 1 L153 396 L22 396 L22 395 L80 395 L80 1 L22 1 L22 0 L211 0 Z " />
<glyph glyph-name="Lslash" unicode="&#x141;" horiz-adv-x="530" d="M525 0 L525 196 L524 196 C524 101 478 1 335 1 L210 1 L210 394 L298 409 L298 410 L210 395 L210 659 L298 659 L298 660 L22 660 L22 659 L110 659 L110 377 L22 362 L22 361 L110 376 L110 1 L22 1 L22 0 L525 0 Z " />
<glyph glyph-name="lslash" unicode="&#x142;" horiz-adv-x="233" d="M250 406 L250 407 L153 390 L153 682 L22 682 L22 681 L80 681 L80 377 L-10 361 L-10 360 L80 376 L80 1 L22 1 L22 0 L211 0 L211 1 L153 1 L153 389 L250 406 Z " />
<glyph glyph-name="OE" unicode="&#x152;" horiz-adv-x="882" d="M860 0 L860 187 L859 187 C859 91 803 1 648 1 L518 1 L518 339 L570 339 C646 339 689 295 689 232 L690 232 L690 448 L689 448 C689 384 646 340 570 340 L518 340 L518 659 L645 659 C762 659 809 579 809 492 L810 492 L810 660 L328 660 C158 660 22 522 22 330 C22 138 158 0 328 0 L860 0 Z M418 1 L328 1 C278 1 240 11 208 39 C156 84 129 165 129 330 C129 495 156 576 208 621 C240 649 279 659 329 659 L418 659 L418 1 Z " />
<glyph glyph-name="oe" unicode="&#x153;" horiz-adv-x="700" d="M678 221 C678 293 631 405 515 405 C452 405 398 372 364 322 C329 372 273 405 209 405 C101 405 15 312 15 198 C15 84 101 -9 209 -9 C273 -9 329 24 364 74 C398 24 452 -9 515 -9 C580 -9 632 25 666 79 L665 79 C632 28 581 -8 515 -8 C491 -8 465 -2 446 14 C415 41 406 86 406 198 L406 221 L678 221 Z M604 222 L406 222 C406 303 418 359 446 383 C466 400 491 404 515 404 C536 404 555 399 571 383 C594 358 602 303 604 222 L604 222 Z M328 198 C328 100 312 41 281 14 C262 -2 239 -8 209 -8 C180 -8 156 -2 137 14 C106 41 90 100 90 198 C90 296 106 355 137 382 C156 398 180 404 209 404 C239 404 262 398 281 382 C312 355 328 296 328 198 L328 198 Z " />
<glyph glyph-name="Scaron" unicode="&#x160;" horiz-adv-x="479" d="M457 187 C457 301 381 344 259 387 C141 429 83 482 83 549 C83 612 143 674 215 674 C293 674 379 608 379 504 L380 504 L380 675 L379 675 C377 664 365 651 338 651 C298 651 264 675 215 675 C120 675 39 586 39 485 C39 375 108 328 197 296 C341 244 405 207 405 118 C405 57 340 -14 231 -14 C108 -14 23 116 23 190 L22 190 L22 -15 L23 -15 C27 3 49 24 76 24 C121 24 164 -15 231 -15 C379 -15 457 106 457 187 L457 187 Z M324 852 L323 853 L213 775 L103 853 L102 852 C161 792 188 746 212 709 L213 709 C238 746 265 792 324 852 L324 852 Z " />
<glyph glyph-name="scaron" unicode="&#x161;" horiz-adv-x="312" d="M296 122 C296 181 249 220 178 242 C111 263 74 288 74 337 C74 379 102 404 148 404 C194 404 246 369 246 303 L247 303 L247 409 C247 409 246 409 246 409 C246 400 238 392 225 392 C185 392 178 405 148 405 C91 405 40 359 40 286 C40 224 84 196 148 175 C213 153 254 129 254 77 C254 22 216 -8 165 -8 C92 -8 25 61 28 129 L27 129 L22 -1 L23 -1 C24 6 38 21 55 21 C90 21 114 -9 165 -9 C254 -9 296 46 296 122 L296 122 Z M259 602 L258 603 L148 525 L38 603 L37 602 C96 542 123 496 147 459 L148 459 C173 496 200 542 259 602 L259 602 Z " />
<glyph glyph-name="Ydieresis" unicode="&#x178;" horiz-adv-x="678" d="M656 659 L656 660 L468 660 L468 659 L567 659 L400 310 L223 659 L328 659 L328 660 L22 660 L22 659 L110 659 L301 288 L301 1 L213 1 L213 0 L489 0 L489 1 L401 1 L401 309 L568 659 L656 659 Z M503 775 C503 797 487 815 466 815 C445 815 429 797 429 775 C429 754 445 736 466 736 C487 736 503 754 503 775 L503 775 Z M344 775 C344 797 327 815 307 815 C287 815 270 797 270 775 C270 754 287 736 307 736 C327 736 344 754 344 775 L344 775 Z " />
<glyph glyph-name="Zcaron" unicode="&#x17d;" horiz-adv-x="515" d="M510 0 L510 212 L509 212 C509 105 441 1 317 1 L123 1 L510 660 L46 660 L46 458 L47 458 C47 566 110 659 234 659 L398 659 L10 0 L510 0 Z M384 852 L383 853 L273 775 L163 853 L162 852 C221 792 248 746 272 709 L273 709 C298 746 325 792 384 852 L384 852 Z " />
<glyph glyph-name="zcaron" unicode="&#x17e;" horiz-adv-x="372" d="M350 0 L350 128 L349 128 C349 56 308 1 211 1 L94 1 L348 396 L48 396 L48 281 L49 281 C49 363 85 395 175 395 L270 395 L16 0 L350 0 Z M290 602 L289 603 L179 525 L69 603 L68 602 C127 542 154 496 178 459 L179 459 C204 496 231 542 290 602 L290 602 Z " />
<glyph glyph-name="florin" unicode="&#x192;" horiz-adv-x="563" d="M557 616 C564 652 543 691 479 691 C403 691 318 605 287 432 L264 306 L171 306 L171 305 L264 305 L178 -168 C162 -257 134 -294 91 -294 C67 -294 49 -282 54 -255 C60 -228 78 -229 81 -207 C83 -194 78 -181 52 -181 C31 -181 11 -201 6 -225 C-1 -262 26 -295 86 -295 C171 -295 240 -230 277 -25 L337 305 L421 305 L421 306 L337 306 L365 464 C372 499 364 535 371 570 C385 638 430 690 478 690 C505 690 516 676 510 645 C505 618 485 621 481 597 C480 588 485 573 511 573 C538 573 553 591 557 616 L557 616 Z " />
<glyph glyph-name="circumflex" unicode="&#x2c6;" horiz-adv-x="266" d="M244 464 C181 530 162 566 133 608 L133 608 C104 566 85 530 22 464 L23 463 L133 540 L243 463 L244 464 Z " />
<glyph glyph-name="caron" unicode="&#x2c7;" horiz-adv-x="266" d="M244 602 L243 603 L133 525 L23 603 L22 602 C81 542 108 496 132 459 L133 459 C158 496 185 542 244 602 L244 602 Z " />
<glyph glyph-name="breve" unicode="&#x2d8;" horiz-adv-x="302" d="M280 619 L279 619 C279 569 248 518 151 518 C54 518 23 569 23 619 L22 619 C22 559 51 476 151 476 C251 476 280 559 280 619 L280 619 Z " />
<glyph glyph-name="dotaccent" unicode="&#x2d9;" horiz-adv-x="131" d="M109 570 C109 594 89 613 65 613 C41 613 22 594 22 570 C22 546 41 525 65 525 C89 525 109 546 109 570 L109 570 Z " />
<glyph glyph-name="ring" unicode="&#x2da;" horiz-adv-x="204" d="M174 548 C174 588 142 620 102 620 C62 620 30 588 30 548 C30 508 62 476 102 476 C142 476 174 508 174 548 L174 548 Z M173 548 C173 509 141 477 102 477 C63 477 31 509 31 548 C31 587 63 619 102 619 C141 619 173 587 173 548 L173 548 Z " />
<glyph glyph-name="ogonek" unicode="&#x2db;" horiz-adv-x="571" d="M185 -157 L184 -157 C171 -176 154 -183 139 -183 C113 -183 82 -169 82 -120 C82 -67 101 -30 153 -1 L152 0 C83 -35 40 -87 40 -129 C40 -170 65 -201 111 -201 C147 -201 169 -182 185 -157 L185 -157 Z " />
<glyph glyph-name="tilde" unicode="&#x2dc;" horiz-adv-x="368" d="M338 600 L337 600 C337 561 314 529 277 529 C235 529 190 589 128 589 C71 589 30 547 30 489 L31 489 C31 528 54 560 91 560 C131 560 177 499 239 499 C295 499 338 541 338 600 L338 600 Z " />
<glyph glyph-name="hungarumlaut" unicode="&#x2dd;" horiz-adv-x="388" d="M366 595 C366 610 355 622 338 622 C311 622 307 593 293 560 C278 525 252 485 174 470 L174 469 C308 495 366 562 366 595 L366 595 Z M214 595 C214 610 203 622 186 622 C159 622 155 593 141 560 C126 525 100 485 22 470 L22 469 C156 495 214 562 214 595 L214 595 Z " />
<glyph glyph-name="pi" unicode="&#x3c0;" horiz-adv-x="758" d="M736 330 C736 519 576 672 379 672 C182 672 22 519 22 330 C22 141 182 -12 379 -12 C576 -12 736 141 736 330 L736 330 Z M735 330 C735 142 575 -11 379 -11 C183 -11 23 142 23 330 C23 518 183 671 379 671 C575 671 735 518 735 330 L735 330 Z M553 402 C553 470 497 527 396 527 L231 527 L231 526 L284 526 L284 134 L231 134 L231 133 L396 133 L396 134 L344 134 L344 292 C361 287 379 285 403 285 C491 285 553 335 553 402 L553 402 Z M493 402 C493 322 455 286 402 286 C381 286 361 288 344 293 L344 526 L396 526 C449 526 493 483 493 402 L493 402 Z " />
<glyph glyph-name="endash" unicode="&#x2013;" horiz-adv-x="410" d="M410 230 L410 231 L0 231 L0 230 L410 230 Z " />
<glyph glyph-name="emdash" unicode="&#x2014;" horiz-adv-x="710" d="M710 230 L710 231 L0 231 L0 230 L710 230 Z " />
<glyph glyph-name="quoteleft" unicode="&#x2018;" horiz-adv-x="128" d="M110 671 L110 672 C63 658 22 581 22 541 C22 509 37 489 63 489 C85 489 103 508 103 531 C103 546 95 558 85 565 C68 577 57 593 57 608 C57 625 67 642 84 656 C92 662 102 669 110 671 L110 671 Z " />
<glyph glyph-name="quoteright" unicode="&#x2019;" horiz-adv-x="128" d="M106 620 C106 652 91 672 65 672 C43 672 25 653 25 630 C25 615 33 603 43 596 C60 583 71 568 71 553 C71 536 61 519 44 505 C36 499 26 492 18 490 L18 489 C65 503 106 580 106 620 L106 620 Z " />
<glyph glyph-name="quotesinglbase" unicode="&#x201a;" horiz-adv-x="128" d="M106 23 C106 55 91 76 65 76 C43 76 25 57 25 34 C25 18 33 6 43 0 C60 -13 71 -29 71 -44 C71 -61 61 -77 44 -92 C36 -98 26 -104 18 -106 L18 -107 C65 -93 106 -16 106 23 L106 23 Z " />
<glyph glyph-name="quotedblleft" unicode="&#x201c;" horiz-adv-x="244" d="M226 671 L225 672 C179 658 138 581 138 541 C138 509 153 489 179 489 C201 489 218 508 218 531 C218 546 211 558 201 565 C183 577 173 593 173 608 C173 625 183 642 200 656 C207 662 217 669 226 671 L226 671 Z M110 671 L110 672 C63 658 22 581 22 541 C22 509 37 489 63 489 C85 489 103 508 103 531 C103 546 95 558 85 565 C68 577 57 593 57 608 C57 625 67 642 84 656 C92 662 102 669 110 671 L110 671 Z " />
<glyph glyph-name="quotedblright" unicode="&#x201d;" horiz-adv-x="244" d="M222 620 C222 652 207 672 180 672 C159 672 141 653 141 630 C141 615 149 603 159 596 C176 583 186 568 186 553 C186 536 177 519 160 505 C152 499 142 492 134 490 L134 489 C180 503 222 580 222 620 L222 620 Z M106 620 C106 652 91 672 65 672 C43 672 25 653 25 630 C25 615 33 603 43 596 C60 583 71 568 71 553 C71 536 61 519 44 505 C36 499 26 492 18 490 L18 489 C65 503 106 580 106 620 L106 620 Z " />
<glyph glyph-name="quotedblbase" unicode="&#x201e;" horiz-adv-x="244" d="M222 23 C222 55 207 76 180 76 C159 76 141 57 141 34 C141 18 149 6 159 0 C176 -13 186 -29 186 -44 C186 -61 177 -77 160 -92 C152 -98 142 -104 134 -106 L134 -107 C180 -93 222 -16 222 23 L222 23 Z M106 23 C106 55 91 76 65 76 C43 76 25 57 25 34 C25 18 33 6 43 0 C60 -13 71 -29 71 -44 C71 -61 61 -77 44 -92 C36 -98 26 -104 18 -106 L18 -107 C65 -93 106 -16 106 23 L106 23 Z " />
<glyph glyph-name="dagger" unicode="&#x2020;" horiz-adv-x="462" d="M439 439 C439 460 424 468 400 468 C390 468 375 461 366 458 C336 447 316 443 293 441 C271 439 232 440 232 440 C232 440 231 499 233 519 C235 542 240 569 251 599 C256 613 260 624 260 633 C260 657 252 672 231 672 C210 672 203 657 203 633 C203 624 206 613 211 599 C222 569 227 542 229 519 C231 499 230 440 230 440 C230 440 191 439 169 441 C146 443 125 447 95 458 C86 461 71 468 61 468 C37 468 23 460 23 439 C23 418 37 411 61 411 C74 411 83 415 95 420 C125 431 146 435 169 437 C191 439 230 438 230 438 C230 438 230 368 228 339 C226 311 222 283 207 257 C210 242 220 177 225 139 C230 101 230 -143 230 -143 L232 -143 C232 -143 232 101 237 139 C242 177 252 242 255 257 C240 283 236 311 234 339 C232 368 232 438 232 438 C232 438 271 439 293 437 C316 435 336 431 366 420 C378 415 387 411 400 411 C424 411 439 418 439 439 L439 439 Z " />
<glyph glyph-name="daggerdbl" unicode="&#x2021;" horiz-adv-x="462" d="M439 -43 C439 -22 424 -15 400 -15 C387 -15 378 -19 366 -24 C336 -35 316 -39 293 -41 C271 -43 232 -42 232 -42 C232 -42 232 28 234 57 C236 85 240 113 255 139 C252 154 233 171 233 198 C233 225 252 242 255 257 C240 283 236 311 234 339 C232 368 232 438 232 438 C232 438 271 439 293 437 C316 435 336 431 366 420 C378 415 387 411 400 411 C424 411 439 418 439 439 C439 460 424 468 400 468 C390 468 375 461 366 458 C336 447 316 443 293 441 C271 439 232 440 232 440 C232 440 231 499 233 519 C235 542 240 569 251 599 C256 613 260 624 260 633 C260 657 252 672 231 672 C210 672 203 657 203 633 C203 624 206 613 211 599 C222 569 227 542 229 519 C231 499 230 440 230 440 C230 440 191 439 169 441 C146 443 125 447 95 458 C86 461 71 468 61 468 C37 468 23 460 23 439 C23 418 37 411 61 411 C74 411 83 415 95 420 C125 431 146 435 169 437 C191 439 230 438 230 438 C230 438 230 368 228 339 C226 311 222 283 207 257 C210 242 229 225 229 198 C229 171 210 154 207 139 C222 113 226 85 228 57 C230 28 230 -42 230 -42 C230 -42 191 -43 169 -41 C146 -39 125 -35 95 -24 C83 -19 74 -15 61 -15 C37 -15 23 -22 23 -43 C23 -64 37 -72 61 -72 C71 -72 86 -65 95 -62 C125 -51 146 -47 169 -45 C191 -43 230 -44 230 -44 C230 -44 231 -103 229 -123 C227 -146 222 -173 211 -203 C206 -217 203 -228 203 -237 C203 -261 210 -276 231 -276 C252 -276 260 -261 260 -237 C260 -228 256 -217 251 -203 C240 -173 235 -146 233 -123 C231 -103 232 -44 232 -44 C232 -44 271 -43 293 -45 C316 -47 336 -51 366 -62 C375 -65 390 -72 400 -72 C424 -72 439 -64 439 -43 L439 -43 Z " />
<glyph glyph-name="bullet" unicode="&#x2022;" horiz-adv-x="261" d="M221 309 C221 364 180 408 131 408 C82 408 40 364 40 309 C40 254 82 210 131 210 C180 210 221 254 221 309 L221 309 Z " />
<glyph glyph-name="ellipsis" unicode="&#x2026;" horiz-adv-x="486" d="M464 32 C464 56 446 76 423 76 C400 76 382 56 382 31 C382 7 400 -12 423 -12 C446 -12 464 7 464 32 L464 32 Z M284 32 C284 56 266 76 243 76 C220 76 202 56 202 31 C202 7 220 -12 243 -12 C266 -12 284 7 284 32 L284 32 Z M104 32 C104 56 86 76 63 76 C40 76 22 56 22 31 C22 7 40 -12 63 -12 C86 -12 104 7 104 32 L104 32 Z " />
<glyph glyph-name="perthousand" unicode="&#x2030;" horiz-adv-x="1017" d="M995 205 C995 278 948 322 884 322 C762 322 670 205 670 109 C670 35 717 -8 781 -8 C904 -8 995 109 995 205 L995 205 Z M940 255 C940 199 913 53 848 12 C827 -1 805 -7 781 -7 C740 -7 726 14 726 59 C726 114 753 261 817 301 C838 315 860 321 884 321 C926 321 940 300 940 255 L940 255 Z M624 205 C624 278 577 322 513 322 C391 322 298 205 298 109 C298 35 345 -8 410 -8 C533 -8 624 109 624 205 L624 205 Z M534 673 C534 676 535 677 532 676 L530 673 C464 557 367 546 340 589 C326 636 286 664 236 664 C113 664 22 546 22 450 C22 377 69 333 133 333 C255 333 346 450 346 546 C346 558 345 573 342 585 C359 557 436 544 511 640 L118 -22 L119 -24 L526 663 C526 663 534 671 534 673 L534 673 Z M291 597 C291 541 264 395 199 354 C179 341 157 334 133 334 C91 334 77 355 77 400 C77 456 104 602 169 643 C190 656 212 663 236 663 C277 663 291 641 291 597 L291 597 Z M568 255 C568 199 542 53 476 12 C455 -1 434 -7 410 -7 C368 -7 355 14 355 59 C355 114 381 261 446 301 C467 315 488 321 513 321 C555 321 568 300 568 255 L568 255 Z " />
<glyph glyph-name="guilsinglleft" unicode="&#x2039;" horiz-adv-x="180" d="M158 48 C158 111 112 174 84 200 C112 226 158 289 158 352 L157 352 C157 274 48 214 22 200 L22 200 C48 186 157 126 157 48 L158 48 Z " />
<glyph glyph-name="guilsinglright" unicode="&#x203a;" horiz-adv-x="180" d="M158 200 L158 200 C132 214 23 274 23 352 L22 352 C22 289 68 226 96 200 C68 174 22 111 22 48 L23 48 C23 126 132 186 158 200 L158 200 Z " />
<glyph glyph-name="fraction" unicode="&#x2044;" horiz-adv-x="414" d="M409 684 L407 685 L5 -12 L6 -13 L409 684 Z " />
<glyph glyph-name="trademark" unicode="&#x2122;" horiz-adv-x="582" d="M560 396 L560 397 L525 397 L525 659 L560 659 L560 660 L486 660 L416 452 L337 660 L260 660 L260 659 L295 659 L295 397 L260 397 L260 396 L333 396 L333 397 L296 397 L296 659 L395 388 L395 388 L485 656 L485 397 L450 397 L450 396 L560 396 Z M237 582 L237 660 L22 660 L22 582 L23 582 C23 625 43 659 98 659 L110 659 L110 397 L74 397 L74 396 L185 396 L185 397 L150 397 L150 659 L162 659 C216 659 236 625 236 582 L237 582 Z " />
<glyph glyph-name="minus" unicode="&#x2212;" horiz-adv-x="324" d="M302 256 L302 257 L22 257 L22 256 L302 256 Z " />
<glyph glyph-name="notequal" unicode="&#x2260;" horiz-adv-x="342" d="M320 170 L320 171 L154 171 L192 310 L320 310 L320 311 L192 311 L225 436 L224 436 L191 311 L22 311 L22 310 L191 310 L153 171 L22 171 L22 170 L153 170 L118 37 L119 37 L154 170 L320 170 Z " />
<glyph glyph-name="lessequal" unicode="&#x2264;" horiz-adv-x="342" d="M273 110 L61 258 L273 406 L272 407 L59 258 L272 109 L273 110 Z M320 76 L320 77 L22 77 L22 76 L320 76 Z " />
<glyph glyph-name="greaterequal" unicode="&#x2265;" horiz-adv-x="342" d="M283 258 L70 407 L69 406 L281 258 L69 110 L70 109 L283 258 Z M320 76 L320 77 L22 77 L22 76 L320 76 Z " />
<glyph glyph-name="fi" unicode="&#xfb01;" horiz-adv-x="457" d="M435 0 L435 1 L377 1 L377 396 L148 396 L148 476 C148 513 146 543 146 563 C146 652 196 689 255 689 C275 689 309 691 309 628 C309 599 293 598 293 574 C293 552 308 534 340 534 C368 534 388 560 388 586 C388 679 297 690 255 690 C163 690 75 621 75 417 L75 396 L5 396 L5 395 L75 395 L75 1 L18 1 L18 0 L205 0 L205 1 L148 1 L148 395 L304 395 L304 1 L246 1 L246 0 L435 0 Z " />
<glyph glyph-name="fl" unicode="&#xfb02;" horiz-adv-x="457" d="M435 0 L435 1 L377 1 L377 682 L376 682 L305 668 C305 668 282 690 245 690 C153 690 75 627 75 417 L75 396 L5 396 L5 395 L75 395 L75 1 L18 1 L18 0 L205 0 L205 1 L148 1 L148 395 L241 395 L241 396 L148 396 L148 476 C148 513 141 543 141 563 C141 652 188 689 245 689 C280 689 304 667 304 667 L304 1 L246 1 L246 0 L435 0 Z " />
</font>
</svg>
