<?xml version="1.0" encoding="UTF-8"?>
<svg xmlns="http://www.w3.org/2000/svg" xmlns:xlink="http://www.w3.org/1999/xlink" version="1.2" >
<font id="BaronDidot-Thin">
<font-face  font-family="BaronDidot" units-per-em="1000" ascent="705.811" descent="-293.945" font-style="normal" font-weight="100" font-stretch="normal" cap-height="750" x-height="500" underline-position="-44" underline-thickness="12" />
<missing-glyph  horiz-adv-x="1000" d="" />
<glyph glyph-name="NULL" d="" />
<glyph glyph-name="CR" unicode="&#xd;" horiz-adv-x="250" d="" />
<glyph glyph-name="space" unicode="&#x20;" horiz-adv-x="244" d="" />
<glyph glyph-name="exclam" unicode="&#x21;" horiz-adv-x="154" d="M130 598 C130 655 109 672 77 672 C45 672 24 655 24 598 C24 523 71 355 71 166 L83 166 C83 355 130 523 130 598 L130 598 Z M122 35 C122 61 102 82 77 82 C52 82 32 61 32 35 C32 8 52 -12 77 -12 C102 -12 122 8 122 35 L122 35 Z " />
<glyph glyph-name="quotedbl" unicode="&#x22;" horiz-adv-x="245" d="M221 624 C221 656 203 672 184 672 C164 672 147 656 147 624 C147 607 157 586 162 570 C170 545 179 513 179 458 L189 458 C189 513 197 545 205 570 C210 586 221 607 221 624 L221 624 Z M98 624 C98 656 81 672 61 672 C41 672 24 656 24 624 C24 607 35 586 40 570 C48 545 56 513 56 458 L66 458 C66 513 75 545 82 570 C88 586 98 607 98 624 L98 624 Z " />
<glyph glyph-name="numbersign" unicode="&#x23;" horiz-adv-x="565" d="M551 431 L417 431 L459 660 L446 660 L404 431 L209 431 L251 660 L238 660 L196 431 L53 431 L50 419 L194 419 L160 231 L16 231 L14 219 L158 219 L119 0 L132 0 L171 219 L366 219 L326 0 L339 0 L379 219 L512 219 L514 231 L381 231 L415 419 L548 419 L551 431 Z M402 419 L368 231 L173 231 L207 419 L402 419 Z " />
<glyph glyph-name="dollar" unicode="&#x24;" horiz-adv-x="463" d="M439 193 C439 297 379 342 275 383 L275 652 C328 639 350 609 350 586 C350 551 313 556 313 514 C313 483 333 463 361 463 C386 463 417 484 417 523 C417 561 388 646 275 666 L275 748 L262 748 L262 668 C249 669 238 671 225 671 C212 671 199 670 187 667 L187 748 L174 748 L174 664 C75 639 41 539 41 480 C41 380 95 331 174 299 L174 7 C126 18 100 40 100 63 C100 94 129 96 129 131 C129 159 105 183 77 183 C52 183 24 163 24 121 C24 65 86 9 174 -6 L174 -88 L187 -88 L187 -8 C199 -9 213 -10 223 -10 C237 -10 249 -9 262 -7 L262 -88 L275 -88 L275 -5 C397 20 439 129 439 193 L439 193 Z M262 388 C237 397 209 407 187 418 L187 655 C199 657 212 658 225 658 C238 658 250 657 262 655 L262 388 Z M174 424 C112 456 85 488 85 537 C85 567 102 630 174 652 L174 424 Z M388 130 C388 86 357 26 275 7 L275 260 C354 227 388 198 388 130 L388 130 Z M262 5 C249 3 237 2 223 2 C212 2 199 3 187 5 L187 294 C215 284 240 274 262 265 L262 5 Z " />
<glyph glyph-name="percent" unicode="&#x25;" horiz-adv-x="645" d="M620 204 C620 277 575 320 514 320 C395 320 306 203 306 107 C306 34 352 -9 413 -9 C531 -9 620 108 620 204 L620 204 Z M532 672 C532 678 525 682 519 681 L509 666 C467 597 378 548 333 593 C319 641 280 667 232 667 C113 667 24 551 24 455 C24 382 70 339 131 339 C249 339 338 456 338 552 C338 560 337 570 336 577 C367 549 439 564 480 615 L115 -15 L125 -22 L516 649 C516 649 533 662 532 672 L532 672 Z M281 589 C281 532 257 410 196 368 C177 355 157 351 134 351 C94 351 81 372 81 417 C81 474 105 595 166 637 C186 650 206 655 228 655 C267 655 281 634 281 589 L281 589 Z M563 241 C563 185 539 63 479 22 C460 9 439 4 417 4 C377 4 364 24 364 70 C364 126 388 249 449 290 C468 303 488 307 510 307 C550 307 563 287 563 241 L563 241 Z " />
<glyph glyph-name="ampersand" unicode="&#x26;" horiz-adv-x="661" d="M656 57 L645 64 C633 41 608 22 579 22 C537 22 502 54 479 88 C522 134 554 203 556 283 C557 323 556 354 600 354 L643 354 L643 366 L446 366 L446 354 L489 354 C535 354 545 324 544 283 C542 215 517 149 473 98 C399 207 316 335 276 454 C350 494 390 547 390 593 C390 641 369 675 304 675 C227 675 168 611 168 501 C168 474 174 442 185 410 C74 343 24 266 24 175 C24 60 118 -15 238 -15 C302 -15 351 -5 408 29 C440 0 474 -15 525 -15 C591 -15 636 11 656 57 L656 57 Z M376 593 C376 547 338 502 272 466 C258 508 255 543 255 572 C255 643 289 660 319 660 C358 660 376 629 376 593 L376 593 Z M399 40 C370 27 352 21 316 21 C193 21 109 119 109 250 C109 314 140 366 188 399 C213 328 282 199 342 110 C362 80 382 56 399 40 L399 40 Z " />
<glyph glyph-name="quotesingle" unicode="&#x27;" horiz-adv-x="122" d="M98 624 C98 656 81 672 61 672 C41 672 24 656 24 624 C24 607 35 586 40 570 C48 545 56 513 56 458 L66 458 C66 513 75 545 82 570 C88 586 98 607 98 624 L98 624 Z " />
<glyph glyph-name="parenleft" unicode="&#x28;" horiz-adv-x="266" d="M254 -223 C126 -105 98 5 98 227 C98 449 126 559 254 677 L246 686 C107 579 24 424 24 227 C24 30 107 -125 246 -231 L254 -223 Z " />
<glyph glyph-name="parenright" unicode="&#x29;" horiz-adv-x="266" d="M247 227 C247 424 164 579 26 686 L17 677 C145 559 173 449 173 227 C173 5 145 -105 17 -223 L26 -231 C164 -125 247 30 247 227 L247 227 Z " />
<glyph glyph-name="asterisk" unicode="&#x2a;" horiz-adv-x="250" d="M224 500 C231 511 226 529 214 536 C197 546 164 544 134 557 C164 571 197 570 214 579 C224 586 232 603 224 616 C218 626 200 630 188 623 C168 612 156 585 130 566 C132 599 151 626 151 645 C151 658 138 672 124 672 C112 672 99 660 99 645 C99 626 117 598 120 566 C94 585 79 614 63 623 C52 629 34 627 26 615 C20 604 24 586 37 579 C56 569 85 571 114 557 C85 544 56 547 37 536 C24 529 20 511 26 501 C33 490 50 486 63 492 C82 503 94 530 120 549 C117 516 99 490 99 470 C99 456 112 443 124 443 C137 443 151 456 151 470 C151 493 133 517 130 549 C156 530 168 503 188 492 C200 486 218 489 224 500 L224 500 Z " />
<glyph glyph-name="plus" unicode="&#x2b;" horiz-adv-x="381" d="M356 244 L356 257 L197 257 L197 413 L184 413 L184 257 L24 257 L24 244 L184 244 L184 88 L197 88 L197 244 L356 244 Z " />
<glyph glyph-name="comma" unicode="&#x2c;" horiz-adv-x="140" d="M116 24 C116 59 100 82 70 82 C49 82 30 60 30 36 C30 18 35 7 45 0 C64 -14 74 -29 74 -47 C74 -65 63 -81 44 -97 C37 -102 28 -106 19 -110 L26 -120 C83 -100 116 -23 116 24 L116 24 Z " />
<glyph glyph-name="hyphen" unicode="&#x2d;" horiz-adv-x="267" d="M243 266 L33 266 L24 220 L233 220 L243 266 Z " />
<glyph glyph-name="period" unicode="&#x2e;" horiz-adv-x="138" d="M114 35 C114 61 94 82 69 82 C44 82 24 61 24 35 C24 8 44 -12 69 -12 C94 -12 114 8 114 35 L114 35 Z " />
<glyph glyph-name="slash" unicode="&#x2f;" horiz-adv-x="396" d="M391 682 L378 682 L5 -22 L18 -22 L391 682 Z " />
<glyph glyph-name="zero" unicode="0" horiz-adv-x="519" d="M500 330 C500 519 389 669 259 669 C130 669 18 519 18 330 C18 141 130 -9 259 -9 C389 -9 500 141 500 330 L500 330 Z M415 330 C415 161 400 91 353 42 C329 17 294 3 259 3 C224 3 190 17 166 42 C119 91 104 161 104 330 C104 489 119 569 166 618 C190 643 224 657 259 657 C294 657 329 643 353 618 C400 569 415 489 415 330 L415 330 Z " />
<glyph glyph-name="one" unicode="1" horiz-adv-x="261" d="M246 0 L246 12 L178 12 L178 670 C121 632 25 607 15 605 L15 593 C38 597 99 617 99 603 L99 12 L31 12 L31 0 L246 0 Z " />
<glyph glyph-name="two" unicode="2" horiz-adv-x="432" d="M413 108 L403 106 C404 89 405 50 366 45 C320 40 254 101 174 103 C100 105 64 72 40 30 C73 156 133 220 218 278 C296 332 390 370 390 488 C390 587 331 668 196 668 C73 668 36 577 36 521 C36 495 51 465 83 465 C111 465 133 480 133 509 C133 553 87 545 87 578 C87 638 146 656 193 656 C282 656 299 573 299 497 C299 411 235 361 178 302 C116 238 46 152 15 -13 C14 -19 24 -24 31 -19 C38 -15 33 -9 36 2 C42 21 62 34 99 34 C180 34 237 -9 312 -9 C393 -9 419 53 413 108 L413 108 Z " />
<glyph glyph-name="three" unicode="3" horiz-adv-x="392" d="M373 193 C373 290 314 374 192 374 C189 374 169 373 165 371 C214 388 331 456 331 534 C331 631 250 669 156 669 C66 669 28 617 28 585 C28 562 38 544 66 544 C94 544 106 559 106 576 C106 590 99 596 99 611 C99 638 117 657 156 657 C208 657 246 639 246 544 C246 444 200 400 95 340 C93 339 101 327 102 329 C105 332 142 359 175 359 C233 359 286 338 286 184 C286 30 224 3 148 3 C109 3 80 14 80 58 C80 73 88 81 88 94 C88 110 75 128 46 128 C16 128 7 106 7 85 C7 43 54 -9 148 -9 C249 -9 373 57 373 193 L373 193 Z " />
<glyph glyph-name="four" unicode="4" horiz-adv-x="444" d="M437 259 L437 271 L329 271 L329 451 L316 451 C302 412 268 390 250 387 L250 271 L26 271 L375 724 L365 730 C335 699 280 665 235 674 L72 371 C44 320 19 277 7 259 L250 259 L250 0 L329 0 L329 259 L437 259 Z " />
<glyph glyph-name="five" unicode="5" horiz-adv-x="379" d="M361 208 C361 317 311 410 193 410 C127 410 101 389 83 356 L83 633 C107 610 164 593 216 593 C277 593 324 621 324 657 C324 679 311 691 289 691 C247 691 231 638 156 638 C120 638 85 645 68 664 L66 659 C66 659 69 656 70 651 L70 332 C70 321 66 311 66 304 C66 296 70 293 73 293 C78 293 83 297 83 302 C83 313 80 317 81 328 C94 377 131 393 171 393 C246 393 276 333 276 205 C276 33 224 2 149 2 C109 2 80 13 80 57 C80 72 88 80 88 92 C88 108 76 126 46 126 C17 126 7 105 7 84 C7 41 54 -10 149 -10 C249 -10 361 65 361 208 L361 208 Z " />
<glyph glyph-name="six" unicode="6" horiz-adv-x="439" d="M421 184 C421 291 334 374 220 374 C176 374 125 347 102 303 C108 478 153 657 254 657 C283 657 299 638 299 612 C299 596 291 589 291 575 C291 560 303 542 331 542 C362 542 371 563 371 585 C371 617 336 669 254 669 C109 669 18 474 18 275 C18 78 103 -9 220 -9 C331 -9 421 77 421 184 L421 184 Z M336 183 C336 90 324 49 291 24 C270 7 248 3 220 3 C192 3 172 7 151 25 C120 51 103 95 103 182 L103 261 C103 307 154 362 220 362 C248 362 270 357 291 341 C324 316 336 272 336 183 L336 183 Z " />
<glyph glyph-name="seven" unicode="7" horiz-adv-x="370" d="M363 660 L17 660 L17 516 L26 516 L26 595 L318 595 L20 -19 L110 1 L298 508 C323 574 343 620 363 660 L363 660 Z " />
<glyph glyph-name="eight" unicode="8" horiz-adv-x="445" d="M427 173 C427 256 361 317 267 377 C341 402 397 458 397 525 C397 617 318 669 224 669 C112 669 59 574 59 505 C59 430 107 392 163 350 C84 314 18 253 18 168 C18 67 110 -9 221 -9 C352 -9 427 89 427 173 L427 173 Z M336 524 C336 451 313 411 257 384 C189 427 113 466 113 558 C113 609 151 657 224 657 C288 657 336 622 336 524 L336 524 Z M368 127 C368 46 292 3 221 3 C139 3 86 53 86 170 C86 260 116 306 172 343 C249 286 368 230 368 127 L368 127 Z " />
<glyph glyph-name="nine" unicode="9" horiz-adv-x="437" d="M419 384 C419 584 334 669 216 669 C103 669 18 580 18 471 C18 348 103 269 216 269 C257 269 309 291 333 334 C327 161 282 3 180 3 C150 3 134 23 134 49 C134 66 142 75 142 89 C142 105 129 123 101 123 C72 123 60 99 60 77 C60 45 97 -9 180 -9 C329 -9 419 185 419 384 L419 384 Z M333 375 C331 327 279 281 216 281 C187 281 167 286 145 302 C111 329 100 380 100 471 C100 566 111 610 145 635 C167 652 188 657 216 657 C245 657 264 652 285 634 C317 607 335 560 335 472 C335 460 335 377 333 375 L333 375 Z " />
<glyph glyph-name="colon" unicode="&#x3a;" horiz-adv-x="138" d="M114 319 C114 346 94 367 69 367 C44 367 24 346 24 319 C24 293 44 273 69 273 C94 273 114 293 114 319 L114 319 Z M114 35 C114 61 94 82 69 82 C44 82 24 61 24 35 C24 8 44 -12 69 -12 C94 -12 114 8 114 35 L114 35 Z " />
<glyph glyph-name="semicolon" unicode="&#x3b;" horiz-adv-x="140" d="M116 319 C116 346 95 367 70 367 C45 367 25 346 25 319 C25 293 45 273 70 273 C95 273 116 293 116 319 L116 319 Z M116 24 C116 59 100 82 70 82 C49 82 30 60 30 36 C30 18 35 7 45 0 C64 -14 74 -29 74 -47 C74 -65 63 -81 44 -97 C37 -102 28 -106 19 -110 L26 -120 C83 -100 116 -23 116 24 L116 24 Z " />
<glyph glyph-name="less" unicode="&#x3c;" horiz-adv-x="279" d="M255 101 L45 248 L255 395 L248 405 L24 248 L248 91 L255 101 Z " />
<glyph glyph-name="equal" unicode="&#x3d;" horiz-adv-x="360" d="M336 302 L336 314 L24 314 L24 302 L336 302 Z M336 167 L336 179 L24 179 L24 167 L336 167 Z " />
<glyph glyph-name="greater" unicode="&#x3e;" horiz-adv-x="279" d="M255 248 L31 405 L24 395 L234 248 L24 101 L31 91 L255 248 Z " />
<glyph glyph-name="question" unicode="&#x3f;" horiz-adv-x="389" d="M365 480 C365 594 282 672 157 672 C63 672 7 605 7 551 C7 516 26 501 55 501 C85 501 102 518 102 540 C102 567 86 568 86 597 C86 635 109 660 157 660 C183 660 207 655 226 640 C259 614 272 571 272 479 C272 355 265 330 246 313 C236 304 216 293 191 293 C163 293 133 304 115 327 C114 326 116 323 117 322 L117 166 L129 166 L129 300 C149 286 175 281 192 281 C285 281 365 364 365 480 L365 480 Z M168 35 C168 61 148 82 123 82 C97 82 77 61 77 35 C77 8 97 -12 123 -12 C148 -12 168 8 168 35 L168 35 Z " />
<glyph glyph-name="at" unicode="&#x40;" horiz-adv-x="690" d="M673 379 C673 571 532 675 364 675 C180 675 31 522 31 330 C31 139 180 -15 364 -15 C443 -15 515 13 572 60 L565 69 C510 23 441 -3 364 -3 C188 -3 44 148 44 330 C44 513 188 663 364 663 C525 663 660 566 660 379 C660 256 551 178 476 178 C420 178 433 233 466 341 L509 487 L454 487 L442 447 C436 480 405 495 379 495 C269 495 179 384 179 287 C179 223 201 165 273 165 C315 165 368 195 390 245 C374 198 399 162 461 162 C548 162 673 235 673 379 L673 379 Z M432 422 L401 309 C386 258 345 179 278 179 C246 179 228 202 228 239 C228 301 262 413 315 457 C335 475 353 483 377 483 C418 483 441 453 432 422 L432 422 Z " />
<glyph glyph-name="A" unicode="A" horiz-adv-x="665" d="M660 0 L660 12 L578 12 L335 678 L325 678 L84 12 L5 12 L5 0 L190 0 L190 12 L98 12 L172 217 L394 217 L468 12 L377 12 L377 0 L660 0 Z M390 229 L177 229 L283 525 L390 229 Z " />
<glyph glyph-name="B" unicode="B" horiz-adv-x="556" d="M536 175 C536 284 437 353 317 353 C392 353 489 410 489 507 C489 609 390 660 283 660 L19 660 L19 648 L105 648 L105 12 L19 12 L19 0 L325 0 C465 0 536 87 536 175 L536 175 Z M389 507 C389 402 364 358 286 358 L209 358 L209 648 L270 648 C353 648 389 617 389 507 L389 507 Z M432 175 C432 46 378 12 296 12 L209 12 L209 346 L281 346 C363 346 432 325 432 175 L432 175 Z " />
<glyph glyph-name="C" unicode="C" horiz-adv-x="548" d="M528 -14 L528 211 L516 211 C516 92 432 -3 311 -3 C267 -3 229 5 197 35 C152 77 124 172 124 330 C124 488 152 583 197 625 C229 655 267 663 311 663 C401 663 500 586 500 470 L512 470 L512 673 L500 673 C498 661 479 649 459 649 C412 649 371 675 311 675 C140 675 15 519 15 330 C15 141 140 -15 311 -15 C390 -15 433 16 470 16 C496 16 514 -1 516 -14 L528 -14 Z " />
<glyph glyph-name="D" unicode="D" horiz-adv-x="627" d="M606 330 C606 518 481 660 310 660 L19 660 L19 648 L105 648 L105 12 L19 12 L19 0 L310 0 C481 0 606 142 606 330 L606 330 Z M497 330 C497 182 471 89 423 47 C392 20 351 12 310 12 L209 12 L209 648 L310 648 C351 648 392 640 423 613 C471 571 497 468 497 330 L497 330 Z " />
<glyph glyph-name="E" unicode="E" horiz-adv-x="543" d="M538 0 L538 197 L526 197 C525 71 447 12 319 12 L209 12 L209 335 L243 335 C319 335 362 291 362 225 L374 225 L374 456 L362 456 C362 390 319 347 243 347 L209 347 L209 648 L315 648 C431 648 478 578 478 486 L491 486 L491 660 L19 660 L19 648 L105 648 L105 12 L19 12 L19 0 L538 0 Z " />
<glyph glyph-name="F" unicode="F" horiz-adv-x="494" d="M490 486 L490 660 L18 660 L18 648 L104 648 L104 12 L18 12 L18 0 L295 0 L295 12 L209 12 L209 335 L242 335 C318 335 360 291 361 225 L373 225 L373 456 L361 456 C360 390 318 347 242 347 L209 347 L209 648 L314 648 C430 648 477 578 478 486 L490 486 Z " />
<glyph glyph-name="G" unicode="G" horiz-adv-x="629" d="M624 255 L624 267 L353 267 L353 255 L440 255 L440 88 C440 71 429 -3 313 -3 C272 -3 232 5 200 35 C154 76 132 168 132 330 C132 488 159 583 204 625 C237 655 274 663 318 663 C430 663 486 586 487 480 L499 480 L499 674 L487 674 C485 662 475 651 449 651 C410 651 392 675 318 675 C148 675 22 519 22 330 C22 145 139 -15 313 -15 C408 -15 438 27 484 27 C513 27 530 5 532 -8 L544 -8 L544 255 L624 255 Z " />
<glyph glyph-name="H" unicode="H" horiz-adv-x="692" d="M668 0 L668 12 L581 12 L581 648 L668 648 L668 660 L401 660 L401 648 L477 648 L477 348 L215 348 L215 648 L291 648 L291 660 L24 660 L24 648 L111 648 L111 12 L24 12 L24 0 L291 0 L291 12 L215 12 L215 336 L477 336 L477 12 L401 12 L401 0 L668 0 Z " />
<glyph glyph-name="I" unicode="I" horiz-adv-x="326" d="M301 0 L301 12 L215 12 L215 648 L301 648 L301 660 L24 660 L24 648 L111 648 L111 12 L24 12 L24 0 L301 0 Z " />
<glyph glyph-name="J" unicode="J" horiz-adv-x="437" d="M423 648 L423 660 L146 660 L146 648 L232 648 L232 75 C232 28 209 -3 155 -3 C121 -3 91 19 91 52 C91 92 132 77 132 129 C132 162 104 186 71 186 C39 186 5 164 5 113 C5 51 61 -15 155 -15 C278 -15 336 53 336 154 L336 648 L423 648 Z " />
<glyph glyph-name="K" unicode="K" horiz-adv-x="683" d="M664 0 L664 12 L577 12 L287 400 L496 648 L581 648 L581 660 L389 660 L389 648 L480 648 L215 337 L215 648 L301 648 L301 660 L24 660 L24 648 L111 648 L111 12 L24 12 L24 0 L301 0 L301 12 L215 12 L215 327 L450 12 L364 12 L364 0 L664 0 Z " />
<glyph glyph-name="L" unicode="L" horiz-adv-x="525" d="M520 0 L520 207 L507 207 C506 101 455 12 323 12 L215 12 L215 648 L301 648 L301 660 L24 660 L24 648 L111 648 L111 12 L24 12 L24 0 L520 0 Z " />
<glyph glyph-name="M" unicode="M" horiz-adv-x="808" d="M784 0 L784 12 L697 12 L697 648 L784 648 L784 660 L591 660 L416 141 L219 660 L24 660 L24 648 L108 648 L108 12 L24 12 L24 0 L208 0 L208 12 L120 12 L120 635 L363 -14 L377 -14 L593 625 L593 12 L506 12 L506 0 L784 0 Z " />
<glyph glyph-name="N" unicode="N" horiz-adv-x="658" d="M641 648 L641 660 L459 660 L459 648 L545 648 L545 177 L232 660 L24 660 L24 648 L108 648 L108 12 L24 12 L24 0 L211 0 L211 12 L120 12 L120 645 L545 -14 L557 -14 L557 648 L641 648 Z " />
<glyph glyph-name="O" unicode="O" horiz-adv-x="628" d="M610 330 C610 519 485 675 314 675 C143 675 18 519 18 330 C18 141 143 -15 314 -15 C485 -15 610 141 610 330 L610 330 Z M501 330 C501 172 473 77 428 35 C396 5 358 -3 314 -3 C270 -3 232 5 200 35 C155 77 127 172 127 330 C127 488 155 583 200 625 C232 655 270 663 314 663 C358 663 396 655 428 625 C473 583 501 488 501 330 L501 330 Z " />
<glyph glyph-name="P" unicode="P" horiz-adv-x="569" d="M547 456 C547 571 451 660 299 660 L24 660 L24 648 L111 648 L111 12 L24 12 L24 0 L301 0 L301 12 L215 12 L215 270 C224 268 266 263 307 263 C408 263 547 311 547 456 L547 456 Z M443 456 C443 325 394 275 306 275 C266 275 224 280 215 283 L215 648 L292 648 C389 648 443 587 443 456 L443 456 Z " />
<glyph glyph-name="Q" unicode="Q" horiz-adv-x="635" d="M613 330 C613 519 488 675 318 675 C147 675 22 519 22 330 C22 141 147 -14 318 -14 C326 -14 349 -14 369 -7 C330 -24 251 -58 201 -79 C188 -82 172 -90 172 -100 C172 -108 181 -110 187 -108 C197 -104 203 -90 218 -90 C350 -90 250 -239 593 -239 L593 -227 C414 -227 497 -64 221 -82 C276 -60 376 -16 421 8 C524 46 613 170 613 330 L613 330 Z M504 330 C504 172 476 77 431 36 C399 6 361 -2 318 -2 C274 -2 236 6 204 36 C159 77 131 172 131 330 C131 488 159 583 204 625 C236 655 274 663 318 663 C361 663 399 655 431 625 C476 583 504 488 504 330 L504 330 Z " />
<glyph glyph-name="R" unicode="R" horiz-adv-x="663" d="M658 13 L651 23 C638 11 625 1 601 1 C569 1 547 30 547 78 L547 171 C547 264 468 342 338 342 C421 342 522 405 522 500 C522 600 425 660 302 660 L24 660 L24 648 L111 648 L111 12 L24 12 L24 0 L310 0 L310 12 L215 12 L215 336 L302 336 C381 336 442 306 442 228 L442 148 C442 65 483 -15 577 -15 C620 -15 647 0 658 13 L658 13 Z M418 500 C418 381 383 348 305 348 L215 348 L215 648 L287 648 C368 648 418 609 418 499 L418 500 Z " />
<glyph glyph-name="S" unicode="S" horiz-adv-x="471" d="M447 190 C447 305 374 349 254 392 C140 433 85 472 85 539 C85 606 138 663 213 663 C290 663 360 606 361 512 L373 512 L373 674 L361 674 C359 662 343 654 327 654 C291 654 268 675 213 675 C117 675 40 589 40 482 C40 372 107 325 193 291 C302 249 396 228 396 127 C396 65 340 -3 234 -3 C111 -3 37 117 36 193 L24 193 L24 -14 L36 -14 C38 3 53 25 82 25 C120 25 155 -15 234 -15 C378 -15 447 105 447 190 L447 190 Z " />
<glyph glyph-name="T" unicode="T" horiz-adv-x="557" d="M545 450 L545 660 L12 660 L12 450 L24 450 C25 559 72 648 207 648 L226 648 L226 12 L140 12 L140 0 L417 0 L417 12 L331 12 L331 648 L350 648 C484 648 532 559 533 450 L545 450 Z " />
<glyph glyph-name="U" unicode="U" horiz-adv-x="655" d="M638 648 L638 660 L455 660 L455 648 L542 648 L542 189 C542 82 481 4 365 4 C254 4 205 62 205 188 L205 648 L292 648 L292 660 L17 660 L17 648 L101 648 L101 188 C101 55 195 -15 334 -15 C490 -15 554 65 554 189 L554 648 L638 648 Z " />
<glyph glyph-name="V" unicode="V" horiz-adv-x="712" d="M701 648 L701 660 L512 660 L512 648 L603 648 L423 128 L203 648 L296 648 L296 660 L12 660 L12 648 L96 648 L375 -14 L389 -14 L617 648 L701 648 Z " />
<glyph glyph-name="W" unicode="W" horiz-adv-x="1037" d="M1025 648 L1025 660 L839 660 L839 648 L929 648 L762 138 L582 648 L674 648 L674 660 L393 660 L393 648 L473 648 L525 503 L405 131 L206 648 L294 648 L294 660 L12 660 L12 648 L96 648 L350 -14 L370 -14 L532 482 L708 -14 L725 -14 L941 648 L1025 648 Z " />
<glyph glyph-name="X" unicode="X" horiz-adv-x="686" d="M662 0 L662 12 L571 12 L366 390 L522 648 L609 648 L609 660 L417 660 L417 648 L508 648 L359 404 L227 648 L318 648 L318 660 L24 660 L24 648 L111 648 L298 303 L122 12 L36 12 L36 0 L228 0 L228 12 L137 12 L305 290 L455 12 L365 12 L365 0 L662 0 Z " />
<glyph glyph-name="Y" unicode="Y" horiz-adv-x="646" d="M629 648 L629 660 L440 660 L440 648 L530 648 L380 316 L216 648 L308 648 L308 660 L17 660 L17 648 L101 648 L280 287 L280 12 L194 12 L194 0 L471 0 L471 12 L384 12 L384 293 L545 648 L629 648 Z " />
<glyph glyph-name="Z" unicode="Z" horiz-adv-x="510" d="M491 0 L491 212 L479 212 C479 102 421 12 294 12 L126 12 L491 660 L40 660 L40 455 L53 455 C53 565 110 648 229 648 L373 648 L7 0 L491 0 Z " />
<glyph glyph-name="bracketleft" unicode="&#x5b;" horiz-adv-x="207" d="M195 -230 L195 -218 L98 -218 L98 670 L195 670 L195 682 L24 682 L24 -230 L195 -230 Z " />
<glyph glyph-name="backslash" unicode="&#x5c;" horiz-adv-x="396" d="M391 -22 L18 682 L5 682 L378 -22 L391 -22 Z " />
<glyph glyph-name="bracketright" unicode="&#x5d;" horiz-adv-x="207" d="M182 -230 L182 682 L12 682 L12 670 L108 670 L108 -218 L12 -218 L12 -230 L182 -230 Z " />
<glyph glyph-name="asciicircum" unicode="&#x5e;" horiz-adv-x="309" d="M285 330 L161 638 L148 638 L24 330 L36 330 L155 624 L273 330 L285 330 Z " />
<glyph glyph-name="underscore" unicode="&#x5f;" horiz-adv-x="464" d="M464 -62 L464 -50 L0 -50 L0 -62 L464 -62 Z " />
<glyph glyph-name="grave" unicode="&#x60;" horiz-adv-x="259" d="M235 458 L235 470 C162 486 131 524 110 559 C96 582 83 621 55 621 C36 621 24 608 24 593 C24 557 66 495 235 458 L235 458 Z " />
<glyph glyph-name="a" unicode="a" horiz-adv-x="411" d="M403 31 L395 36 C387 19 376 9 363 9 C349 9 340 20 340 43 L340 235 C340 359 284 405 184 405 C105 405 60 368 60 333 C60 312 68 291 99 291 C128 291 139 304 139 322 C139 340 130 341 130 356 C130 379 150 393 184 393 C221 393 261 378 261 301 L261 248 C261 222 193 212 140 207 C102 203 19 186 19 95 C19 23 81 -9 147 -9 C212 -9 247 22 263 57 C269 17 293 -9 338 -9 C375 -9 395 9 403 31 L403 31 Z M261 104 C261 56 227 5 164 5 C119 5 98 42 98 95 C98 169 134 188 166 195 C195 201 245 206 261 228 L261 104 Z " />
<glyph glyph-name="b" unicode="b" horiz-adv-x="486" d="M467 197 C467 316 371 405 277 405 C221 405 187 378 168 344 L168 682 L24 682 L24 670 L85 670 L85 12 L24 12 L24 0 L169 0 L169 52 C187 18 221 -9 277 -9 C371 -9 467 79 467 197 L467 197 Z M382 197 C382 106 368 51 335 24 C316 9 296 4 270 4 C212 4 175 49 168 98 L168 296 C175 346 212 392 270 392 C296 392 316 387 335 372 C368 346 382 288 382 197 L382 197 Z " />
<glyph glyph-name="c" unicode="c" horiz-adv-x="401" d="M380 72 L370 80 C344 46 295 3 224 3 C196 3 170 9 151 24 C118 51 104 106 104 198 C104 290 118 345 151 372 C170 387 197 393 220 393 C265 393 294 376 294 347 C294 322 281 319 281 297 C281 273 301 262 322 262 C346 262 365 278 365 302 C365 346 316 405 220 405 C111 405 18 321 18 198 C18 75 112 -9 224 -9 C291 -9 340 22 380 72 L380 72 Z " />
<glyph glyph-name="d" unicode="d" horiz-adv-x="486" d="M462 0 L462 12 L401 12 L401 682 L255 682 L255 670 L317 670 L317 345 C299 379 266 405 209 405 C115 405 19 316 19 197 C19 78 115 -9 209 -9 C266 -9 299 17 317 51 L317 0 L462 0 Z M317 98 C311 48 274 4 216 4 C191 4 170 9 151 24 C118 51 104 106 104 197 C104 288 118 346 151 372 C170 387 190 392 216 392 C274 392 311 346 317 296 L317 98 Z " />
<glyph glyph-name="e" unicode="e" horiz-adv-x="414" d="M394 222 C393 312 328 405 218 405 C109 405 18 321 18 198 C18 75 110 -9 222 -9 C293 -9 343 25 384 80 L374 88 C348 49 296 3 222 3 C196 3 169 9 150 24 C117 51 105 102 105 198 L105 222 L394 222 Z M311 234 L106 234 C109 305 123 349 150 372 C169 388 196 393 218 393 C238 393 260 387 278 372 C308 346 311 287 311 234 L311 234 Z " />
<glyph glyph-name="f" unicode="f" horiz-adv-x="337" d="M336 613 C336 653 300 691 240 691 C155 691 91 608 91 426 L91 396 L17 396 L17 384 L91 384 L91 12 L30 12 L30 0 L235 0 L235 12 L173 12 L173 384 L259 384 L259 396 L173 396 L173 464 C173 519 162 531 162 563 C162 637 193 678 231 678 C254 678 269 667 269 645 C269 624 252 624 252 599 C252 584 264 567 293 567 C321 567 336 588 336 613 L336 613 Z " />
<glyph glyph-name="g" unicode="g" horiz-adv-x="505" d="M498 354 C498 382 475 405 445 405 C406 405 379 383 359 353 C327 386 282 405 237 405 C154 405 74 344 74 256 C74 219 88 188 111 162 C66 136 34 103 34 48 C34 1 71 -30 129 -43 C64 -59 10 -110 10 -164 C10 -232 88 -295 243 -295 C347 -295 481 -251 481 -128 C481 -27 413 17 290 21 L179 25 C123 26 87 42 87 91 C87 124 101 138 120 153 C152 125 195 108 237 108 C319 108 399 168 399 256 C399 290 387 320 367 345 C390 378 413 384 426 384 C435 384 445 378 445 367 C445 358 437 355 437 341 C437 329 450 318 467 318 C488 318 498 331 498 354 L498 354 Z M321 256 C321 187 311 155 288 136 C274 125 258 120 237 120 C217 120 199 125 185 136 C162 155 152 187 152 256 C152 322 162 358 185 378 C199 389 217 393 237 393 C258 393 274 389 288 378 C311 358 321 322 321 256 L321 256 Z M436 -158 C436 -236 334 -283 243 -283 C142 -283 73 -243 73 -152 C73 -94 104 -63 143 -45 C172 -49 269 -50 320 -53 C384 -56 436 -96 436 -158 L436 -158 Z " />
<glyph glyph-name="h" unicode="h" horiz-adv-x="528" d="M506 0 L506 12 L444 12 L444 249 C444 360 372 405 283 405 C225 405 185 377 169 333 L169 682 L24 682 L24 670 L85 670 L85 12 L24 12 L24 0 L230 0 L230 12 L169 12 L169 285 C172 339 210 392 276 392 C333 392 361 342 361 294 L361 12 L300 12 L300 0 L506 0 Z " />
<glyph glyph-name="i" unicode="i" horiz-adv-x="254" d="M180 581 C180 611 156 634 127 634 C98 634 74 610 74 581 C74 551 98 527 127 527 C156 527 180 551 180 581 L180 581 Z M230 0 L230 12 L169 12 L169 396 L24 396 L24 384 L86 384 L86 12 L24 12 L24 0 L230 0 Z " />
<glyph glyph-name="j" unicode="j" horiz-adv-x="292" d="M261 581 C261 611 237 634 208 634 C178 634 155 610 155 581 C155 551 179 527 208 527 C237 527 261 551 261 581 L261 581 Z M249 -23 L249 396 L105 396 L105 384 L166 384 L166 -168 C166 -255 146 -283 112 -283 C92 -283 77 -274 77 -256 C77 -229 92 -233 92 -208 C92 -191 80 -176 51 -176 C27 -176 9 -196 9 -222 C9 -263 49 -295 105 -295 C197 -295 249 -227 249 -23 L249 -23 Z " />
<glyph glyph-name="k" unicode="k" horiz-adv-x="526" d="M504 0 L504 12 L442 12 L231 258 L376 384 L438 384 L438 396 L282 396 L282 384 L357 384 L169 220 L169 682 L24 682 L24 670 L85 670 L85 12 L24 12 L24 0 L230 0 L230 12 L169 12 L169 212 L340 12 L284 12 L284 0 L504 0 Z " />
<glyph glyph-name="l" unicode="l" horiz-adv-x="254" d="M230 0 L230 12 L169 12 L169 682 L24 682 L24 670 L86 670 L86 12 L24 12 L24 0 L230 0 Z " />
<glyph glyph-name="m" unicode="m" horiz-adv-x="806" d="M782 0 L782 12 L721 12 L721 249 C721 362 647 405 559 405 C496 405 457 376 435 317 C414 380 354 405 283 405 C220 405 182 370 169 333 L169 396 L24 396 L24 384 L86 384 L86 12 L24 12 L24 0 L230 0 L230 12 L169 12 L169 284 C169 338 211 392 276 392 C334 392 361 341 361 293 L361 12 L300 12 L300 0 L506 0 L506 12 L445 12 L445 277 C445 339 487 392 553 392 C610 392 637 341 637 293 L637 12 L576 12 L576 0 L782 0 Z " />
<glyph glyph-name="n" unicode="n" horiz-adv-x="530" d="M506 0 L506 12 L445 12 L445 249 C445 362 372 405 283 405 C220 405 182 370 169 333 L169 396 L24 396 L24 384 L86 384 L86 12 L24 12 L24 0 L230 0 L230 12 L169 12 L169 283 C169 337 211 392 276 392 C334 392 361 341 361 293 L361 12 L300 12 L300 0 L506 0 Z " />
<glyph glyph-name="o" unicode="o" horiz-adv-x="448" d="M430 198 C430 321 336 405 224 405 C112 405 18 321 18 198 C18 75 112 -9 224 -9 C336 -9 430 75 430 198 L430 198 Z M344 198 C344 106 330 51 297 24 C278 9 254 3 224 3 C196 3 170 9 151 24 C118 51 104 106 104 198 C104 290 118 345 151 372 C170 387 197 393 224 393 C254 393 278 387 297 372 C330 345 344 290 344 198 L344 198 Z " />
<glyph glyph-name="p" unicode="p" horiz-adv-x="486" d="M467 198 C467 316 371 405 277 405 C220 405 187 378 169 344 L169 396 L24 396 L24 384 L85 384 L85 -274 L24 -274 L24 -286 L230 -286 L230 -274 L169 -274 L169 52 C187 18 220 -9 277 -9 C371 -9 467 78 467 198 L467 198 Z M382 198 C382 106 368 51 335 24 C316 9 296 4 270 4 C212 4 175 49 169 98 L169 296 C175 346 212 392 270 392 C296 392 316 387 335 372 C368 346 382 288 382 198 L382 198 Z " />
<glyph glyph-name="q" unicode="q" horiz-adv-x="486" d="M462 -286 L462 -274 L401 -274 L401 384 L462 384 L462 396 L317 396 L317 344 C299 378 266 405 209 405 C115 405 19 316 19 197 C19 78 115 -9 209 -9 C266 -9 299 18 317 52 L317 -274 L256 -274 L256 -286 L462 -286 Z M317 98 C311 49 274 4 216 4 C190 4 170 9 151 24 C118 51 104 106 104 197 C104 288 118 346 151 372 C170 387 190 392 216 392 C274 392 311 346 317 296 L317 98 Z " />
<glyph glyph-name="r" unicode="r" horiz-adv-x="362" d="M347 336 C347 386 306 405 275 405 C219 405 183 374 169 330 L169 396 L24 396 L24 384 L85 384 L85 12 L24 12 L24 0 L230 0 L230 12 L169 12 L169 277 C169 337 211 384 242 384 C261 384 270 371 270 359 C270 340 258 336 258 316 C258 297 274 281 302 281 C330 281 347 302 347 336 L347 336 Z " />
<glyph glyph-name="s" unicode="s" horiz-adv-x="337" d="M314 123 C314 185 264 219 192 241 C123 263 78 272 78 325 C78 362 107 393 157 393 C208 393 261 350 262 293 L274 293 L274 406 C274 406 262 406 262 406 C261 395 249 390 236 390 C206 390 194 405 157 405 C93 405 40 359 40 285 C40 223 87 194 155 174 C226 152 271 134 271 86 C271 31 228 3 174 3 C102 3 39 71 40 141 L28 141 L24 0 L36 0 C39 9 49 20 67 20 C98 20 116 -9 174 -9 C268 -9 314 48 314 123 L314 123 Z " />
<glyph glyph-name="t" unicode="t" horiz-adv-x="292" d="M282 66 L270 70 C265 43 249 12 213 12 C188 12 173 33 173 56 L173 384 L258 384 L258 396 L173 396 L173 558 L160 558 C148 527 102 503 91 501 L91 396 L17 396 L17 384 L91 384 L91 89 C91 29 123 -9 187 -9 C256 -9 274 30 282 66 L282 66 Z " />
<glyph glyph-name="u" unicode="u" horiz-adv-x="527" d="M503 0 L503 12 L441 12 L441 396 L296 396 L296 384 L358 384 L358 113 C358 59 315 4 249 4 C192 4 165 55 165 103 L165 396 L21 396 L21 384 L82 384 L82 148 C82 35 155 -9 244 -9 C307 -9 345 26 358 63 L358 0 L503 0 Z " />
<glyph glyph-name="v" unicode="v" horiz-adv-x="492" d="M475 384 L475 396 L346 396 L346 384 L409 384 L294 87 L154 384 L216 384 L216 396 L17 396 L17 384 L68 384 L255 -10 L269 -10 L422 384 L475 384 Z " />
<glyph glyph-name="w" unicode="w" horiz-adv-x="757" d="M740 384 L740 396 L611 396 L611 384 L674 384 L567 92 L429 384 L491 384 L491 396 L288 396 L288 384 L344 384 L374 319 L289 93 L153 384 L213 384 L213 396 L17 396 L17 384 L68 384 L251 -11 L264 -11 L381 304 L529 -11 L543 -11 L688 384 L740 384 Z " />
<glyph glyph-name="x" unicode="x" horiz-adv-x="502" d="M479 0 L479 12 L429 12 L276 234 L401 384 L454 384 L454 396 L314 396 L314 384 L384 384 L269 244 L174 384 L235 384 L235 396 L24 396 L24 384 L75 384 L215 179 L78 12 L24 12 L24 0 L162 0 L162 12 L94 12 L222 169 L330 12 L269 12 L269 0 L479 0 Z " />
<glyph glyph-name="y" unicode="y" horiz-adv-x="471" d="M463 384 L463 396 L334 396 L334 384 L397 384 L281 88 L141 384 L203 384 L203 396 L5 396 L5 384 L55 384 L243 -9 L172 -222 C156 -271 129 -277 115 -277 C101 -277 96 -266 95 -254 C93 -233 111 -235 111 -213 C111 -195 97 -179 72 -179 C47 -179 28 -202 28 -231 C28 -265 58 -295 96 -295 C136 -295 166 -283 187 -221 L256 -10 L410 384 L463 384 Z " />
<glyph glyph-name="z" unicode="z" horiz-adv-x="387" d="M367 0 L367 129 L353 129 C353 49 324 12 221 12 L111 12 L363 396 L51 396 L51 279 L63 279 C63 358 86 384 184 384 L269 384 L19 0 L367 0 Z " />
<glyph glyph-name="braceleft" unicode="&#x7b;" horiz-adv-x="218" d="M206 -230 L206 -218 L184 -218 C118 -218 85 -183 85 -76 C85 -2 121 77 121 153 C121 183 111 216 72 226 C111 236 121 270 121 300 C121 375 85 454 85 529 C85 632 118 670 184 670 L206 670 L206 682 L184 682 C75 682 24 605 24 486 C24 391 85 317 85 258 C85 240 71 233 58 233 C50 233 43 234 36 234 C30 234 26 233 26 226 C26 220 30 218 36 218 C44 218 50 220 58 220 C71 220 85 213 85 195 C85 137 24 61 24 -33 C24 -152 75 -230 184 -230 L206 -230 Z " />
<glyph glyph-name="bar" unicode="&#x7c;" horiz-adv-x="99" d="M55 -22 L55 682 L43 682 L43 -22 L55 -22 Z " />
<glyph glyph-name="braceright" unicode="&#x7d;" horiz-adv-x="218" d="M199 -33 C199 61 138 138 138 195 C138 213 152 220 165 220 C173 220 180 218 187 218 C193 218 198 220 198 226 C198 233 193 234 187 234 C180 234 173 233 165 233 C152 233 138 240 138 258 C138 317 199 390 199 486 C199 605 148 682 39 682 L17 682 L17 670 L39 670 C105 670 138 632 138 529 C138 454 102 376 102 299 C102 270 112 236 151 226 C112 216 102 183 102 153 C102 77 138 -2 138 -76 C138 -183 105 -218 39 -218 L17 -218 L17 -230 L39 -230 C148 -230 199 -152 199 -33 L199 -33 Z " />
<glyph glyph-name="asciitilde" unicode="&#x7e;" horiz-adv-x="384" d="M364 246 L356 258 C333 243 301 225 274 225 C219 225 171 284 112 284 C81 284 47 266 21 249 L29 237 C51 252 84 270 112 270 C167 270 215 211 274 211 C304 211 337 229 364 246 L364 246 Z " />
<glyph glyph-name="nbspace" unicode="&#xa0;" horiz-adv-x="244" d="" />
<glyph glyph-name="exclamdown" unicode="&#xa1;" horiz-adv-x="154" d="M122 361 C122 388 102 408 77 408 C52 408 32 388 32 361 C32 335 52 314 77 314 C102 314 122 335 122 361 L122 361 Z M130 -202 C130 -127 83 41 83 230 L71 230 C71 41 24 -127 24 -202 C24 -259 45 -276 77 -276 C109 -276 130 -259 130 -202 L130 -202 Z " />
<glyph glyph-name="cent" unicode="&#xa2;" horiz-adv-x="401" d="M380 72 L370 80 C344 45 294 4 225 3 L225 393 C263 391 294 378 294 347 C294 322 281 319 281 297 C281 273 301 262 322 262 C346 262 365 278 365 302 C365 352 307 402 225 405 L225 468 L213 468 L213 405 C108 402 18 318 18 198 C18 79 106 -4 213 -9 L213 -72 L225 -72 L225 -9 C291 -8 339 22 380 72 L380 72 Z M213 3 C190 4 168 11 151 24 C118 51 104 106 104 198 C104 290 118 345 151 372 C169 386 192 392 213 393 L213 3 Z " />
<glyph glyph-name="sterling" unicode="&#xa3;" horiz-adv-x="570" d="M546 114 L535 116 C530 79 507 46 465 46 C360 46 321 73 245 92 C282 132 295 165 295 221 C295 259 292 288 286 322 L384 322 L384 335 L284 335 C275 395 257 445 257 499 C257 615 295 662 355 662 C395 662 414 645 414 616 C414 592 394 586 394 565 C394 543 405 526 437 526 C473 526 488 551 488 576 C488 624 436 675 363 675 C240 675 170 563 170 450 C170 412 180 378 195 335 L107 335 L107 322 L199 322 C219 270 257 202 257 154 C257 137 250 110 236 95 C208 102 180 106 141 106 C64 106 24 70 24 30 C24 -4 59 -15 80 -15 C116 -15 163 9 200 41 C257 13 316 -15 385 -15 C477 -15 540 54 546 114 L546 114 Z M190 46 C155 16 114 -3 85 -3 C64 -3 40 6 40 31 C40 54 58 72 90 72 C127 72 152 63 190 46 L190 46 Z " />
<glyph glyph-name="currency" unicode="&#xa4;" horiz-adv-x="309" d="M288 186 L247 225 C290 273 290 342 247 390 L288 430 L279 438 L238 398 C190 439 119 439 71 398 L30 438 L21 430 L62 390 C19 342 19 273 62 225 L21 186 L30 177 L71 217 C119 176 190 176 238 217 L279 177 L288 186 Z M234 229 C190 186 119 186 75 229 C31 273 31 342 75 385 C119 428 190 428 234 385 C278 342 278 273 234 229 L234 229 Z " />
<glyph glyph-name="yen" unicode="&#xa5;" horiz-adv-x="628" d="M610 648 L610 660 L423 660 L423 648 L515 648 L366 315 L204 648 L297 648 L297 660 L26 660 L26 648 L109 648 L256 352 L104 352 L104 340 L262 340 L287 291 L287 229 L104 229 L104 217 L287 217 L287 12 L200 12 L200 0 L457 0 L457 12 L370 12 L370 217 L553 217 L553 229 L370 229 L370 292 L392 340 L553 340 L553 352 L397 352 L530 648 L610 648 Z " />
<glyph glyph-name="brokenbar" unicode="&#xa6;" horiz-adv-x="99" d="M55 359 L55 682 L43 682 L43 359 L55 359 Z M55 -22 L55 301 L43 301 L43 -22 L55 -22 Z " />
<glyph glyph-name="section" unicode="&#xa7;" horiz-adv-x="458" d="M434 191 C434 298 342 342 255 386 C188 419 101 460 101 543 C101 633 169 679 254 679 C312 679 344 654 344 606 C344 586 331 575 331 563 C331 542 348 528 373 528 C395 528 412 542 412 569 C412 621 364 691 254 691 C129 691 51 599 51 486 C51 434 78 396 115 363 C57 323 24 270 24 206 C24 101 111 57 196 15 C266 -19 357 -59 357 -145 C357 -220 296 -283 203 -283 C119 -283 93 -234 93 -201 C93 -182 106 -175 106 -154 C106 -133 88 -117 64 -117 C42 -117 24 -133 24 -159 C24 -212 89 -295 203 -295 C327 -295 405 -201 405 -88 C405 -37 381 1 344 34 C408 84 434 128 434 191 L434 191 Z M399 139 C399 106 376 75 333 43 C284 84 232 105 172 134 C108 166 59 201 59 257 C59 289 87 331 123 356 C159 324 218 298 251 281 C311 249 399 215 399 139 L399 139 Z " />
<glyph glyph-name="dieresis" unicode="&#xa8;" horiz-adv-x="312" d="M285 522 C285 545 267 564 245 564 C223 564 204 545 204 522 C204 499 223 480 245 480 C267 480 285 499 285 522 L285 522 Z M109 522 C109 545 90 564 68 564 C45 564 27 545 27 522 C27 499 45 480 68 480 C90 480 109 499 109 522 L109 522 Z " />
<glyph glyph-name="copyright" unicode="&#xa9;" horiz-adv-x="762" d="M738 330 C738 519 578 672 381 672 C184 672 24 519 24 330 C24 141 184 -12 381 -12 C578 -12 738 141 738 330 L738 330 Z M725 330 C725 147 571 0 381 0 C191 0 37 148 37 330 C37 513 191 660 381 660 C571 660 725 512 725 330 L725 330 Z M512 125 L512 262 L501 262 C500 190 451 135 380 135 C354 135 331 140 313 157 C287 181 270 236 270 330 C270 424 287 479 313 503 C332 521 354 525 380 525 C433 525 490 481 491 411 L502 411 L502 535 L491 535 C490 527 480 521 469 521 C439 521 412 536 380 536 C276 536 201 442 201 330 C201 218 276 124 380 124 C429 124 443 141 476 143 C490 143 500 134 501 125 L512 125 Z " />
<glyph glyph-name="ordfeminine" unicode="&#xaa;" horiz-adv-x="272" d="M246 417 L236 422 C231 411 225 407 220 407 C214 407 210 411 210 422 L210 525 C210 593 178 619 121 619 C78 619 50 598 50 577 C50 565 55 552 74 552 C91 552 99 560 99 571 C99 581 93 583 93 590 C93 599 103 608 121 608 C140 608 161 599 161 560 L161 532 C161 518 125 516 97 513 C75 511 27 502 27 450 C27 410 64 392 101 392 C133 392 153 404 163 421 C169 403 182 392 206 392 C228 392 239 402 246 417 L246 417 Z M160 454 C160 429 142 404 110 404 C88 404 76 421 76 450 C76 518 130 493 161 515 L160 454 Z " />
<glyph glyph-name="guillemotleft" unicode="&#xab;" horiz-adv-x="335" d="M310 54 C310 114 270 174 243 203 C270 232 310 291 310 352 L298 352 C297 282 213 232 170 204 L170 201 C213 174 297 124 298 53 L310 54 Z M164 53 C164 114 124 174 97 203 C124 232 164 291 164 352 L152 352 C151 282 67 232 24 204 L24 201 C67 174 151 124 152 53 L164 53 Z " />
<glyph glyph-name="logicalnot" unicode="&#xac;" horiz-adv-x="361" d="M337 148 L337 323 L24 323 L24 311 L324 311 L324 148 L337 148 Z " />
<glyph glyph-name="registered" unicode="&#xae;" horiz-adv-x="762" d="M738 330 C738 519 578 672 381 672 C184 672 24 519 24 330 C24 141 184 -12 381 -12 C578 -12 738 141 738 330 L738 330 Z M725 330 C725 147 571 0 381 0 C191 0 37 148 37 330 C37 513 191 660 381 660 C571 660 725 512 725 330 L725 330 Z M594 143 L587 151 C578 142 572 137 558 137 C540 137 527 153 527 181 L527 236 C527 295 488 330 413 338 C468 348 512 382 512 431 C512 491 452 527 378 527 L210 527 L210 516 L262 516 L262 144 L210 144 L210 133 L386 133 L386 144 L328 144 L328 332 L378 332 C424 332 460 315 460 271 L460 223 C460 173 486 124 544 124 C569 124 585 132 594 143 L594 143 Z M445 431 C445 362 425 343 381 343 L328 343 L328 516 L370 516 C416 516 445 495 445 431 L445 431 Z " />
<glyph glyph-name="macron" unicode="&#xaf;" horiz-adv-x="336" d="M312 528 L312 549 L24 549 L24 528 L312 528 Z " />
<glyph glyph-name="degree" unicode="&#xb0;" horiz-adv-x="304" d="M280 540 C280 611 222 669 152 669 C82 669 24 611 24 540 C24 469 82 411 152 411 C222 411 280 469 280 540 L280 540 Z M262 540 C262 477 213 427 152 427 C91 427 41 477 41 540 C41 603 91 653 152 653 C213 653 262 603 262 540 L262 540 Z " />
<glyph glyph-name="plusminus" unicode="&#xb1;" horiz-adv-x="381" d="M356 244 L356 257 L197 257 L197 413 L184 413 L184 257 L24 257 L24 244 L184 244 L184 88 L197 88 L197 244 L356 244 Z M340 49 L340 61 L41 61 L41 49 L340 49 Z " />
<glyph glyph-name="twosuperior" unicode="&#xb2;" horiz-adv-x="299" d="M261 362 L251 359 C251 337 246 324 221 329 C189 336 167 357 128 358 C92 359 73 343 61 329 C79 390 112 421 154 449 C197 479 249 503 249 564 C249 619 215 665 139 665 C69 665 49 613 49 582 C49 567 58 549 78 549 C94 549 107 558 107 575 C107 601 83 597 83 612 C83 642 112 652 138 652 C185 652 194 610 194 569 C194 524 158 496 127 465 C93 430 54 383 37 293 C35 285 51 281 52 291 C54 291 53 295 54 299 C56 311 71 315 86 315 C129 315 161 292 203 292 C250 292 265 328 261 362 L261 362 Z " />
<glyph glyph-name="threesuperior" unicode="&#xb3;" horiz-adv-x="281" d="M244 404 C244 452 218 495 162 503 C157 504 149 504 143 504 C175 520 221 552 221 589 C221 644 174 664 122 664 C72 664 48 636 48 617 C48 603 54 591 72 591 C89 591 97 600 97 611 C97 618 93 623 93 630 C93 643 102 652 122 652 C149 652 168 644 168 594 C168 542 145 518 84 484 C83 484 91 471 92 473 C100 480 117 491 132 491 C162 491 190 481 190 399 C190 317 158 304 117 304 C97 304 83 310 83 331 C83 338 87 343 87 350 C87 361 79 372 61 372 C43 372 37 358 37 346 C37 321 65 292 118 292 C174 292 244 328 244 404 L244 404 Z " />
<glyph glyph-name="acute" unicode="&#xb4;" horiz-adv-x="259" d="M235 593 C235 608 224 621 205 621 C176 621 164 582 149 559 C129 524 97 486 24 470 L24 458 C193 495 235 557 235 593 L235 593 Z " />
<glyph glyph-name="paragraph" unicode="&#xb6;" horiz-adv-x="576" d="M555 0 L555 12 L468 12 L468 648 L555 648 L555 660 L271 660 C119 660 24 570 24 456 C24 311 161 263 263 263 C304 263 347 268 356 270 L356 12 L269 12 L269 0 L555 0 Z M456 12 L427 12 L427 648 L456 648 L456 12 Z M356 282 C347 280 303 275 264 275 C175 275 127 325 127 456 C127 587 182 648 279 648 L356 648 L356 282 Z " />
<glyph glyph-name="periodcentered" unicode="&#xb7;" horiz-adv-x="138" d="M114 301 C114 327 94 348 69 348 C44 348 24 327 24 301 C24 275 44 254 69 254 C94 254 114 275 114 301 L114 301 Z " />
<glyph glyph-name="cedilla" unicode="&#xb8;" horiz-adv-x="188" d="M161 -134 C161 -73 100 -88 100 -38 C100 -29 104 -15 108 -7 L97 -2 C88 -14 75 -37 75 -59 C75 -117 139 -113 139 -147 C139 -171 125 -186 93 -186 C71 -186 62 -175 62 -163 C62 -156 70 -152 70 -141 C70 -130 60 -123 49 -123 C36 -123 27 -134 27 -146 C27 -173 53 -198 93 -198 C136 -198 161 -176 161 -134 L161 -134 Z " />
<glyph glyph-name="onesuperior" unicode="&#xb9;" horiz-adv-x="207" d="M171 297 L171 309 L132 309 L132 667 C101 647 61 636 37 629 L37 617 C52 620 83 632 83 626 L83 309 L46 309 L46 297 L171 297 Z " />
<glyph glyph-name="ordmasculine" unicode="&#xba;" horiz-adv-x="287" d="M260 505 C260 573 207 619 143 619 C80 619 27 573 27 505 C27 437 80 392 144 392 C207 392 260 437 260 505 L260 505 Z M206 505 C206 456 199 426 182 413 C173 406 160 403 143 403 C129 403 115 406 105 413 C88 426 81 456 81 505 C81 554 88 583 105 596 C115 604 129 608 144 608 C160 608 173 604 183 596 C199 583 206 554 206 505 L206 505 Z " />
<glyph glyph-name="guillemotright" unicode="&#xbb;" horiz-adv-x="335" d="M310 201 L310 204 C268 232 184 282 182 352 L170 352 C170 291 211 232 237 203 C211 174 170 114 170 53 L182 53 C184 124 268 174 310 201 L310 201 Z M164 201 L164 204 C122 232 37 282 36 352 L24 352 C24 291 65 232 91 203 C65 174 24 114 24 53 L36 53 C37 124 122 174 164 201 L164 201 Z " />
<glyph glyph-name="onequarter" unicode="&#xbc;" horiz-adv-x="521" d="M464 679 L452 686 L51 -12 L61 -18 L464 679 Z M484 140 L484 152 L425 152 L425 250 L412 250 C405 229 387 218 375 215 L375 152 L260 152 L452 397 L442 402 C423 383 394 366 369 371 L278 206 C263 178 249 155 239 140 L375 140 L375 0 L425 0 L425 140 L484 140 Z M170 297 L170 309 L132 309 L132 667 C101 647 61 636 37 629 L37 617 C52 620 83 632 83 626 L83 309 L46 309 L46 297 L170 297 Z " />
<glyph glyph-name="onehalf" unicode="&#xbd;" horiz-adv-x="557" d="M464 679 L452 686 L51 -12 L61 -18 L464 679 Z M519 65 L508 62 C509 40 504 27 479 32 C447 39 425 60 386 61 C350 62 330 46 318 32 C337 93 370 124 411 152 C455 182 507 206 507 267 C507 322 472 368 397 368 C327 368 307 316 307 285 C307 270 316 252 335 252 C352 252 365 261 365 278 C365 304 341 300 341 315 C341 345 370 355 396 355 C442 355 452 313 452 272 C452 227 415 199 385 168 C351 133 312 86 295 -4 C293 -12 309 -16 310 -6 C311 -6 311 -2 312 2 C314 14 329 18 344 18 C387 18 419 -5 461 -5 C508 -5 523 31 519 65 L519 65 Z M170 297 L170 309 L132 309 L132 667 C101 647 61 636 37 629 L37 617 C52 620 83 632 83 626 L83 309 L46 309 L46 297 L170 297 Z " />
<glyph glyph-name="threequarters" unicode="&#xbe;" horiz-adv-x="540" d="M483 679 L471 686 L69 -12 L79 -18 L483 679 Z M503 140 L503 152 L444 152 L444 250 L431 250 C423 229 405 218 393 215 L393 152 L278 152 L470 397 L460 402 C441 383 412 366 387 371 L297 206 C281 178 267 155 258 140 L393 140 L393 0 L444 0 L444 140 L503 140 Z M244 404 C244 452 218 495 162 503 C157 504 149 504 143 504 C175 520 221 552 221 589 C221 644 174 664 122 664 C72 664 48 636 48 617 C48 603 54 591 72 591 C89 591 97 600 97 611 C97 618 93 623 93 630 C93 643 102 652 122 652 C149 652 168 644 168 594 C168 542 145 518 84 484 C83 484 91 471 92 473 C100 480 117 491 132 491 C162 491 190 481 190 399 C190 317 158 304 117 304 C97 304 83 310 83 331 C83 338 87 343 87 350 C87 361 79 372 61 372 C43 372 37 358 37 346 C37 321 65 292 118 292 C174 292 244 328 244 404 L244 404 Z " />
<glyph glyph-name="questiondown" unicode="&#xbf;" horiz-adv-x="389" d="M312 361 C312 388 291 408 266 408 C241 408 221 388 221 361 C221 335 241 314 266 314 C291 314 312 335 312 361 L312 361 Z M382 -155 C382 -120 362 -105 334 -105 C304 -105 287 -122 287 -144 C287 -171 303 -172 303 -201 C303 -239 280 -264 232 -264 C206 -264 182 -259 163 -244 C129 -218 117 -175 117 -84 C117 41 124 66 143 83 C153 92 173 103 197 103 C225 103 256 92 274 69 C275 70 273 73 272 74 L272 230 L260 230 L260 96 C240 110 214 115 197 115 C104 115 24 32 24 -84 C24 -198 107 -276 232 -276 C326 -276 382 -209 382 -155 L382 -155 Z " />
<glyph glyph-name="Agrave" unicode="&#xc0;" horiz-adv-x="665" d="M660 0 L660 12 L578 12 L335 678 L325 678 L84 12 L5 12 L5 0 L190 0 L190 12 L98 12 L172 217 L394 217 L468 12 L377 12 L377 0 L660 0 Z M390 229 L177 229 L283 525 L390 229 Z M426 708 L426 720 C353 736 322 774 301 809 C287 832 274 871 246 871 C227 871 215 858 215 843 C215 807 257 745 426 708 L426 708 Z " />
<glyph glyph-name="Aacute" unicode="&#xc1;" horiz-adv-x="665" d="M660 0 L660 12 L578 12 L335 678 L325 678 L84 12 L5 12 L5 0 L190 0 L190 12 L98 12 L172 217 L394 217 L468 12 L377 12 L377 0 L660 0 Z M390 229 L177 229 L283 525 L390 229 Z M445 843 C445 858 434 871 415 871 C386 871 374 832 359 809 C339 774 307 736 234 720 L234 708 C403 745 445 807 445 843 L445 843 Z " />
<glyph glyph-name="Acircumflex" unicode="&#xc2;" horiz-adv-x="665" d="M660 0 L660 12 L578 12 L335 678 L325 678 L84 12 L5 12 L5 0 L190 0 L190 12 L98 12 L172 217 L394 217 L468 12 L377 12 L377 0 L660 0 Z M390 229 L177 229 L283 525 L390 229 Z M443 716 C423 737 335 850 326 863 L323 863 C314 850 226 737 206 716 L212 711 L325 797 L437 711 L443 716 Z " />
<glyph glyph-name="Atilde" unicode="&#xc3;" horiz-adv-x="665" d="M660 0 L660 12 L578 12 L335 678 L325 678 L84 12 L5 12 L5 0 L190 0 L190 12 L98 12 L172 217 L394 217 L468 12 L377 12 L377 0 L660 0 Z M390 229 L177 229 L283 525 L390 229 Z M492 845 L478 845 C477 819 464 788 427 788 C377 788 337 836 270 836 C210 836 164 793 164 733 L176 733 C177 767 192 790 228 790 C277 790 318 743 386 743 C444 743 491 786 491 845 L492 845 Z " />
<glyph glyph-name="Adieresis" unicode="&#xc4;" horiz-adv-x="665" d="M660 0 L660 12 L578 12 L335 678 L325 678 L84 12 L5 12 L5 0 L190 0 L190 12 L98 12 L172 217 L394 217 L468 12 L377 12 L377 0 L660 0 Z M390 229 L177 229 L283 525 L390 229 Z M455 772 C455 795 437 814 415 814 C393 814 374 795 374 772 C374 749 393 730 415 730 C437 730 455 749 455 772 L455 772 Z M279 772 C279 795 260 814 238 814 C215 814 197 795 197 772 C197 749 215 730 238 730 C260 730 279 749 279 772 L279 772 Z " />
<glyph glyph-name="Aring" unicode="&#xc5;" horiz-adv-x="665" d="M660 0 L660 12 L578 12 L335 678 L325 678 L84 12 L5 12 L5 0 L190 0 L190 12 L98 12 L172 217 L394 217 L468 12 L377 12 L377 0 L660 0 Z M390 229 L177 229 L283 525 L390 229 Z M404 742 C404 781 371 814 330 814 C288 814 256 781 256 742 C256 703 288 670 330 670 C371 670 404 703 404 742 L404 742 Z M391 742 C391 709 364 683 330 683 C295 683 268 709 268 742 C268 775 295 802 330 802 C364 802 391 775 391 742 L391 742 Z " />
<glyph glyph-name="AE" unicode="&#xc6;" horiz-adv-x="890" d="M879 0 L879 197 L867 197 C866 71 788 12 660 12 L550 12 L550 335 L584 335 C660 335 703 291 703 225 L715 225 L715 456 L703 456 C703 390 660 347 584 347 L550 347 L550 648 L655 648 C772 648 819 578 819 486 L832 486 L832 660 L344 660 L344 648 L432 648 L87 12 L5 12 L5 0 L190 0 L190 12 L102 12 L225 240 L446 240 L446 12 L359 12 L359 0 L879 0 Z M446 252 L232 252 L446 645 L446 252 Z " />
<glyph glyph-name="Ccedilla" unicode="&#xc7;" horiz-adv-x="548" d="M528 -14 L528 211 L516 211 C516 92 432 -3 311 -3 C267 -3 229 5 197 35 C152 77 124 172 124 330 C124 488 152 583 197 625 C229 655 267 663 311 663 C401 663 500 586 500 470 L512 470 L512 673 L500 673 C498 661 479 649 459 649 C412 649 371 675 311 675 C140 675 15 519 15 330 C15 141 140 -15 311 -15 C390 -15 433 16 470 16 C496 16 514 -1 516 -14 L528 -14 Z M373 -136 C373 -75 312 -90 312 -40 C312 -31 316 -17 320 -9 L309 -4 C300 -16 287 -39 287 -61 C287 -119 351 -115 351 -149 C351 -173 337 -188 305 -188 C283 -188 274 -177 274 -165 C274 -158 282 -154 282 -143 C282 -132 272 -125 261 -125 C248 -125 239 -136 239 -148 C239 -175 265 -200 305 -200 C348 -200 373 -178 373 -136 L373 -136 Z " />
<glyph glyph-name="Egrave" unicode="&#xc8;" horiz-adv-x="549" d="M538 0 L538 197 L526 197 C525 71 447 12 319 12 L209 12 L209 335 L243 335 C319 335 362 291 362 225 L374 225 L374 456 L362 456 C362 390 319 347 243 347 L209 347 L209 648 L315 648 C431 648 478 578 478 486 L491 486 L491 660 L19 660 L19 648 L105 648 L105 12 L19 12 L19 0 L538 0 Z M417 708 L417 720 C344 736 313 774 292 809 C278 832 265 871 237 871 C218 871 206 858 206 843 C206 807 248 745 417 708 L417 708 Z " />
<glyph glyph-name="Eacute" unicode="&#xc9;" horiz-adv-x="549" d="M538 0 L538 197 L526 197 C525 71 447 12 319 12 L209 12 L209 335 L243 335 C319 335 362 291 362 225 L374 225 L374 456 L362 456 C362 390 319 347 243 347 L209 347 L209 648 L315 648 C431 648 478 578 478 486 L491 486 L491 660 L19 660 L19 648 L105 648 L105 12 L19 12 L19 0 L538 0 Z M411 843 C411 858 400 871 381 871 C352 871 340 832 325 809 C305 774 273 736 200 720 L200 708 C369 745 411 807 411 843 L411 843 Z " />
<glyph glyph-name="Ecircumflex" unicode="&#xca;" horiz-adv-x="549" d="M538 0 L538 197 L526 197 C525 71 447 12 319 12 L209 12 L209 335 L243 335 C319 335 362 291 362 225 L374 225 L374 456 L362 456 C362 390 319 347 243 347 L209 347 L209 648 L315 648 C431 648 478 578 478 486 L491 486 L491 660 L19 660 L19 648 L105 648 L105 12 L19 12 L19 0 L538 0 Z M413 716 C393 737 305 850 296 863 L293 863 C284 850 196 737 176 716 L182 711 L295 797 L407 711 L413 716 Z " />
<glyph glyph-name="Edieresis" unicode="&#xcb;" horiz-adv-x="549" d="M538 0 L538 197 L526 197 C525 71 447 12 319 12 L209 12 L209 335 L243 335 C319 335 362 291 362 225 L374 225 L374 456 L362 456 C362 390 319 347 243 347 L209 347 L209 648 L315 648 C431 648 478 578 478 486 L491 486 L491 660 L19 660 L19 648 L105 648 L105 12 L19 12 L19 0 L538 0 Z M418 772 C418 795 400 814 378 814 C356 814 337 795 337 772 C337 749 356 730 378 730 C400 730 418 749 418 772 L418 772 Z M242 772 C242 795 223 814 201 814 C178 814 160 795 160 772 C160 749 178 730 201 730 C223 730 242 749 242 772 L242 772 Z " />
<glyph glyph-name="Igrave" unicode="&#xcc;" horiz-adv-x="326" d="M301 0 L301 12 L215 12 L215 648 L301 648 L301 660 L24 660 L24 648 L111 648 L111 12 L24 12 L24 0 L301 0 Z M267 708 L267 720 C194 736 163 774 142 809 C128 832 115 871 87 871 C68 871 56 858 56 843 C56 807 98 745 267 708 L267 708 Z " />
<glyph glyph-name="Iacute" unicode="&#xcd;" horiz-adv-x="326" d="M301 0 L301 12 L215 12 L215 648 L301 648 L301 660 L24 660 L24 648 L111 648 L111 12 L24 12 L24 0 L301 0 Z M270 843 C270 858 259 871 240 871 C211 871 199 832 184 809 C164 774 132 736 59 720 L59 708 C228 745 270 807 270 843 L270 843 Z " />
<glyph glyph-name="Icircumflex" unicode="&#xce;" horiz-adv-x="326" d="M301 0 L301 12 L215 12 L215 648 L301 648 L301 660 L24 660 L24 648 L111 648 L111 12 L24 12 L24 0 L301 0 Z M283 716 C263 737 175 850 166 863 L163 863 C154 850 66 737 46 716 L52 711 L165 797 L277 711 L283 716 Z " />
<glyph glyph-name="Idieresis" unicode="&#xcf;" horiz-adv-x="326" d="M301 0 L301 12 L215 12 L215 648 L301 648 L301 660 L24 660 L24 648 L111 648 L111 12 L24 12 L24 0 L301 0 Z M292 772 C292 795 274 814 252 814 C230 814 211 795 211 772 C211 749 230 730 252 730 C274 730 292 749 292 772 L292 772 Z M116 772 C116 795 97 814 75 814 C52 814 34 795 34 772 C34 749 52 730 75 730 C97 730 116 749 116 772 L116 772 Z " />
<glyph glyph-name="Eth" unicode="&#xd0;" horiz-adv-x="633" d="M611 330 C611 518 486 660 315 660 L24 660 L24 648 L111 648 L111 337 L24 337 L24 325 L111 325 L111 12 L24 12 L24 0 L315 0 C487 0 611 142 611 330 L611 330 Z M502 330 C502 182 477 89 429 47 C398 20 357 12 315 12 L215 12 L215 325 L314 325 L314 337 L215 337 L215 648 L315 648 C357 648 398 640 429 613 C477 571 502 468 502 330 L502 330 Z " />
<glyph glyph-name="Ntilde" unicode="&#xd1;" horiz-adv-x="658" d="M641 648 L641 660 L459 660 L459 648 L545 648 L545 177 L232 660 L24 660 L24 648 L108 648 L108 12 L24 12 L24 0 L211 0 L211 12 L120 12 L120 645 L545 -14 L557 -14 L557 648 L641 648 Z M503 845 L489 845 C488 819 475 788 438 788 C388 788 348 836 281 836 C221 836 175 793 175 733 L187 733 C188 767 203 790 239 790 C288 790 329 743 397 743 C455 743 502 786 502 845 L503 845 Z " />
<glyph glyph-name="Ograve" unicode="&#xd2;" horiz-adv-x="628" d="M610 330 C610 519 485 675 314 675 C143 675 18 519 18 330 C18 141 143 -15 314 -15 C485 -15 610 141 610 330 L610 330 Z M501 330 C501 172 473 77 428 35 C396 5 358 -3 314 -3 C270 -3 232 5 200 35 C155 77 127 172 127 330 C127 488 155 583 200 625 C232 655 270 663 314 663 C358 663 396 655 428 625 C473 583 501 488 501 330 L501 330 Z M429 708 L429 720 C356 736 325 774 304 809 C290 832 277 871 249 871 C230 871 218 858 218 843 C218 807 260 745 429 708 L429 708 Z " />
<glyph glyph-name="Oacute" unicode="&#xd3;" horiz-adv-x="628" d="M610 330 C610 519 485 675 314 675 C143 675 18 519 18 330 C18 141 143 -15 314 -15 C485 -15 610 141 610 330 L610 330 Z M501 330 C501 172 473 77 428 35 C396 5 358 -3 314 -3 C270 -3 232 5 200 35 C155 77 127 172 127 330 C127 488 155 583 200 625 C232 655 270 663 314 663 C358 663 396 655 428 625 C473 583 501 488 501 330 L501 330 Z M425 843 C425 858 414 871 395 871 C366 871 354 832 339 809 C319 774 287 736 214 720 L214 708 C383 745 425 807 425 843 L425 843 Z " />
<glyph glyph-name="Ocircumflex" unicode="&#xd4;" horiz-adv-x="628" d="M610 330 C610 519 485 675 314 675 C143 675 18 519 18 330 C18 141 143 -15 314 -15 C485 -15 610 141 610 330 L610 330 Z M501 330 C501 172 473 77 428 35 C396 5 358 -3 314 -3 C270 -3 232 5 200 35 C155 77 127 172 127 330 C127 488 155 583 200 625 C232 655 270 663 314 663 C358 663 396 655 428 625 C473 583 501 488 501 330 L501 330 Z M433 716 C413 737 325 850 316 863 L313 863 C304 850 216 737 196 716 L202 711 L315 797 L427 711 L433 716 Z " />
<glyph glyph-name="Otilde" unicode="&#xd5;" horiz-adv-x="628" d="M610 330 C610 519 485 675 314 675 C143 675 18 519 18 330 C18 141 143 -15 314 -15 C485 -15 610 141 610 330 L610 330 Z M501 330 C501 172 473 77 428 35 C396 5 358 -3 314 -3 C270 -3 232 5 200 35 C155 77 127 172 127 330 C127 488 155 583 200 625 C232 655 270 663 314 663 C358 663 396 655 428 625 C473 583 501 488 501 330 L501 330 Z M477 845 L463 845 C462 819 449 788 412 788 C362 788 322 836 255 836 C195 836 149 793 149 733 L161 733 C162 767 177 790 213 790 C262 790 303 743 371 743 C429 743 476 786 476 845 L477 845 Z " />
<glyph glyph-name="Odieresis" unicode="&#xd6;" horiz-adv-x="628" d="M610 330 C610 519 485 675 314 675 C143 675 18 519 18 330 C18 141 143 -15 314 -15 C485 -15 610 141 610 330 L610 330 Z M501 330 C501 172 473 77 428 35 C396 5 358 -3 314 -3 C270 -3 232 5 200 35 C155 77 127 172 127 330 C127 488 155 583 200 625 C232 655 270 663 314 663 C358 663 396 655 428 625 C473 583 501 488 501 330 L501 330 Z M448 772 C448 795 430 814 408 814 C386 814 367 795 367 772 C367 749 386 730 408 730 C430 730 448 749 448 772 L448 772 Z M272 772 C272 795 253 814 231 814 C208 814 190 795 190 772 C190 749 208 730 231 730 C253 730 272 749 272 772 L272 772 Z " />
<glyph glyph-name="multiply" unicode="&#xd7;" horiz-adv-x="291" d="M267 363 L258 372 L145 260 L35 370 L26 361 L136 251 L24 138 L33 129 L145 242 L256 131 L265 140 L154 251 L267 363 Z " />
<glyph glyph-name="Oslash" unicode="&#xd8;" horiz-adv-x="630" d="M611 330 C611 446 563 550 486 614 L522 675 L511 682 L476 621 C429 656 375 675 315 675 C144 675 18 519 18 330 C18 214 66 110 143 46 L107 -15 L119 -22 L154 39 C201 4 255 -15 315 -15 C486 -15 611 141 611 330 L611 330 Z M457 588 L166 86 C141 142 128 220 128 330 C128 488 156 583 201 625 C233 655 271 663 315 663 C359 663 397 655 429 625 C439 616 448 603 457 588 L457 588 Z M502 330 C502 172 474 77 429 35 C397 5 359 -3 315 -3 C271 -3 233 5 201 35 C191 44 181 56 173 72 L463 574 C488 518 502 440 502 330 L502 330 Z " />
<glyph glyph-name="Ugrave" unicode="&#xd9;" horiz-adv-x="655" d="M638 648 L638 660 L455 660 L455 648 L542 648 L542 189 C542 82 481 4 365 4 C254 4 205 62 205 188 L205 648 L292 648 L292 660 L17 660 L17 648 L101 648 L101 188 C101 55 195 -15 334 -15 C490 -15 554 65 554 189 L554 648 L638 648 Z M484 708 L484 720 C411 736 380 774 359 809 C345 832 332 871 304 871 C285 871 273 858 273 843 C273 807 315 745 484 708 L484 708 Z " />
<glyph glyph-name="Uacute" unicode="&#xda;" horiz-adv-x="655" d="M638 648 L638 660 L455 660 L455 648 L542 648 L542 189 C542 82 481 4 365 4 C254 4 205 62 205 188 L205 648 L292 648 L292 660 L17 660 L17 648 L101 648 L101 188 C101 55 195 -15 334 -15 C490 -15 554 65 554 189 L554 648 L638 648 Z M484 843 C484 858 473 871 454 871 C425 871 413 832 398 809 C378 774 346 736 273 720 L273 708 C442 745 484 807 484 843 L484 843 Z " />
<glyph glyph-name="Ucircumflex" unicode="&#xdb;" horiz-adv-x="655" d="M638 648 L638 660 L455 660 L455 648 L542 648 L542 189 C542 82 481 4 365 4 C254 4 205 62 205 188 L205 648 L292 648 L292 660 L17 660 L17 648 L101 648 L101 188 C101 55 195 -15 334 -15 C490 -15 554 65 554 189 L554 648 L638 648 Z M491 716 C471 737 383 850 374 863 L371 863 C362 850 274 737 254 716 L260 711 L373 797 L485 711 L491 716 Z " />
<glyph glyph-name="Udieresis" unicode="&#xdc;" horiz-adv-x="655" d="M638 648 L638 660 L455 660 L455 648 L542 648 L542 189 C542 82 481 4 365 4 C254 4 205 62 205 188 L205 648 L292 648 L292 660 L17 660 L17 648 L101 648 L101 188 C101 55 195 -15 334 -15 C490 -15 554 65 554 189 L554 648 L638 648 Z M509 772 C509 795 491 814 469 814 C447 814 428 795 428 772 C428 749 447 730 469 730 C491 730 509 749 509 772 L509 772 Z M333 772 C333 795 314 814 292 814 C269 814 251 795 251 772 C251 749 269 730 292 730 C314 730 333 749 333 772 L333 772 Z " />
<glyph glyph-name="Yacute" unicode="&#xdd;" horiz-adv-x="646" d="M629 648 L629 660 L440 660 L440 648 L530 648 L380 316 L216 648 L308 648 L308 660 L17 660 L17 648 L101 648 L280 287 L280 12 L194 12 L194 0 L471 0 L471 12 L384 12 L384 293 L545 648 L629 648 Z M470 843 C470 858 459 871 440 871 C411 871 399 832 384 809 C364 774 332 736 259 720 L259 708 C428 745 470 807 470 843 L470 843 Z " />
<glyph glyph-name="Thorn" unicode="&#xde;" horiz-adv-x="569" d="M547 345 C547 460 451 549 299 549 L215 549 L215 648 L301 648 L301 660 L24 660 L24 648 L111 648 L111 12 L24 12 L24 0 L301 0 L301 12 L215 12 L215 160 C224 157 266 152 307 152 C408 152 547 200 547 345 L547 345 Z M443 345 C443 214 394 164 306 164 C266 164 224 169 215 172 L215 537 L292 537 C389 537 443 476 443 345 L443 345 Z " />
<glyph glyph-name="germandbls" unicode="&#xdf;" horiz-adv-x="547" d="M498 181 C498 278 445 394 348 394 C337 394 329 394 316 390 C384 415 440 463 440 544 C440 636 369 691 270 691 C172 691 91 624 91 426 L91 12 L30 12 L30 0 L235 0 L235 12 L174 12 L174 559 C174 637 219 679 270 679 C336 679 364 633 364 545 C364 446 336 421 258 377 L265 365 C280 374 295 376 307 376 C380 376 415 325 415 178 C415 17 383 3 349 3 C320 3 297 16 297 50 C297 70 310 73 310 89 C310 106 295 117 278 117 C261 117 244 106 244 79 C244 24 284 -9 349 -9 C415 -9 498 48 498 181 L498 181 Z " />
<glyph glyph-name="agrave" unicode="&#xe0;" horiz-adv-x="411" d="M403 31 L395 36 C387 19 376 9 363 9 C349 9 340 20 340 43 L340 235 C340 359 284 405 184 405 C105 405 60 368 60 333 C60 312 68 291 99 291 C128 291 139 304 139 322 C139 340 130 341 130 356 C130 379 150 393 184 393 C221 393 261 378 261 301 L261 248 C261 222 193 212 140 207 C102 203 19 186 19 95 C19 23 81 -9 147 -9 C212 -9 247 22 263 57 C269 17 293 -9 338 -9 C375 -9 395 9 403 31 L403 31 Z M261 104 C261 56 227 5 164 5 C119 5 98 42 98 95 C98 169 134 188 166 195 C195 201 245 206 261 228 L261 104 Z M306 458 L306 470 C233 486 202 524 181 559 C167 582 154 621 126 621 C107 621 95 608 95 593 C95 557 137 495 306 458 L306 458 Z " />
<glyph glyph-name="aacute" unicode="&#xe1;" horiz-adv-x="411" d="M403 31 L395 36 C387 19 376 9 363 9 C349 9 340 20 340 43 L340 235 C340 359 284 405 184 405 C105 405 60 368 60 333 C60 312 68 291 99 291 C128 291 139 304 139 322 C139 340 130 341 130 356 C130 379 150 393 184 393 C221 393 261 378 261 301 L261 248 C261 222 193 212 140 207 C102 203 19 186 19 95 C19 23 81 -9 147 -9 C212 -9 247 22 263 57 C269 17 293 -9 338 -9 C375 -9 395 9 403 31 L403 31 Z M261 104 C261 56 227 5 164 5 C119 5 98 42 98 95 C98 169 134 188 166 195 C195 201 245 206 261 228 L261 104 Z M315 593 C315 608 304 621 285 621 C256 621 244 582 229 559 C209 524 177 486 104 470 L104 458 C273 495 315 557 315 593 L315 593 Z " />
<glyph glyph-name="acircumflex" unicode="&#xe2;" horiz-adv-x="411" d="M403 31 L395 36 C387 19 376 9 363 9 C349 9 340 20 340 43 L340 235 C340 359 284 405 184 405 C105 405 60 368 60 333 C60 312 68 291 99 291 C128 291 139 304 139 322 C139 340 130 341 130 356 C130 379 150 393 184 393 C221 393 261 378 261 301 L261 248 C261 222 193 212 140 207 C102 203 19 186 19 95 C19 23 81 -9 147 -9 C212 -9 247 22 263 57 C269 17 293 -9 338 -9 C375 -9 395 9 403 31 L403 31 Z M261 104 C261 56 227 5 164 5 C119 5 98 42 98 95 C98 169 134 188 166 195 C195 201 245 206 261 228 L261 104 Z M316 466 C296 487 208 600 199 613 L196 613 C187 600 99 487 79 466 L85 461 L198 547 L310 461 L316 466 Z " />
<glyph glyph-name="atilde" unicode="&#xe3;" horiz-adv-x="411" d="M403 31 L395 36 C387 19 376 9 363 9 C349 9 340 20 340 43 L340 235 C340 359 284 405 184 405 C105 405 60 368 60 333 C60 312 68 291 99 291 C128 291 139 304 139 322 C139 340 130 341 130 356 C130 379 150 393 184 393 C221 393 261 378 261 301 L261 248 C261 222 193 212 140 207 C102 203 19 186 19 95 C19 23 81 -9 147 -9 C212 -9 247 22 263 57 C269 17 293 -9 338 -9 C375 -9 395 9 403 31 L403 31 Z M261 104 C261 56 227 5 164 5 C119 5 98 42 98 95 C98 169 134 188 166 195 C195 201 245 206 261 228 L261 104 Z M368 595 L354 595 C353 569 340 538 303 538 C253 538 213 586 146 586 C86 586 40 543 40 483 L52 483 C53 517 68 540 104 540 C153 540 194 493 262 493 C320 493 367 536 367 595 L368 595 Z " />
<glyph glyph-name="adieresis" unicode="&#xe4;" horiz-adv-x="411" d="M403 31 L395 36 C387 19 376 9 363 9 C349 9 340 20 340 43 L340 235 C340 359 284 405 184 405 C105 405 60 368 60 333 C60 312 68 291 99 291 C128 291 139 304 139 322 C139 340 130 341 130 356 C130 379 150 393 184 393 C221 393 261 378 261 301 L261 248 C261 222 193 212 140 207 C102 203 19 186 19 95 C19 23 81 -9 147 -9 C212 -9 247 22 263 57 C269 17 293 -9 338 -9 C375 -9 395 9 403 31 L403 31 Z M261 104 C261 56 227 5 164 5 C119 5 98 42 98 95 C98 169 134 188 166 195 C195 201 245 206 261 228 L261 104 Z M338 522 C338 545 320 564 298 564 C276 564 257 545 257 522 C257 499 276 480 298 480 C320 480 338 499 338 522 L338 522 Z M162 522 C162 545 143 564 121 564 C98 564 80 545 80 522 C80 499 98 480 121 480 C143 480 162 499 162 522 L162 522 Z " />
<glyph glyph-name="aring" unicode="&#xe5;" horiz-adv-x="411" d="M403 31 L395 36 C387 19 376 9 363 9 C349 9 340 20 340 43 L340 235 C340 359 284 405 184 405 C105 405 60 368 60 333 C60 312 68 291 99 291 C128 291 139 304 139 322 C139 340 130 341 130 356 C130 379 150 393 184 393 C221 393 261 378 261 301 L261 248 C261 222 193 212 140 207 C102 203 19 186 19 95 C19 23 81 -9 147 -9 C212 -9 247 22 263 57 C269 17 293 -9 338 -9 C375 -9 395 9 403 31 L403 31 Z M261 104 C261 56 227 5 164 5 C119 5 98 42 98 95 C98 169 134 188 166 195 C195 201 245 206 261 228 L261 104 Z M278 545 C278 584 245 617 204 617 C162 617 130 584 130 545 C130 506 162 473 204 473 C245 473 278 506 278 545 L278 545 Z M265 545 C265 512 238 486 204 486 C169 486 142 512 142 545 C142 578 169 605 204 605 C238 605 265 578 265 545 L265 545 Z " />
<glyph glyph-name="ae" unicode="&#xe6;" horiz-adv-x="657" d="M637 222 C636 312 571 405 461 405 C403 405 351 381 317 344 C292 388 246 405 184 405 C105 405 60 368 60 333 C60 312 68 291 99 291 C129 291 139 304 139 322 C139 340 129 341 129 356 C129 379 151 393 184 393 C221 393 262 378 262 301 L262 248 C262 222 193 212 141 207 C102 203 19 186 19 95 C19 23 81 -9 148 -9 C212 -9 263 21 283 101 C318 31 388 -9 465 -9 C536 -9 586 25 627 80 L617 88 C591 49 539 3 465 3 C439 3 412 9 393 24 C360 51 348 102 348 198 L348 222 L637 222 Z M555 234 L349 234 C352 305 366 349 393 372 C412 388 439 393 461 393 C481 393 503 387 521 372 C551 346 554 287 555 234 L555 234 Z M261 104 C261 56 227 5 164 5 C119 5 97 40 97 95 C97 169 134 188 166 195 C195 201 245 206 262 228 L261 104 Z " />
<glyph glyph-name="ccedilla" unicode="&#xe7;" horiz-adv-x="401" d="M380 72 L370 80 C344 46 295 3 224 3 C196 3 170 9 151 24 C118 51 104 106 104 198 C104 290 118 345 151 372 C170 387 197 393 220 393 C265 393 294 376 294 347 C294 322 281 319 281 297 C281 273 301 262 322 262 C346 262 365 278 365 302 C365 346 316 405 220 405 C111 405 18 321 18 198 C18 75 112 -9 224 -9 C291 -9 340 22 380 72 L380 72 Z M284 -134 C284 -73 223 -88 223 -38 C223 -29 227 -15 231 -7 L220 -2 C211 -14 198 -37 198 -59 C198 -117 262 -113 262 -147 C262 -171 248 -186 216 -186 C194 -186 185 -175 185 -163 C185 -156 193 -152 193 -141 C193 -130 183 -123 172 -123 C159 -123 150 -134 150 -146 C150 -173 176 -198 216 -198 C259 -198 284 -176 284 -134 L284 -134 Z " />
<glyph glyph-name="egrave" unicode="&#xe8;" horiz-adv-x="414" d="M394 222 C393 312 328 405 218 405 C109 405 18 321 18 198 C18 75 110 -9 222 -9 C293 -9 343 25 384 80 L374 88 C348 49 296 3 222 3 C196 3 169 9 150 24 C117 51 105 102 105 198 L105 222 L394 222 Z M311 234 L106 234 C109 305 123 349 150 372 C169 388 196 393 218 393 C238 393 260 387 278 372 C308 346 311 287 311 234 L311 234 Z M318 458 L318 470 C245 486 214 524 193 559 C179 582 166 621 138 621 C119 621 107 608 107 593 C107 557 149 495 318 458 L318 458 Z " />
<glyph glyph-name="eacute" unicode="&#xe9;" horiz-adv-x="414" d="M394 222 C393 312 328 405 218 405 C109 405 18 321 18 198 C18 75 110 -9 222 -9 C293 -9 343 25 384 80 L374 88 C348 49 296 3 222 3 C196 3 169 9 150 24 C117 51 105 102 105 198 L105 222 L394 222 Z M311 234 L106 234 C109 305 123 349 150 372 C169 388 196 393 218 393 C238 393 260 387 278 372 C308 346 311 287 311 234 L311 234 Z M322 593 C322 608 311 621 292 621 C263 621 251 582 236 559 C216 524 184 486 111 470 L111 458 C280 495 322 557 322 593 L322 593 Z " />
<glyph glyph-name="ecircumflex" unicode="&#xea;" horiz-adv-x="414" d="M394 222 C393 312 328 405 218 405 C109 405 18 321 18 198 C18 75 110 -9 222 -9 C293 -9 343 25 384 80 L374 88 C348 49 296 3 222 3 C196 3 169 9 150 24 C117 51 105 102 105 198 L105 222 L394 222 Z M311 234 L106 234 C109 305 123 349 150 372 C169 388 196 393 218 393 C238 393 260 387 278 372 C308 346 311 287 311 234 L311 234 Z M334 466 C314 487 226 600 217 613 L214 613 C205 600 117 487 97 466 L103 461 L216 547 L328 461 L334 466 Z " />
<glyph glyph-name="edieresis" unicode="&#xeb;" horiz-adv-x="414" d="M394 222 C393 312 328 405 218 405 C109 405 18 321 18 198 C18 75 110 -9 222 -9 C293 -9 343 25 384 80 L374 88 C348 49 296 3 222 3 C196 3 169 9 150 24 C117 51 105 102 105 198 L105 222 L394 222 Z M311 234 L106 234 C109 305 123 349 150 372 C169 388 196 393 218 393 C238 393 260 387 278 372 C308 346 311 287 311 234 L311 234 Z M339 522 C339 545 321 564 299 564 C277 564 258 545 258 522 C258 499 277 480 299 480 C321 480 339 499 339 522 L339 522 Z M163 522 C163 545 144 564 122 564 C99 564 81 545 81 522 C81 499 99 480 122 480 C144 480 163 499 163 522 L163 522 Z " />
<glyph glyph-name="igrave" unicode="&#xec;" horiz-adv-x="255" d="M234 458 L234 470 C160 486 129 524 108 559 C94 582 82 621 53 621 C34 621 22 608 22 593 C22 557 65 495 234 458 L234 458 Z M221 0 L221 12 L159 12 L159 396 L14 396 L14 384 L76 384 L76 12 L14 12 L14 0 L221 0 Z " />
<glyph glyph-name="iacute" unicode="&#xed;" horiz-adv-x="255" d="M232 593 C232 608 220 621 201 621 C173 621 161 582 146 559 C125 524 94 486 21 470 L21 458 C190 495 232 557 232 593 L232 593 Z M221 0 L221 12 L159 12 L159 396 L14 396 L14 384 L76 384 L76 12 L14 12 L14 0 L221 0 Z " />
<glyph glyph-name="icircumflex" unicode="&#xee;" horiz-adv-x="255" d="M231 0 L231 12 L169 12 L169 396 L24 396 L24 384 L86 384 L86 12 L24 12 L24 0 L231 0 Z M244 466 C224 487 136 600 127 613 L124 613 C115 600 27 487 7 466 L13 461 L126 547 L238 461 L244 466 Z " />
<glyph glyph-name="idieresis" unicode="&#xef;" horiz-adv-x="255" d="M231 0 L231 12 L169 12 L169 396 L24 396 L24 384 L86 384 L86 12 L24 12 L24 0 L231 0 Z M256 522 C256 545 238 564 216 564 C194 564 175 545 175 522 C175 499 194 480 216 480 C238 480 256 499 256 522 L256 522 Z M80 522 C80 545 61 564 39 564 C16 564 -2 545 -2 522 C-2 499 16 480 39 480 C61 480 80 499 80 522 L80 522 Z " />
<glyph glyph-name="eth" unicode="&#xf0;" horiz-adv-x="446" d="M428 231 C428 311 410 475 275 598 L345 636 L338 647 L266 606 C228 639 181 667 126 690 L121 678 C164 659 201 628 235 589 L148 541 L153 531 L242 580 C288 523 318 455 326 378 C293 399 254 405 224 405 C112 405 18 321 18 198 C18 75 112 -9 223 -9 C334 -9 428 62 428 231 L428 231 Z M344 198 C344 106 330 51 297 24 C278 9 254 3 224 3 C196 3 170 9 151 24 C118 51 104 106 104 198 C104 290 118 345 151 372 C170 387 197 393 224 393 C254 393 278 387 297 372 C330 345 344 290 344 198 L344 198 Z " />
<glyph glyph-name="ntilde" unicode="&#xf1;" horiz-adv-x="530" d="M506 0 L506 12 L445 12 L445 249 C445 362 372 405 283 405 C220 405 182 370 169 333 L169 396 L24 396 L24 384 L86 384 L86 12 L24 12 L24 0 L230 0 L230 12 L169 12 L169 283 C169 337 211 392 276 392 C334 392 361 341 361 293 L361 12 L300 12 L300 0 L506 0 Z M435 595 L421 595 C420 569 407 538 370 538 C320 538 280 586 213 586 C153 586 107 543 107 483 L119 483 C120 517 135 540 171 540 C220 540 261 493 329 493 C387 493 434 536 434 595 L435 595 Z " />
<glyph glyph-name="ograve" unicode="&#xf2;" horiz-adv-x="448" d="M430 198 C430 321 336 405 224 405 C112 405 18 321 18 198 C18 75 112 -9 224 -9 C336 -9 430 75 430 198 L430 198 Z M344 198 C344 106 330 51 297 24 C278 9 254 3 224 3 C196 3 170 9 151 24 C118 51 104 106 104 198 C104 290 118 345 151 372 C170 387 197 393 224 393 C254 393 278 387 297 372 C330 345 344 290 344 198 L344 198 Z M331 458 L331 470 C258 486 227 524 206 559 C192 582 179 621 151 621 C132 621 120 608 120 593 C120 557 162 495 331 458 L331 458 Z " />
<glyph glyph-name="oacute" unicode="&#xf3;" horiz-adv-x="448" d="M430 198 C430 321 336 405 224 405 C112 405 18 321 18 198 C18 75 112 -9 224 -9 C336 -9 430 75 430 198 L430 198 Z M344 198 C344 106 330 51 297 24 C278 9 254 3 224 3 C196 3 170 9 151 24 C118 51 104 106 104 198 C104 290 118 345 151 372 C170 387 197 393 224 393 C254 393 278 387 297 372 C330 345 344 290 344 198 L344 198 Z M328 593 C328 608 317 621 298 621 C269 621 257 582 242 559 C222 524 190 486 117 470 L117 458 C286 495 328 557 328 593 L328 593 Z " />
<glyph glyph-name="ocircumflex" unicode="&#xf4;" horiz-adv-x="448" d="M430 198 C430 321 336 405 224 405 C112 405 18 321 18 198 C18 75 112 -9 224 -9 C336 -9 430 75 430 198 L430 198 Z M344 198 C344 106 330 51 297 24 C278 9 254 3 224 3 C196 3 170 9 151 24 C118 51 104 106 104 198 C104 290 118 345 151 372 C170 387 197 393 224 393 C254 393 278 387 297 372 C330 345 344 290 344 198 L344 198 Z M340 466 C320 487 232 600 223 613 L220 613 C211 600 123 487 103 466 L109 461 L222 547 L334 461 L340 466 Z " />
<glyph glyph-name="otilde" unicode="&#xf5;" horiz-adv-x="448" d="M430 198 C430 321 336 405 224 405 C112 405 18 321 18 198 C18 75 112 -9 224 -9 C336 -9 430 75 430 198 L430 198 Z M344 198 C344 106 330 51 297 24 C278 9 254 3 224 3 C196 3 170 9 151 24 C118 51 104 106 104 198 C104 290 118 345 151 372 C170 387 197 393 224 393 C254 393 278 387 297 372 C330 345 344 290 344 198 L344 198 Z M391 595 L377 595 C376 569 363 538 326 538 C276 538 236 586 169 586 C109 586 63 543 63 483 L75 483 C76 517 91 540 127 540 C176 540 217 493 285 493 C343 493 390 536 390 595 L391 595 Z " />
<glyph glyph-name="odieresis" unicode="&#xf6;" horiz-adv-x="448" d="M430 198 C430 321 336 405 224 405 C112 405 18 321 18 198 C18 75 112 -9 224 -9 C336 -9 430 75 430 198 L430 198 Z M344 198 C344 106 330 51 297 24 C278 9 254 3 224 3 C196 3 170 9 151 24 C118 51 104 106 104 198 C104 290 118 345 151 372 C170 387 197 393 224 393 C254 393 278 387 297 372 C330 345 344 290 344 198 L344 198 Z M354 522 C354 545 336 564 314 564 C292 564 273 545 273 522 C273 499 292 480 314 480 C336 480 354 499 354 522 L354 522 Z M178 522 C178 545 159 564 137 564 C114 564 96 545 96 522 C96 499 114 480 137 480 C159 480 178 499 178 522 L178 522 Z " />
<glyph glyph-name="divide" unicode="&#xf7;" horiz-adv-x="342" d="M206 172 C206 192 190 209 171 209 C152 209 136 192 136 172 C136 152 152 136 171 136 C190 136 206 152 206 172 L206 172 Z M318 244 L318 257 L24 257 L24 244 L318 244 Z M206 329 C206 349 190 365 171 365 C152 365 136 349 136 329 C136 309 152 293 171 293 C190 293 206 309 206 329 L206 329 Z " />
<glyph glyph-name="oslash" unicode="&#xf8;" horiz-adv-x="493" d="M427 198 C427 272 394 331 342 367 L374 414 L362 421 L332 375 C299 394 262 405 223 405 C111 405 19 321 19 198 C19 125 51 65 103 29 L72 -18 L83 -24 L114 21 C146 2 185 -9 223 -9 C335 -9 427 75 427 198 L427 198 Z M314 348 L124 59 C109 92 103 136 103 198 C103 290 117 345 150 372 C169 387 195 393 223 393 C253 393 277 387 296 371 C302 366 308 358 314 348 L314 348 Z M344 198 C344 102 329 51 296 25 C277 9 253 3 223 3 C195 3 169 9 150 24 C143 30 137 38 131 47 L322 337 C338 304 344 258 344 198 L344 198 Z " />
<glyph glyph-name="ugrave" unicode="&#xf9;" horiz-adv-x="527" d="M503 0 L503 12 L441 12 L441 396 L296 396 L296 384 L358 384 L358 113 C358 59 315 4 249 4 C192 4 165 55 165 103 L165 396 L21 396 L21 384 L82 384 L82 148 C82 35 155 -9 244 -9 C307 -9 345 26 358 63 L358 0 L503 0 Z M371 458 L371 470 C298 486 267 524 246 559 C232 582 219 621 191 621 C172 621 160 608 160 593 C160 557 202 495 371 458 L371 458 Z " />
<glyph glyph-name="uacute" unicode="&#xfa;" horiz-adv-x="527" d="M503 0 L503 12 L441 12 L441 396 L296 396 L296 384 L358 384 L358 113 C358 59 315 4 249 4 C192 4 165 55 165 103 L165 396 L21 396 L21 384 L82 384 L82 148 C82 35 155 -9 244 -9 C307 -9 345 26 358 63 L358 0 L503 0 Z M371 593 C371 608 360 621 341 621 C312 621 300 582 285 559 C265 524 233 486 160 470 L160 458 C329 495 371 557 371 593 L371 593 Z " />
<glyph glyph-name="ucircumflex" unicode="&#xfb;" horiz-adv-x="527" d="M503 0 L503 12 L441 12 L441 396 L296 396 L296 384 L358 384 L358 113 C358 59 315 4 249 4 C192 4 165 55 165 103 L165 396 L21 396 L21 384 L82 384 L82 148 C82 35 155 -9 244 -9 C307 -9 345 26 358 63 L358 0 L503 0 Z M375 466 C355 487 267 600 258 613 L255 613 C246 600 158 487 138 466 L144 461 L257 547 L369 461 L375 466 Z " />
<glyph glyph-name="udieresis" unicode="&#xfc;" horiz-adv-x="527" d="M503 0 L503 12 L441 12 L441 396 L296 396 L296 384 L358 384 L358 113 C358 59 315 4 249 4 C192 4 165 55 165 103 L165 396 L21 396 L21 384 L82 384 L82 148 C82 35 155 -9 244 -9 C307 -9 345 26 358 63 L358 0 L503 0 Z M389 522 C389 545 371 564 349 564 C327 564 308 545 308 522 C308 499 327 480 349 480 C371 480 389 499 389 522 L389 522 Z M213 522 C213 545 194 564 172 564 C149 564 131 545 131 522 C131 499 149 480 172 480 C194 480 213 499 213 522 L213 522 Z " />
<glyph glyph-name="yacute" unicode="&#xfd;" horiz-adv-x="471" d="M463 384 L463 396 L334 396 L334 384 L397 384 L281 88 L141 384 L203 384 L203 396 L5 396 L5 384 L55 384 L243 -9 L172 -222 C156 -271 129 -277 115 -277 C101 -277 96 -266 95 -254 C93 -233 111 -235 111 -213 C111 -195 97 -179 72 -179 C47 -179 28 -202 28 -231 C28 -265 58 -295 96 -295 C136 -295 166 -283 187 -221 L256 -10 L410 384 L463 384 Z M376 593 C376 608 365 621 346 621 C317 621 305 582 290 559 C270 524 238 486 165 470 L165 458 C334 495 376 557 376 593 L376 593 Z " />
<glyph glyph-name="thorn" unicode="&#xfe;" horiz-adv-x="486" d="M467 198 C467 316 371 405 277 405 C220 405 187 378 169 344 L169 682 L24 682 L24 670 L85 670 L85 -274 L24 -274 L24 -286 L230 -286 L230 -274 L169 -274 L169 52 C187 18 220 -9 277 -9 C371 -9 467 78 467 198 L467 198 Z M382 198 C382 106 368 51 335 24 C316 9 296 4 270 4 C212 4 175 49 169 98 L169 296 C175 346 212 392 270 392 C296 392 316 387 335 372 C368 346 382 288 382 198 L382 198 Z " />
<glyph glyph-name="ydieresis" unicode="&#xff;" horiz-adv-x="471" d="M463 384 L463 396 L334 396 L334 384 L397 384 L281 88 L141 384 L203 384 L203 396 L5 396 L5 384 L55 384 L243 -9 L172 -222 C156 -271 129 -277 115 -277 C101 -277 96 -266 95 -254 C93 -233 111 -235 111 -213 C111 -195 97 -179 72 -179 C47 -179 28 -202 28 -231 C28 -265 58 -295 96 -295 C136 -295 166 -283 187 -221 L256 -10 L410 384 L463 384 Z M398 522 C398 545 380 564 358 564 C336 564 317 545 317 522 C317 499 336 480 358 480 C380 480 398 499 398 522 L398 522 Z M222 522 C222 545 203 564 181 564 C158 564 140 545 140 522 C140 499 158 480 181 480 C203 480 222 499 222 522 L222 522 Z " />
<glyph glyph-name="dotlessi" unicode="&#x131;" horiz-adv-x="255" d="M231 0 L231 12 L169 12 L169 396 L24 396 L24 384 L86 384 L86 12 L24 12 L24 0 L231 0 Z " />
<glyph glyph-name="Lslash" unicode="&#x141;" horiz-adv-x="525" d="M520 0 L520 210 L507 210 C506 105 459 12 323 12 L215 12 L215 387 L301 402 L301 414 L215 399 L215 648 L301 648 L301 660 L24 660 L24 648 L111 648 L111 380 L24 365 L24 353 L111 368 L111 12 L24 12 L24 0 L520 0 Z " />
<glyph glyph-name="lslash" unicode="&#x142;" horiz-adv-x="254" d="M264 401 L264 413 L169 395 L169 682 L24 682 L24 670 L86 670 L86 381 L-8 365 L-8 353 L86 369 L86 12 L24 12 L24 0 L230 0 L230 12 L169 12 L169 383 L264 401 Z " />
<glyph glyph-name="OE" unicode="&#x152;" horiz-adv-x="857" d="M846 0 L846 197 L834 197 C833 71 755 12 627 12 L517 12 L517 335 L551 335 C627 335 670 291 670 225 L682 225 L682 456 L670 456 C670 390 627 347 551 347 L517 347 L517 648 L622 648 C739 648 786 578 786 486 L799 486 L799 660 L320 660 C148 660 24 519 24 330 C24 141 148 0 320 0 L846 0 Z M413 12 L320 12 C276 12 238 19 207 47 C159 90 133 187 133 330 C133 473 159 570 207 613 C238 641 276 648 320 648 L413 648 L413 12 Z " />
<glyph glyph-name="oe" unicode="&#x153;" horiz-adv-x="740" d="M719 222 C719 312 654 405 543 405 C480 405 423 376 386 328 C348 376 289 405 224 405 C112 405 18 321 18 198 C18 75 112 -9 224 -9 C289 -9 349 20 387 68 C424 20 482 -9 547 -9 C618 -9 668 25 709 80 L699 88 C673 49 622 3 547 3 C521 3 495 9 476 24 C443 51 431 102 431 198 L431 222 L719 222 Z M637 234 L431 234 C434 305 448 349 476 372 C495 388 521 393 543 393 C563 393 585 387 603 372 C633 346 636 287 637 234 L637 234 Z M344 198 C344 106 330 51 297 24 C278 9 254 3 224 3 C196 3 170 9 151 24 C118 51 104 106 104 198 C104 290 118 345 151 372 C170 387 197 393 224 393 C254 393 278 387 297 372 C330 345 344 290 344 198 L344 198 Z " />
<glyph glyph-name="Scaron" unicode="&#x160;" horiz-adv-x="471" d="M447 190 C447 305 374 349 254 392 C140 433 85 472 85 539 C85 606 138 663 213 663 C290 663 360 606 361 512 L373 512 L373 674 L361 674 C359 662 343 654 327 654 C291 654 268 675 213 675 C117 675 40 589 40 482 C40 372 107 325 193 291 C302 249 396 228 396 127 C396 65 340 -3 234 -3 C111 -3 37 117 36 193 L24 193 L24 -14 L36 -14 C38 3 53 25 82 25 C120 25 155 -15 234 -15 C378 -15 447 105 447 190 L447 190 Z M331 855 L325 860 L213 774 L100 860 L94 855 C151 793 184 747 211 707 L214 707 C241 747 274 793 331 855 L331 855 Z " />
<glyph glyph-name="scaron" unicode="&#x161;" horiz-adv-x="337" d="M314 123 C314 185 264 219 192 241 C123 263 78 272 78 325 C78 362 107 393 157 393 C208 393 261 350 262 293 L274 293 L274 406 C274 406 262 406 262 406 C261 395 249 390 236 390 C206 390 194 405 157 405 C93 405 40 359 40 285 C40 223 87 194 155 174 C226 152 271 134 271 86 C271 31 228 3 174 3 C102 3 39 71 40 141 L28 141 L24 0 L36 0 C39 9 49 20 67 20 C98 20 116 -9 174 -9 C268 -9 314 48 314 123 L314 123 Z M284 605 L278 610 L166 524 L53 610 L47 605 C104 543 137 497 164 457 L167 457 C194 497 227 543 284 605 L284 605 Z " />
<glyph glyph-name="Ydieresis" unicode="&#x178;" horiz-adv-x="646" d="M629 648 L629 660 L440 660 L440 648 L530 648 L380 316 L216 648 L308 648 L308 660 L17 660 L17 648 L101 648 L280 287 L280 12 L194 12 L194 0 L471 0 L471 12 L384 12 L384 293 L545 648 L629 648 Z M500 772 C500 795 482 814 460 814 C438 814 419 795 419 772 C419 749 438 730 460 730 C482 730 500 749 500 772 L500 772 Z M324 772 C324 795 305 814 283 814 C260 814 242 795 242 772 C242 749 260 730 283 730 C305 730 324 749 324 772 L324 772 Z " />
<glyph glyph-name="Zcaron" unicode="&#x17d;" horiz-adv-x="510" d="M491 0 L491 212 L479 212 C479 102 421 12 294 12 L126 12 L491 660 L40 660 L40 455 L53 455 C53 565 110 648 229 648 L373 648 L7 0 L491 0 Z M377 855 L371 860 L259 774 L146 860 L140 855 C197 793 230 747 257 707 L260 707 C287 747 320 793 377 855 L377 855 Z " />
<glyph glyph-name="zcaron" unicode="&#x17e;" horiz-adv-x="387" d="M367 0 L367 129 L353 129 C353 49 324 12 221 12 L111 12 L363 396 L51 396 L51 279 L63 279 C63 358 86 384 184 384 L269 384 L19 0 L367 0 Z M322 605 L316 610 L204 524 L91 610 L85 605 C142 543 175 497 202 457 L205 457 C232 497 265 543 322 605 L322 605 Z " />
<glyph glyph-name="florin" unicode="&#x192;" horiz-adv-x="573" d="M567 611 C574 650 551 691 484 691 C404 691 319 602 287 431 L264 306 L176 306 L173 294 L261 294 L178 -164 C162 -252 138 -283 99 -283 C76 -283 60 -273 64 -252 C69 -225 87 -229 91 -203 C93 -188 86 -173 57 -173 C33 -173 11 -194 6 -220 C-1 -261 29 -295 91 -295 C179 -295 250 -228 287 -24 L345 294 L431 294 L433 306 L347 306 L375 461 C381 495 374 534 381 565 C395 633 433 679 478 679 C502 679 515 668 510 642 C505 615 486 622 481 593 C479 582 487 565 516 565 C546 565 562 585 567 611 L567 611 Z " />
<glyph glyph-name="circumflex" unicode="&#x2c6;" horiz-adv-x="285" d="M261 466 C241 487 153 600 144 613 L141 613 C132 600 44 487 24 466 L30 461 L143 547 L255 461 L261 466 Z " />
<glyph glyph-name="caron" unicode="&#x2c7;" horiz-adv-x="285" d="M261 605 L255 610 L143 524 L30 610 L24 605 C81 543 114 497 141 457 L144 457 C171 497 204 543 261 605 L261 605 Z " />
<glyph glyph-name="breve" unicode="&#x2d8;" horiz-adv-x="321" d="M297 618 L284 618 C284 572 264 520 161 520 C57 520 37 572 37 618 L24 618 C24 557 57 474 161 474 C265 474 297 557 297 618 L297 618 Z " />
<glyph glyph-name="dotaccent" unicode="&#x2d9;" horiz-adv-x="134" d="M110 536 C110 560 91 579 67 579 C44 579 24 560 24 536 C24 512 44 493 67 493 C91 493 110 512 110 536 L110 536 Z " />
<glyph glyph-name="ring" unicode="&#x2da;" horiz-adv-x="201" d="M175 545 C175 584 142 617 101 617 C59 617 27 584 27 545 C27 506 59 473 101 473 C142 473 175 506 175 545 L175 545 Z M162 545 C162 512 135 486 101 486 C66 486 39 512 39 545 C39 578 66 605 101 605 C135 605 162 578 162 545 L162 545 Z " />
<glyph glyph-name="ogonek" unicode="&#x2db;" horiz-adv-x="324" d="M186 -163 L177 -153 C166 -170 149 -180 132 -180 C103 -180 76 -167 76 -122 C76 -71 110 -38 156 -15 L149 -5 C72 -43 30 -92 30 -134 C30 -176 57 -205 105 -205 C144 -205 168 -187 186 -163 L186 -163 Z " />
<glyph glyph-name="tilde" unicode="&#x2dc;" horiz-adv-x="381" d="M355 595 L341 595 C340 569 327 538 290 538 C240 538 200 586 133 586 C73 586 27 543 27 483 L39 483 C40 517 55 540 91 540 C140 540 181 493 249 493 C307 493 354 536 354 595 L355 595 Z " />
<glyph glyph-name="hungarumlaut" unicode="&#x2dd;" horiz-adv-x="427" d="M403 593 C403 608 391 621 372 621 C344 621 331 582 317 559 C296 524 265 486 192 470 L192 458 C361 495 403 557 403 593 L403 593 Z M235 593 C235 608 224 621 205 621 C176 621 164 582 149 559 C129 524 97 486 24 470 L24 458 C193 495 235 557 235 593 L235 593 Z " />
<glyph glyph-name="pi" unicode="&#x3c0;" horiz-adv-x="762" d="M738 330 C738 519 578 672 381 672 C184 672 24 519 24 330 C24 141 184 -12 381 -12 C578 -12 738 141 738 330 L738 330 Z M725 330 C725 147 571 0 381 0 C191 0 37 148 37 330 C37 513 191 660 381 660 C571 660 725 512 725 330 L725 330 Z M546 404 C546 473 488 527 397 527 L230 527 L230 516 L282 516 L282 144 L230 144 L230 133 L400 133 L400 144 L348 144 L348 293 C361 291 380 288 401 288 C461 288 546 318 546 404 L546 404 Z M481 404 C481 328 451 299 401 299 C381 299 361 302 348 304 L348 516 L391 516 C447 516 481 480 481 404 L481 404 Z " />
<glyph glyph-name="endash" unicode="&#x2013;" horiz-adv-x="424" d="M424 220 L424 232 L0 232 L0 220 L424 220 Z " />
<glyph glyph-name="emdash" unicode="&#x2014;" horiz-adv-x="744" d="M744 220 L744 232 L0 232 L0 220 L744 220 Z " />
<glyph glyph-name="quoteleft" unicode="&#x2018;" horiz-adv-x="136" d="M116 662 L110 672 C55 653 24 579 24 535 C24 501 39 480 68 480 C88 480 107 500 107 523 C107 540 101 551 91 558 C74 571 64 585 64 602 C64 619 75 634 93 649 C99 655 108 659 116 662 L116 662 Z " />
<glyph glyph-name="quoteright" unicode="&#x2019;" horiz-adv-x="136" d="M111 617 C111 651 96 672 68 672 C47 672 29 651 29 628 C29 612 35 601 44 594 C62 581 72 566 72 550 C72 533 61 517 42 502 C36 497 28 493 19 490 L26 480 C80 498 111 573 111 617 L111 617 Z " />
<glyph glyph-name="quotesinglbase" unicode="&#x201a;" horiz-adv-x="136" d="M111 27 C111 61 96 82 68 82 C47 82 29 61 29 38 C29 22 35 11 44 4 C62 -9 72 -24 72 -40 C72 -57 61 -73 42 -88 C36 -93 28 -97 19 -100 L25 -110 C80 -91 111 -17 111 27 L111 27 Z " />
<glyph glyph-name="quotedblleft" unicode="&#x201c;" horiz-adv-x="265" d="M246 662 L239 672 C185 653 154 579 154 535 C154 501 169 480 197 480 C218 480 236 500 236 523 C236 540 231 551 221 558 C203 571 193 585 193 602 C193 619 204 634 223 649 C229 655 237 659 246 662 L246 662 Z M116 662 L110 672 C55 653 24 579 24 535 C24 501 39 480 68 480 C88 480 107 500 107 523 C107 540 101 551 91 558 C74 571 64 585 64 602 C64 619 75 634 93 649 C99 655 108 659 116 662 L116 662 Z " />
<glyph glyph-name="quotedblright" unicode="&#x201d;" horiz-adv-x="265" d="M241 617 C241 651 226 672 197 672 C177 672 158 651 158 628 C158 612 164 601 174 594 C192 581 201 566 201 550 C201 533 190 517 172 502 C166 497 157 493 149 490 L156 480 C210 498 241 573 241 617 L241 617 Z M111 617 C111 651 96 672 68 672 C47 672 29 651 29 628 C29 612 35 601 44 594 C62 581 72 566 72 550 C72 533 61 517 42 502 C36 497 28 493 19 490 L26 480 C80 498 111 573 111 617 L111 617 Z " />
<glyph glyph-name="quotedblbase" unicode="&#x201e;" horiz-adv-x="265" d="M241 27 C241 61 226 82 197 82 C177 82 158 61 158 38 C158 22 164 11 174 4 C192 -9 201 -24 201 -40 C201 -57 190 -73 172 -88 C166 -93 157 -97 149 -100 L156 -110 C210 -92 241 -17 241 27 L241 27 Z M111 27 C111 61 96 82 68 82 C47 82 29 61 29 38 C29 22 35 11 44 4 C62 -9 72 -24 72 -40 C72 -57 61 -73 42 -88 C36 -93 28 -97 19 -100 L26 -110 C80 -92 111 -17 111 27 L111 27 Z " />
<glyph glyph-name="dagger" unicode="&#x2020;" horiz-adv-x="466" d="M442 438 C442 464 423 471 399 471 C389 471 376 466 363 461 C334 451 313 446 291 444 C269 442 238 443 238 443 C238 443 237 496 239 518 C241 540 246 564 257 594 C262 607 266 619 266 629 C266 654 258 672 233 672 C208 672 200 654 200 629 C200 619 204 607 209 593 C220 564 225 540 227 518 C229 496 228 443 228 443 C228 443 197 442 175 444 C153 446 132 451 103 461 C90 466 77 471 67 471 C42 471 24 464 24 438 C24 413 42 405 67 405 C78 405 89 410 103 415 C132 426 153 430 175 432 C197 434 228 433 228 433 C228 433 228 368 226 339 C224 311 219 283 204 258 C207 247 218 182 223 142 C228 101 227 -143 227 -143 L239 -143 C239 -143 238 101 243 142 C248 182 260 247 262 258 C247 283 242 311 240 339 C238 368 238 433 238 433 C238 433 269 434 291 432 C313 430 334 426 363 415 C377 410 388 405 399 405 C423 405 442 413 442 438 L442 438 Z " />
<glyph glyph-name="daggerdbl" unicode="&#x2021;" horiz-adv-x="466" d="M442 -42 C442 -17 423 -9 399 -9 C388 -9 377 -14 363 -19 C334 -30 313 -34 291 -36 C269 -38 238 -37 238 -37 C238 -37 238 28 240 57 C242 85 247 113 262 138 C260 149 241 164 241 198 C241 232 260 247 262 258 C247 283 242 311 240 339 C238 368 238 433 238 433 C238 433 269 434 291 432 C313 430 334 426 363 415 C377 410 388 405 399 405 C423 405 442 413 442 438 C442 464 423 471 399 471 C389 471 376 466 363 461 C334 451 313 446 291 444 C269 442 238 443 238 443 C238 443 237 496 239 518 C241 540 246 564 257 594 C262 607 266 619 266 629 C266 654 258 672 233 672 C208 672 200 654 200 629 C200 619 204 607 209 593 C220 564 225 540 227 518 C229 496 228 443 228 443 C228 443 197 442 175 444 C153 446 132 451 103 461 C90 466 77 471 67 471 C42 471 24 464 24 438 C24 413 42 405 67 405 C78 405 89 410 103 415 C132 426 153 430 175 432 C197 434 228 433 228 433 C228 433 228 368 226 339 C224 311 219 283 204 258 C207 247 226 232 226 198 C226 164 207 149 204 138 C219 113 224 85 226 57 C228 28 228 -37 228 -37 C228 -37 197 -38 175 -36 C153 -34 132 -30 103 -19 C89 -14 78 -9 67 -9 C42 -9 24 -17 24 -42 C24 -68 42 -75 67 -75 C77 -75 90 -70 103 -65 C132 -55 153 -50 175 -48 C197 -46 228 -47 228 -47 C228 -47 229 -100 227 -122 C225 -144 220 -168 209 -198 C204 -211 200 -223 200 -233 C200 -258 208 -276 233 -276 C258 -276 266 -258 266 -233 C266 -223 262 -211 257 -197 C246 -168 241 -144 239 -122 C237 -100 238 -47 238 -47 C238 -47 269 -46 291 -48 C313 -50 334 -55 363 -65 C376 -70 389 -75 399 -75 C423 -75 442 -68 442 -42 L442 -42 Z " />
<glyph glyph-name="bullet" unicode="&#x2022;" horiz-adv-x="280" d="M237 309 C237 364 193 408 141 408 C88 408 43 364 43 309 C43 254 88 210 141 210 C193 210 237 254 237 309 L237 309 Z " />
<glyph glyph-name="ellipsis" unicode="&#x2026;" horiz-adv-x="498" d="M474 35 C474 61 454 82 429 82 C404 82 384 61 384 35 C384 8 404 -12 429 -12 C454 -12 474 8 474 35 L474 35 Z M294 35 C294 61 274 82 249 82 C224 82 204 61 204 35 C204 8 224 -12 249 -12 C274 -12 294 8 294 35 L294 35 Z M114 35 C114 61 94 82 69 82 C44 82 24 61 24 35 C24 8 44 -12 69 -12 C94 -12 114 8 114 35 L114 35 Z " />
<glyph glyph-name="perthousand" unicode="&#x2030;" horiz-adv-x="994" d="M970 204 C970 277 926 320 866 320 C746 320 656 203 656 107 C656 34 702 -9 764 -9 C882 -9 970 108 970 204 L970 204 Z M914 241 C914 185 889 63 829 22 C810 9 790 4 767 4 C728 4 714 24 714 70 C714 126 738 249 799 290 C818 303 839 307 861 307 C901 307 914 287 914 241 L914 241 Z M620 204 C620 277 575 320 514 320 C395 320 306 203 306 107 C306 34 352 -9 413 -9 C531 -9 620 108 620 204 L620 204 Z M532 672 C532 678 525 682 519 681 L509 666 C467 597 378 548 333 593 C319 641 280 667 232 667 C113 667 24 551 24 455 C24 382 70 339 131 339 C249 339 338 456 338 552 C338 560 337 570 336 577 C367 549 439 564 480 615 L115 -15 L125 -22 L516 649 C516 649 533 662 532 672 L532 672 Z M281 589 C281 532 257 410 196 368 C177 355 157 351 134 351 C94 351 81 372 81 417 C81 474 105 595 166 637 C186 650 206 655 228 655 C267 655 281 634 281 589 L281 589 Z M563 241 C563 185 539 63 479 22 C460 9 439 4 417 4 C377 4 364 24 364 70 C364 126 388 249 449 290 C468 303 488 307 510 307 C550 307 563 287 563 241 L563 241 Z " />
<glyph glyph-name="guilsinglleft" unicode="&#x2039;" horiz-adv-x="188" d="M164 54 C164 114 124 174 97 203 C124 232 164 291 164 352 L152 352 C151 282 67 232 24 204 L24 201 C67 174 151 124 152 53 L164 54 Z " />
<glyph glyph-name="guilsinglright" unicode="&#x203a;" horiz-adv-x="188" d="M164 201 L164 204 C122 232 37 282 36 352 L24 352 C24 291 65 232 91 203 C65 174 24 114 24 53 L36 53 C37 124 122 174 164 201 L164 201 Z " />
<glyph glyph-name="fraction" unicode="&#x2044;" horiz-adv-x="424" d="M419 679 L406 686 L5 -12 L15 -18 L419 679 Z " />
<glyph glyph-name="trademark" unicode="&#x2122;" horiz-adv-x="589" d="M565 396 L565 403 L530 403 L530 653 L565 653 L565 660 L487 660 L417 458 L339 660 L259 660 L259 653 L292 653 L292 403 L259 403 L259 396 L338 396 L338 403 L300 403 L300 640 L395 391 L403 391 L486 636 L486 403 L451 403 L451 396 L565 396 Z M240 574 L240 660 L24 660 L24 574 L31 574 C31 616 50 653 103 653 L110 653 L110 403 L75 403 L75 396 L190 396 L190 403 L155 403 L155 653 L162 653 C215 653 233 615 233 574 L240 574 Z " />
<glyph glyph-name="minus" unicode="&#x2212;" horiz-adv-x="342" d="M318 244 L318 257 L24 257 L24 244 L318 244 Z " />
<glyph glyph-name="notequal" unicode="&#x2260;" horiz-adv-x="360" d="M336 167 L336 179 L171 179 L203 302 L336 302 L336 314 L206 314 L240 439 L227 439 L194 314 L24 314 L24 302 L190 302 L158 179 L24 179 L24 167 L154 167 L121 40 L133 40 L167 167 L336 167 Z " />
<glyph glyph-name="lessequal" unicode="&#x2264;" horiz-adv-x="360" d="M289 111 L80 258 L289 405 L282 415 L58 258 L282 101 L289 111 Z M336 64 L336 76 L24 76 L24 64 L336 64 Z " />
<glyph glyph-name="greaterequal" unicode="&#x2265;" horiz-adv-x="360" d="M293 258 L69 415 L61 405 L271 258 L61 111 L69 101 L293 258 Z M336 64 L336 76 L24 76 L24 64 L336 64 Z " />
<glyph glyph-name="fi" unicode="&#xfb01;" horiz-adv-x="506" d="M482 0 L482 12 L420 12 L420 396 L173 396 L173 464 C173 514 167 533 167 563 C167 638 219 679 277 679 C324 679 348 660 348 616 C348 591 332 588 332 564 C332 542 346 525 379 525 C408 525 429 550 429 574 C429 641 369 691 277 691 C174 691 91 608 91 426 L91 396 L17 396 L17 384 L91 384 L91 12 L30 12 L30 0 L235 0 L235 12 L173 12 L173 384 L338 384 L338 12 L276 12 L276 0 L482 0 Z " />
<glyph glyph-name="fl" unicode="&#xfb02;" horiz-adv-x="506" d="M482 0 L482 12 L420 12 L420 682 L411 682 C408 681 373 669 351 665 C329 682 298 691 271 691 C160 691 91 610 91 426 L91 396 L17 396 L17 384 L91 384 L91 12 L30 12 L30 0 L235 0 L235 12 L173 12 L173 384 L266 384 L266 396 L173 396 L173 464 C173 513 164 534 164 563 C164 638 221 679 268 679 C294 679 326 670 338 653 L338 12 L276 12 L276 0 L482 0 Z " />
</font>
</svg>
